STARTFONT 2.1
FONT -FontForge-Young Serif-Book-R-Normal--75-720-75-75-P-459-ISO10646-1
SIZE 72 75 75
FONTBOUNDINGBOX 113 122 -9 -23
COMMENT "Generated by fontforge, http://fontforge.sourceforge.net"
COMMENT "Copyright 2023 The Young Serif Project Authors (https://github.com/noirblancrouge/YoungSerif)"
STARTPROPERTIES 39
FOUNDRY "FontForge"
FAMILY_NAME "Young Serif"
WEIGHT_NAME "Book"
SLANT "R"
SETWIDTH_NAME "Normal"
ADD_STYLE_NAME ""
PIXEL_SIZE 75
POINT_SIZE 720
RESOLUTION_X 75
RESOLUTION_Y 75
SPACING "P"
AVERAGE_WIDTH 459
CHARSET_REGISTRY "ISO10646"
CHARSET_ENCODING "1"
FONTNAME_REGISTRY ""
CHARSET_COLLECTIONS "ISO8859-2 ISO8859-9 ISO8859-4 ISO10646-1"
FONT_NAME "YoungSerif-Regular"
FACE_NAME "Young Serif Regular"
COPYRIGHT "Copyright 2023 The Young Serif Project Authors (https://github.com/noirblancrouge/YoungSerif)"
FONT_VERSION "3.003; ttfautohint (v1.8.4.7-5d5b);gftools[0.9.33]"
FONT_ASCENT 60
FONT_DESCENT 15
UNDERLINE_POSITION -9
UNDERLINE_THICKNESS 4
X_HEIGHT 37
CAP_HEIGHT 56
RAW_ASCENT 800
RAW_DESCENT 200
NORM_SPACE 19
RELATIVE_WEIGHT 40
RELATIVE_SETWIDTH 50
SUPERSCRIPT_X 0
SUPERSCRIPT_Y 26
SUPERSCRIPT_SIZE 45
SUBSCRIPT_X 0
SUBSCRIPT_Y 5
SUBSCRIPT_SIZE 45
AVG_LOWERCASE_WIDTH 433
AVG_UPPERCASE_WIDTH 584
ENDPROPERTIES
CHARS 631
STARTCHAR CR
ENCODING 13
SWIDTH 600 0
DWIDTH 45 0
BBX 1 1 0 0
BITMAP
00
ENDCHAR
STARTCHAR space
ENCODING 32
SWIDTH 250 0
DWIDTH 19 0
BBX 1 1 0 0
BITMAP
00
ENDCHAR
STARTCHAR exclam
ENCODING 33
SWIDTH 373 0
DWIDTH 28 0
BBX 15 60 4 -1
BITMAP
0380
07E0
0FF0
1FF8
3FFC
7FFC
7FFE
FFFE
7FFE
7FFE
7FFE
7FFE
7FFC
7FFC
3FFC
3FFC
3FFC
3FF8
3FF8
3FF8
1FF8
1FF8
1FF8
1FF0
1FF0
1FF0
0FF0
0FF0
0FF0
0FF0
0FF0
0FE0
0FE0
0FE0
0FE0
0FE0
0FE0
0FE0
0FE0
0FE0
0FE0
0000
0000
0000
0000
0380
07E0
0FF0
1FF8
3FFC
7FFC
7FFE
FFFE
7FFE
7FFC
3FFC
1FF8
0FF0
07E0
0380
ENDCHAR
STARTCHAR quotedbl
ENCODING 34
SWIDTH 402 0
DWIDTH 30 0
BBX 23 20 3 40
BITMAP
FF83FE
FF83FE
FF83FE
FF83FE
FF83FE
FF81FE
7F81FE
7F81FE
7F81FE
7F01FE
7F01FC
7F01FC
7F01FC
7F01FC
7F01FC
7F00FC
3F00FC
3F00FC
3F00FC
3E00F8
ENDCHAR
STARTCHAR numbersign
ENCODING 35
SWIDTH 760 0
DWIDTH 57 0
BBX 53 52 2 0
BITMAP
000007F001FC00
000007F003FC00
00000FF003FC00
00000FE003F800
00000FE003F800
00000FE007F800
00001FE007F800
00001FC007F000
00001FC007F000
00001FC00FF000
00003FC00FF000
00003F800FE000
00003F800FE000
03FFFFFFFFFFF8
03FFFFFFFFFFF8
03FFFFFFFFFFF8
07FFFFFFFFFFF8
07FFFFFFFFFFF0
07FFFFFFFFFFF0
0000FE003F8000
0000FE003F8000
0001FE007F8000
0001FE007F8000
0001FC007F0000
0001FC007F0000
0003FC00FF0000
0003FC00FF0000
0003F800FE0000
0003F800FE0000
0003F801FE0000
0007F801FE0000
0007F801FC0000
0007F001FC0000
0007F001FC0000
7FFFFFFFFFFF00
7FFFFFFFFFFF00
FFFFFFFFFFFF00
FFFFFFFFFFFE00
FFFFFFFFFFFE00
FFFFFFFFFFFE00
001FC007F00000
001FC00FF00000
003FC00FF00000
003F800FE00000
003F800FE00000
003F800FE00000
007F801FE00000
007F001FC00000
007F001FC00000
007F001FC00000
00FF003FC00000
00FE003F800000
ENDCHAR
STARTCHAR dollar
ENCODING 36
SWIDTH 723 0
DWIDTH 54 0
BBX 52 70 1 -6
BITMAP
0000007C000000
000000FE000000
000000FE000000
000000FE000000
000000FE000000
000000FE000000
00003FFE07E000
0001FFFF07E000
000FFFFFE3F000
001FFFFFFBF000
007FFFFFFFF000
00FFFFFFFFF800
01FFFCFFFFF800
01FFE0FFFFFC00
03FFC0FE7FFC00
03FFC0FE1FFC00
03FF80FE0FFE00
07FF80FE07FE00
07FF80FE03FF00
07FF80FE00FF00
07FF80FE007F00
07FF80FE007F80
07FFC0FE003F00
07FFE0FE001E00
07FFF0FE000800
03FFF8FE000000
03FFFEFE000000
03FFFFFE000000
01FFFFFE000000
00FFFFFE000000
00FFFFFFE00000
007FFFFFF80000
003FFFFFFF0000
000FFFFFFFC000
0007FFFFFFF000
0001FFFFFFF800
00007FFFFFFE00
00001FFFFFFF00
000003FFFFFF80
000000FFFFFFC0
000000FFFFFFC0
000000FEFFFFE0
040000FE3FFFE0
1E0000FE0FFFF0
7F0000FE03FFF0
FF0000FE01FFF0
7F8000FE00FFF0
7FC000FE00FFF0
3FE000FE007FF0
3FE000FE007FF0
1FF000FE007FF0
1FF800FE007FF0
0FFE00FE007FE0
0FFF00FE00FFE0
07FF80FE00FFE0
07FFE0FE01FFC0
03FFF8FE03FFC0
03FFFEFE07FF80
01FFFFFE3FFF00
00FFFFFFFFFE00
00FFFFFFFFFC00
007FFFFFFFF800
007F1FFFFFE000
003F87FFFF8000
003F80FFF80000
000000FE000000
000000FE000000
000000FE000000
000000FE000000
000000FE000000
ENDCHAR
STARTCHAR percent
ENCODING 37
SWIDTH 883 0
DWIDTH 66 0
BBX 56 57 5 -1
BITMAP
000000000000E0
003F80000003F0
01FFF0000007E0
03FFF800000FC0
07FFFC00000F80
0FFFFE00001F80
1FC3FF00003F00
3F80FF80007E00
3F00FFC0007C00
7E007FC000FC00
7E003FC001F800
7E003FE003F000
FE001FE003E000
FE001FE007C000
FF000FE00FC000
FF000FE01F8000
FF000FE03F0000
FF800FE03E0000
7F800FE07E0000
7FC00FE0FC0000
7FC00FC1F80000
3FE00FC1F00000
3FF01F83F00000
1FF87F87E00000
0FFFFF0FC00000
07FFFE0F800000
03FFFC1F800000
00FFF03F000000
003FC07E01FC00
0000007C07FF80
000000FC1FFFC0
000001F83FFFF0
000003F07FFFF8
000007E0FFC3F8
000007C1FF80FC
00000FC1FF00FE
00001F83FE007E
00003F03FC007E
00003E07FC007F
00007E07F8007F
0000FC07F8007F
0001F807F8007F
0001F007F000FF
0003F007F000FF
0007E007F000FF
000FC007F001FE
000F8003F001FE
001F8003F003FE
003F0003F807FC
007E0001F80FFC
00FC0000FE1FF8
00FC0000FFFFF0
01F800007FFFE0
03F000001FFFC0
07E000000FFF00
07C0000001FC00
0FC00000000000
ENDCHAR
STARTCHAR ampersand
ENCODING 38
SWIDTH 813 0
DWIDTH 61 0
BBX 58 59 1 -1
BITMAP
00001FFC00000000
0000FFFF80000000
0003FFFFE0000000
000FFFFFF0000000
001FF01FF8000000
003FC00FFC000000
007F800FFC000000
007F8007FC000000
00FF0007FC000000
00FF0007FC000000
00FF0007FC000000
01FF000FFC000000
01FF000FF8000000
01FF001FC0000000
01FF801C00000000
01FF800000000000
01FFC00000000000
01FFC00000000000
00FFE00000000000
00FFF00000000000
00FFF8000FFFFFC0
007FFC001FFFFFC0
007FFE001FFFFFC0
003FFE001FFFFFC0
001FFF000FFFFFC0
000FFF8000FFFC00
0007FFC0007FF000
0007FFE0003FE000
0003FFF0003FC000
0001FFF0003FC000
000FFFF8003F8000
007FFFFC003F0000
00FFFFFE003F0000
03FFFFFF007F0000
07FF9FFF807E0000
0FFF0FFF807E0000
1FFE07FFC0FC0000
3FFC03FFE0FC0000
3FF801FFF1F80000
7FF000FFF9F80000
7FF0007FFFF00000
7FF0007FFFF00000
7FE0003FFFE00000
FFE0001FFFE00000
FFE0000FFFC00000
7FE00007FFC00000
7FF00003FFE00000
7FF00001FFF00000
7FF00000FFF80000
7FF80001FFFC0000
3FFC0007FFFE0000
3FFF001FFFFF0000
1FFFC0FFFFFFC000
0FFFFFFFEFFFFF80
07FFFFFFC7FFFF80
03FFFFFF01FFFF80
00FFFFFE007FFF80
003FFFF00007FF80
0003FF8000000000
ENDCHAR
STARTCHAR quotesingle
ENCODING 39
SWIDTH 214 0
DWIDTH 16 0
BBX 9 20 3 40
BITMAP
FF80
FF80
FF80
FF80
FF80
FF80
7F80
7F80
7F80
7F00
7F00
7F00
7F00
7F00
7F00
7F00
3F00
3F00
3F00
3E00
ENDCHAR
STARTCHAR parenleft
ENCODING 40
SWIDTH 454 0
DWIDTH 34 0
BBX 23 68 6 -9
BITMAP
000038
00007C
0001FE
0003FE
0007FC
000FF8
001FF0
003FE0
007FC0
00FF80
00FF80
01FF00
03FF00
03FE00
07FC00
07FC00
0FFC00
0FF800
1FF800
1FF000
3FF000
3FF000
3FE000
7FE000
7FE000
7FE000
7FC000
7FC000
FFC000
FFC000
FFC000
FFC000
FFC000
FFC000
FFC000
FFC000
FFC000
FFC000
FFC000
FFC000
7FC000
7FC000
7FE000
7FE000
3FE000
3FE000
3FF000
1FF000
1FF000
1FF800
0FF800
0FFC00
07FC00
07FE00
03FE00
01FF00
01FF00
00FF80
007F80
003FC0
003FE0
001FF0
000FF8
0007FC
0001FE
0000FE
00007C
000018
ENDCHAR
STARTCHAR parenright
ENCODING 41
SWIDTH 454 0
DWIDTH 34 0
BBX 23 68 5 -9
BITMAP
300000
7C0000
7E0000
FF8000
7FC000
3FE000
1FF000
0FF800
07FC00
07FC00
03FE00
01FF00
01FF00
00FF80
00FFC0
007FC0
007FE0
003FE0
003FF0
001FF0
001FF0
001FF8
000FF8
000FF8
000FFC
000FFC
0007FC
0007FC
0007FE
0007FE
0007FE
0007FE
0007FE
0007FE
0007FE
0007FE
0007FE
0007FE
0007FE
0007FE
0007FE
0007FC
000FFC
000FFC
000FFC
000FF8
001FF8
001FF8
001FF0
003FF0
003FE0
003FE0
007FC0
007FC0
00FF80
00FF80
01FF00
03FE00
03FE00
07FC00
0FF800
0FF000
1FE000
3FC000
7F8000
FF0000
7C0000
300000
ENDCHAR
STARTCHAR asterisk
ENCODING 42
SWIDTH 582 0
DWIDTH 44 0
BBX 35 36 4 23
BITMAP
0007FC0000
0003FC0000
0003FC0000
0003FC0000
0003FC0000
0C03FC0300
0E03F80700
1F03F81F80
3FC1F83F80
3FE1F87FC0
7FF1F8FFC0
7FF9F1FFE0
7FFDF3FFE0
1FFEF7FF80
07FFFFFE00
00FFFFF000
003FFFC000
0007FE0000
001FFF8000
00FFFFF000
03FFFFFC00
1FFFFFFF80
FFFCF7FFE0
7FF9F1FFE0
7FF1F8FFC0
3FE1F87FC0
3FC1F83F80
1F01F81F80
0E03F80700
0C03F80300
0003FC0000
0003FC0000
0003FC0000
0003FC0000
0007FC0000
0003FC0000
ENDCHAR
STARTCHAR plus
ENCODING 43
SWIDTH 600 0
DWIDTH 45 0
BBX 39 40 3 0
BITMAP
0000FE0000
0000FE0000
0000FE0000
0000FE0000
0000FE0000
0000FE0000
0000FE0000
0000FE0000
0000FE0000
0000FE0000
0000FE0000
0000FE0000
0000FE0000
0000FE0000
0000FE0000
0000FE0000
0000FE0000
FFFFFFFFFE
FFFFFFFFFE
FFFFFFFFFE
FFFFFFFFFE
FFFFFFFFFE
FFFFFFFFFE
FFFFFFFFFE
0000FE0000
0000FE0000
0000FE0000
0000FE0000
0000FE0000
0000FE0000
0000FE0000
0000FE0000
0000FE0000
0000FE0000
0000FE0000
0000FE0000
0000FE0000
0000FE0000
0000FE0000
0000FE0000
ENDCHAR
STARTCHAR comma
ENCODING 44
SWIDTH 316 0
DWIDTH 24 0
BBX 15 25 4 -12
BITMAP
03C0
07E0
0FF0
1FF8
3FFC
7FFC
7FFE
FFFE
7FFE
7FFE
3FFE
1FFE
0FFC
07FC
07FC
07F8
07F0
07E0
0FC0
0FC0
1F80
3F00
7E00
F800
7000
ENDCHAR
STARTCHAR hyphen
ENCODING 45
SWIDTH 511 0
DWIDTH 38 0
BBX 29 7 5 16
BITMAP
FFFFFFF0
FFFFFFF8
FFFFFFF8
FFFFFFF8
FFFFFFF8
FFFFFFF8
FFFFFFF0
ENDCHAR
STARTCHAR period
ENCODING 46
SWIDTH 313 0
DWIDTH 23 0
BBX 15 15 4 -1
BITMAP
0380
07E0
0FF0
1FF8
3FFC
7FFC
7FFE
FFFE
7FFE
7FFC
3FFC
1FF8
0FF0
07E0
0380
ENDCHAR
STARTCHAR slash
ENCODING 47
SWIDTH 500 0
DWIDTH 38 0
BBX 32 70 4 -10
BITMAP
000000FF
000001FF
000001FF
000001FE
000003FE
000003FE
000003FC
000007FC
000007F8
000007F8
00000FF8
00000FF0
00000FF0
00001FF0
00001FE0
00001FE0
00003FE0
00003FC0
00007FC0
00007FC0
00007F80
0000FF80
0000FF80
0000FF00
0001FF00
0001FE00
0001FE00
0003FE00
0003FC00
0003FC00
0007FC00
0007F800
000FF800
000FF800
000FF000
001FF000
001FF000
001FE000
003FE000
003FC000
003FC000
007FC000
007F8000
007F8000
00FF8000
00FF0000
00FF0000
01FF0000
01FE0000
03FE0000
03FE0000
03FC0000
07FC0000
07FC0000
07F80000
0FF80000
0FF00000
0FF00000
1FF00000
1FE00000
1FE00000
3FE00000
3FC00000
3FC00000
7FC00000
7F800000
FF800000
FF800000
FF000000
FF000000
ENDCHAR
STARTCHAR zero
ENCODING 48
SWIDTH 602 0
DWIDTH 45 0
BBX 41 43 2 -1
BITMAP
0001FFC00000
0007FFF80000
001FFFFE0000
007FFFFF0000
00FFFFFF8000
01FFFFFFE000
03FFC1FFF000
07FF007FF000
0FFE003FF800
1FFC001FFC00
1FF8000FFC00
3FF8000FFE00
3FF00007FE00
7FF00007FF00
7FE00003FF00
7FE00003FF00
FFE00003FF80
FFE00003FF80
FFE00003FF80
FFC00001FF80
FFC00001FF80
FFC00001FF80
FFC00001FF80
FFC00001FF80
FFC00003FF80
FFE00003FF80
FFE00003FF80
7FE00003FF00
7FE00003FF00
7FF00003FF00
3FF00007FE00
3FF00007FE00
1FF8000FFC00
1FF8000FFC00
0FFC001FF800
07FE003FF000
03FF007FE000
01FFC1FFC000
00FFFFFF8000
007FFFFF0000
001FFFFC0000
0007FFF00000
0000FF800000
ENDCHAR
STARTCHAR one
ENCODING 49
SWIDTH 397 0
DWIDTH 30 0
BBX 27 43 1 0
BITMAP
00000200
00001F00
0000FF00
003FFF00
FFFFFF00
FFFFFE00
FFFFF800
FFFFF000
FFFFE000
07FFE000
01FFE000
01FFE000
00FFE000
00FFE000
007FE000
007FE000
007FE000
007FE000
007FE000
007FE000
007FE000
007FE000
007FE000
007FE000
007FE000
007FE000
007FE000
007FE000
007FE000
007FE000
007FE000
007FE000
007FE000
00FFE000
00FFF000
00FFF000
01FFF800
03FFFC00
7FFFFFE0
FFFFFFE0
FFFFFFE0
FFFFFFE0
7FFFFFE0
ENDCHAR
STARTCHAR two
ENCODING 50
SWIDTH 543 0
DWIDTH 41 0
BBX 38 42 2 -1
BITMAP
000FFE0000
007FFFC000
01FFFFF000
07FFFFFC00
0FFC1FFE00
1FF00FFE00
3FE007FF00
3FE007FF00
3FE003FF00
7FE003FF80
7FE003FF80
3FE003FF80
3FE003FF80
3FF007FF00
07F007FF00
00700FFF00
00000FFE00
00001FFE00
00003FFC00
00007FF800
0000FFF000
0001FFE000
0003FFC000
0007FF0000
001FFE0000
003FF80000
007FF00000
00FFC00000
01FF800000
03FE000020
07FC000078
0FF80000FC
1FE00001FC
3FC00007F8
3FC0007FF0
7FFFFFFFF0
FFFFFFFFE0
FFFFFFFFC0
FFFFFFFFC0
FFFFFFFF80
FFFFFFFF80
0000000300
ENDCHAR
STARTCHAR three
ENCODING 51
SWIDTH 529 0
DWIDTH 40 0
BBX 36 56 1 -15
BITMAP
001FFC0000
00FFFF8000
03FFFFE000
0FFFFFF800
1FF83FFC00
3FE01FFC00
7FC00FFE00
7FC00FFE00
7FC007FE00
FFC007FF00
FFC007FF00
7FC007FF00
7FC007FF00
7FE00FFE00
0FE00FFE00
00F00FFE00
00001FFE00
00003FFC00
00007FF800
0000FFF000
0001FFE000
0007FFC000
001FFF0000
007FFE0000
01FFFFC000
01FFFFF800
01FFFFFC00
01FFFFFF00
00801FFF80
000007FFC0
000003FFC0
000001FFE0
000000FFE0
000000FFF0
0000007FF0
0000007FF0
0000007FF0
0000007FF0
0000007FF0
0000007FF0
0000007FF0
000000FFF0
000000FFF0
000000FFF0
000001FFE0
000001FFE0
000003FFC0
000007FF80
00000FFF80
00003FFF00
1801FFFC00
3FFFFFF800
1FFFFFF000
1FFFFF8000
1FFFFE0000
0FFFC00000
ENDCHAR
STARTCHAR four
ENCODING 52
SWIDTH 575 0
DWIDTH 43 0
BBX 40 56 1 -15
BITMAP
0003800000
0003FC0000
0003FFC000
0001FFE000
0001FFE000
0001FFE000
0001FFF000
0000FFE000
0000FFE000
0000FFE000
0000FFE000
0001FFC000
0001FFC000
0001FF8000
0003FF8000
0003FF0000
0007FF0000
0007FE0000
000FFC0000
001FFC0000
001FF80000
003FF00000
007FE00000
00FFC00000
01FFC00200
01FF807E00
03FF03FE00
07FE03FE00
0FFC03FE00
1FF803FE00
1FF003FE00
3FE003FE00
7FE003FE00
7FC003FE00
FF8003FE00
FFFFFFFFFF
FFFFFFFFFF
FFFFFFFFFF
FFFFFFFFFF
FFFFFFFFFF
FFFFFFFFFF
000003FE00
000003FE00
000003FE00
000003FE00
000003FE00
000003FE00
000003FE00
000003FE00
000003FE00
000003FE00
000003FE00
000003FE00
000003FE00
000003FE00
000003FE00
ENDCHAR
STARTCHAR five
ENCODING 53
SWIDTH 537 0
DWIDTH 40 0
BBX 38 60 1 -14
BITMAP
0000000060
0000000078
00000001FC
0000000FF8
03FFFFFFF8
03FFFFFFF0
03FFFFFFE0
03FFFFFFE0
03FFFFFFC0
07FFFFFFC0
07F8000180
07F8000000
07F8000000
07F8000000
0FF8000000
0FF0000000
0FF0000000
0FF0000000
0FF0000000
0FE0000000
1FE0000000
1FE0000000
1FFFF80000
1FFFFF0000
1FFFFFC000
3FFFFFF000
3FFFFFF800
3803FFFC00
00007FFE00
00001FFF00
00000FFF80
000007FF80
000007FFC0
000003FFC0
000003FFC0
000003FFE0
000001FFE0
000001FFE0
000001FFE0
000001FFE0
000001FFE0
000001FFE0
000001FFE0
000003FFE0
000003FFE0
000003FFC0
000003FFC0
000007FFC0
000007FF80
00000FFF00
00001FFF00
00003FFE00
00007FFC00
0001FFF800
C00FFFF000
FFFFFFC000
FFFFFF8000
FFFFFC0000
FFFFF00000
7FFE000000
ENDCHAR
STARTCHAR six
ENCODING 54
SWIDTH 608 0
DWIDTH 46 0
BBX 42 59 2 -1
BITMAP
000007FE0000
00007FFFC000
0001FFFFF000
0007FFFFF800
000FFFFFFE00
003FF80FFF00
007FE003FF80
00FFC001FF80
00FF8000FFC0
01FF0000FFC0
03FE00007FC0
07FE00007F80
07FC00003F00
0FFC00003E00
0FF800003C00
1FF800003800
1FF800003000
1FF000000000
3FF000000000
3FF000000000
3FF000000000
3FF0FFE00000
7FF7FFFC0000
7FFFFFFF0000
7FFFFFFFC000
7FFFFFFFE000
7FFFFFFFF000
7FFFC1FFF800
FFFE007FFC00
FFFC003FFC00
FFF8001FFE00
FFF0000FFE00
FFF00007FF00
FFF00007FF00
FFE00007FF80
FFE00003FF80
FFE00003FF80
FFE00003FF80
7FE00001FF80
7FE00001FF80
7FE00001FFC0
7FF00001FF80
7FF00001FF80
3FF00001FF80
3FF00001FF80
3FF80001FF80
1FF80001FF80
1FFC0003FF00
0FFE0003FF00
0FFE0007FE00
07FF0007FE00
03FFC00FFC00
03FFF07FF800
01FFFFFFF000
00FFFFFFE000
003FFFFF8000
001FFFFF0000
0007FFF80000
0000FFC00000
ENDCHAR
STARTCHAR seven
ENCODING 55
SWIDTH 572 0
DWIDTH 43 0
BBX 40 59 1 -16
BITMAP
0200000000
0700000000
0FFFFFFFFF
0FFFFFFFFF
1FFFFFFFFF
3FFFFFFFFF
3FFFFFFFFF
7FFFFFFFFF
FFC000003F
FC0000007E
F8000000FE
30000001FC
00000003F8
00000007F8
0000000FF0
0000000FE0
0000001FE0
0000003FC0
0000007F80
000000FF00
000000FF00
000001FE00
000003FC00
000007FC00
00000FF800
00000FF000
00001FF000
00003FE000
00007FE000
00007FC000
0000FF8000
0001FF8000
0003FF0000
0003FF0000
0007FE0000
000FFE0000
000FFC0000
001FFC0000
003FF80000
003FF80000
007FF00000
00FFF00000
00FFE00000
01FFE00000
01FFE00000
03FFC00000
03FFC00000
07FFC00000
07FFC00000
07FFC00000
0FFFC00000
0FFFC00000
0FFFC00000
0FFFC00000
0FFFC00000
0FFFC00000
03FFC00000
001FE00000
0000E00000
ENDCHAR
STARTCHAR eight
ENCODING 56
SWIDTH 558 0
DWIDTH 42 0
BBX 38 59 2 -1
BITMAP
0003FF0000
001FFFE000
007FFFF800
01FFFFFE00
03FFFFFF00
07FF03FF80
0FFC00FFC0
0FF8007FC0
1FF0003FE0
1FF0001FE0
3FF0001FF0
3FE0001FF0
3FE0000FF0
3FE0000FF0
7FE0000FF0
7FE0000FF0
7FE0000FF0
3FF0001FF0
3FF0001FE0
3FF8001FE0
3FFC003FE0
1FFE003FC0
1FFF007F80
0FFF80FF80
0FFFE3FF00
07FFFFFE00
03FFFFF800
01FFFFF000
00FFFFF000
007FFFFC00
003FFFFE00
00FFFFFF00
03FFFFFF80
07FFFFFFC0
0FFE0FFFE0
1FF803FFF0
3FE001FFF0
3FC000FFF8
7FC0007FF8
7F80003FF8
7F80001FF8
FF80001FF8
FF00001FFC
FF00000FFC
FF00000FFC
FF80000FF8
FF80000FF8
7F80001FF8
7F80001FF8
7FC0001FF0
3FE0003FF0
3FF0003FE0
1FF800FFE0
0FFE03FFC0
07FFFFFF80
03FFFFFE00
00FFFFF800
003FFFE000
0007FF0000
ENDCHAR
STARTCHAR nine
ENCODING 57
SWIDTH 608 0
DWIDTH 46 0
BBX 42 59 1 -2
BITMAP
00007FE00000
0007FFFC0000
001FFFFF0000
007FFFFF8000
00FFFFFFE000
01FFFFFFF000
03FF83FFF800
07FE007FF800
0FFC003FFC00
0FF8001FFE00
1FF8000FFE00
1FF00007FF00
3FF00007FF00
3FF00003FF00
3FF00003FF80
7FE00003FF80
7FE00001FF80
7FE00001FFC0
7FF00001FFC0
7FF00001FFC0
7FF00000FFC0
7FF00000FFC0
7FF00000FFC0
7FF80000FFC0
3FF80001FFC0
3FF80001FFC0
3FFC0001FFC0
1FFC0001FFC0
1FFE0003FFC0
0FFE0003FFC0
0FFF0007FFC0
07FFC00FFFC0
03FFF07FFFC0
01FFFFFFFFC0
00FFFFFFFFC0
007FFFFFFFC0
001FFFFFFF80
0007FFF9FF80
0000FFC1FF80
00000001FF80
00000003FF00
00000003FF00
01000003FF00
03000003FE00
07000007FE00
0F800007FE00
1F800007FC00
3F80000FFC00
7FC0000FF800
FFC0001FF000
7FE0003FF000
7FF0007FE000
3FF800FFC000
1FFE07FF8000
0FFFFFFF0000
07FFFFFC0000
01FFFFF00000
007FFFC00000
000FFC000000
ENDCHAR
STARTCHAR colon
ENCODING 58
SWIDTH 313 0
DWIDTH 23 0
BBX 15 46 4 -1
BITMAP
0380
07E0
0FF0
1FF8
3FFC
7FFC
7FFE
FFFE
7FFE
7FFC
3FFC
1FF8
0FF0
07E0
0380
0000
0000
0000
0000
0000
0000
0000
0000
0000
0000
0000
0000
0000
0000
0000
0000
0380
07E0
0FF0
1FF8
3FFC
7FFC
7FFE
FFFE
7FFE
7FFC
3FFC
1FF8
0FF0
07E0
0380
ENDCHAR
STARTCHAR semicolon
ENCODING 59
SWIDTH 316 0
DWIDTH 24 0
BBX 15 57 4 -12
BITMAP
0380
07E0
0FF0
1FF8
3FFC
7FFC
7FFE
FFFE
7FFE
7FFC
3FFC
1FF8
0FF0
07E0
0380
0000
0000
0000
0000
0000
0000
0000
0000
0000
0000
0000
0000
0000
0000
0000
0000
0000
03C0
07E0
0FF0
1FF8
3FFC
7FFC
7FFE
FFFE
7FFE
7FFE
3FFE
1FFE
0FFC
07FC
07FC
07F8
07F0
07E0
0FC0
0FC0
1F80
3F00
7E00
F800
7000
ENDCHAR
STARTCHAR less
ENCODING 60
SWIDTH 600 0
DWIDTH 45 0
BBX 41 43 2 2
BITMAP
000000000180
000000000780
000000001F80
000000003F80
00000000FF80
00000003FF80
0000000FFF80
0000003FFF80
000000FFFF00
000003FFFC00
00000FFFF800
00003FFFE000
0000FFFF8000
0003FFFE0000
000FFFF80000
003FFFE00000
00FFFF800000
01FFFE000000
07FFF8000000
1FFFE0000000
7FFF80000000
FFFE00000000
7FFF00000000
1FFFC0000000
07FFF0000000
01FFFC000000
00FFFF000000
003FFFC00000
000FFFF00000
0003FFFC0000
0000FFFF0000
00003FFFC000
00000FFFF000
000003FFFC00
000000FFFF00
0000003FFF80
0000000FFF80
00000003FF80
00000000FF80
000000003F80
000000001F80
000000000780
000000000180
ENDCHAR
STARTCHAR equal
ENCODING 61
SWIDTH 600 0
DWIDTH 45 0
BBX 35 25 5 9
BITMAP
FFFFFFFFE0
FFFFFFFFE0
FFFFFFFFE0
FFFFFFFFE0
FFFFFFFFE0
FFFFFFFFE0
FFFFFFFFE0
0000000000
0000000000
0000000000
0000000000
0000000000
0000000000
0000000000
0000000000
0000000000
0000000000
0000000000
FFFFFFFFE0
FFFFFFFFE0
FFFFFFFFE0
FFFFFFFFE0
FFFFFFFFE0
FFFFFFFFE0
FFFFFFFFE0
ENDCHAR
STARTCHAR greater
ENCODING 62
SWIDTH 600 0
DWIDTH 45 0
BBX 41 43 2 2
BITMAP
C00000000000
F00000000000
FC0000000000
FE0000000000
FF8000000000
FFE000000000
FFF800000000
FFFE00000000
7FFF80000000
1FFFE0000000
0FFFF8000000
03FFFE000000
00FFFF800000
003FFFE00000
000FFFF80000
0003FFFE0000
0000FFFF8000
00003FFFC000
00000FFFF000
000003FFFC00
000000FFFF00
0000003FFF80
0000007FFF00
000001FFFC00
000007FFF000
00001FFFC000
00007FFF8000
0001FFFE0000
0007FFF80000
001FFFE00000
007FFF800000
01FFFE000000
07FFF8000000
1FFFE0000000
7FFF80000000
FFFE00000000
FFF800000000
FFE000000000
FF8000000000
FE0000000000
FC0000000000
F00000000000
C00000000000
ENDCHAR
STARTCHAR question
ENCODING 63
SWIDTH 540 0
DWIDTH 41 0
BBX 35 60 1 -1
BITMAP
000FFC0000
007FFFC000
01FFFFF000
07FFFFF800
0FFFFFFE00
1FFFFFFF00
3FFC1FFF00
3FF007FF80
7FE003FFC0
7FE001FFC0
7FC001FFE0
7FC000FFE0
7FC000FFE0
FFC000FFE0
7FE000FFE0
7FE000FFE0
7FE000FFE0
7FF001FFE0
3FE001FFC0
3F0001FFC0
100003FFC0
000003FF80
000007FF80
00000FFF00
00001FFE00
00003FFC00
0000FFF800
0001FFE000
0003FFC000
000FFF0000
000FFC0000
001FF00000
003FE00000
003FC00000
003F800000
003F800000
003F800000
003F800000
003F800000
003F800000
003F800000
0000000000
0000000000
0000000000
0000000000
000E000000
001F000000
003F800000
007FC00000
00FFE00000
01FFF00000
03FFF80000
03FFF80000
03FFF80000
01FFF00000
00FFE00000
007FC00000
003F800000
001F000000
000E000000
ENDCHAR
STARTCHAR at
ENCODING 64
SWIDTH 1042 0
DWIDTH 78 0
BBX 70 71 4 -18
BITMAP
00000007FFE0000000
0000007FFFFE000000
000003FFFFFF800000
00000FFFFFFFE00000
00003FFFFFFFF80000
00007FFFFFFFFE0000
0001FFFC007FFF0000
0003FFC00007FF8000
0007FF000000FFE000
000FFC0000003FF000
001FF00000001FF800
003FE000000007F800
007F8000000003FC00
00FF0000000001FE00
01FE0000000000FF00
01FC000FF800107F00
03F8007FFF00703F80
07F001FFFF80F03F80
07E007FFFFE3F01FC0
0FE00FFFFFFFF00FC0
0FC01FFC0FFFF00FE0
1FC03FF003FFF007E0
1F803FE001FFF007F0
3F807FC000FFF003F0
3F007FC000FFF003F0
3F00FF80007FF003F0
3F00FF80007FF001F8
7E00FF80007FF001F8
7E01FF80007FF001F8
7E01FF80007FF001F8
7E01FF00007FF000F8
7C01FF00007FF000F8
7C01FF00007FF000FC
7C01FF00007FF000FC
FC01FF00007FF000FC
FC01FF80007FF000FC
7C01FF80007FF000FC
7C01FF80007FF000FC
7C01FF80007FF000F8
7C01FF80007FF000F8
7E00FFC0007FF001F8
7E00FFC0007FF001F8
7E00FFC0007FF001F0
7E007FE0007FF003F0
3F007FF0007FF007E0
3F007FF800FFF80FE0
3F003FFC01FFFC1FC0
1F801FFF07FFFFFF80
1F800FFFFFFFFFFF00
1FC007FFFFBFFFFC00
0FC003FFFF3FFFF000
0FE001FFFE3F800000
07E0007FFC38000000
07F0001FE060000000
03F800000000000000
01FC00000000000000
01FE00000000000000
00FF00000000000000
007F80000000000000
003FC0000000000000
001FF0000000000000
000FFC000000000000
0007FF000000000000
0003FFC00000000000
0001FFFC0040000000
00007FFFFFE0000000
00003FFFFFE0000000
00000FFFFFF0000000
000003FFFFF0000000
0000007FFFF0000000
00000007FFC0000000
ENDCHAR
STARTCHAR A
ENCODING 65
SWIDTH 786 0
DWIDTH 59 0
BBX 59 57 0 0
BITMAP
000000FFE0000000
000001FFE0000000
000001FFF0000000
000003FFF0000000
000003FFF0000000
000003FFF8000000
000007FFF8000000
000007FFF8000000
000007FFFC000000
00000FFFFC000000
00000FFFFE000000
00001FFFFE000000
00001FCFFE000000
00001FCFFF000000
00003F87FF000000
00003F87FF800000
00003F87FF800000
00007F03FF800000
00007F03FFC00000
00007F03FFC00000
0000FE01FFC00000
0000FE01FFE00000
0001FE00FFE00000
0001FC00FFF00000
0001FC00FFF00000
0003FC007FF00000
0003F8007FF80000
0003F8007FF80000
0007F8003FFC0000
0007F0003FFC0000
000FF0001FFC0000
000FE0001FFE0000
000FFFFFFFFE0000
001FFFFFFFFE0000
001FFFFFFFFF0000
001FFFFFFFFF0000
003FFFFFFFFF8000
003FFFFFFFFF8000
003F800003FF8000
007F000003FFC000
007F000003FFC000
00FF000001FFE000
00FE000001FFE000
00FE000001FFE000
01FE000000FFF000
01FE000000FFF000
01FC000000FFF000
03FC000000FFF800
03FE000000FFF800
07FE000001FFFC00
07FF000003FFFC00
1FFFC00007FFFF00
7FFFF8007FFFFFC0
FFFFF8007FFFFFE0
FFFFF8007FFFFFE0
FFFFF8007FFFFFE0
7FFFF8007FFFFFC0
ENDCHAR
STARTCHAR B
ENCODING 66
SWIDTH 719 0
DWIDTH 54 0
BBX 49 57 2 0
BITMAP
FFFFFFFE000000
FFFFFFFFC00000
FFFFFFFFF00000
FFFFFFFFFC0000
FFFFFFFFFE0000
0FFFE01FFF0000
07FFE007FF8000
03FFE003FFC000
03FFE001FFE000
01FFE000FFE000
01FFE000FFF000
01FFE0007FF000
01FFE0007FF000
01FFE0007FF000
01FFE0007FF000
01FFE0007FF000
01FFE000FFF000
01FFE000FFE000
01FFE000FFE000
01FFE001FFC000
01FFE003FF8000
01FFE007FF8000
01FFE01FFE0000
01FFFFFFFC0000
01FFFFFFF80000
01FFFFFFFF0000
01FFFFFFFF8000
01FFFFFFFFE000
01FFE00FFFF000
01FFE000FFF800
01FFE0007FFC00
01FFE0001FFE00
01FFE0000FFE00
01FFE0000FFF00
01FFE00007FF00
01FFE00007FF00
01FFE00007FF80
01FFE00007FF80
01FFE00003FF80
01FFE00003FF80
01FFE00003FF80
01FFE00003FF80
01FFE00007FF80
01FFE00007FF80
01FFE00007FF00
01FFE00007FF00
01FFE0000FFF00
01FFE0000FFE00
03FFE0001FFE00
03FFF0003FFC00
07FFF000FFF800
0FFFFC03FFF000
FFFFFFFFFFE000
FFFFFFFFFFC000
FFFFFFFFFF0000
FFFFFFFFFC0000
FFFFFFFFC00000
ENDCHAR
STARTCHAR C
ENCODING 67
SWIDTH 749 0
DWIDTH 56 0
BBX 53 59 3 -1
BITMAP
000007FF800000
00007FFFF80000
0001FFFFFE0000
0007FFFFFF8000
001FFFFFFFE000
003FFFFFFFF000
007FFF03FFF800
00FFF800FFFC00
01FFE0003FFE00
03FFC0001FFE00
07FF80000FFF00
07FF80000FFF80
0FFF000007FF80
1FFE000007FFC0
1FFE000007FFC0
3FFE000007FFC0
3FFC000003FFC0
3FFC000003FFC0
7FFC000003FF00
7FF8000003F800
7FF8000003E000
7FF80000030000
FFF80000000000
FFF80000000000
FFF80000000000
FFF00000000000
FFF00000000000
FFF00000000000
FFF00000000000
FFF00000000000
FFF80000000000
FFF80000000000
FFF80000000000
FFF80000000000
FFF80000000000
FFF80000000000
FFF80000000000
FFFC0000000000
7FFC0000000000
7FFC00000001E0
7FFC00000003F8
7FFE00000003F8
3FFE00000007F0
3FFF00000007F0
1FFF0000000FE0
1FFF8000001FE0
0FFF8000003FC0
0FFFC000007F80
07FFE00000FF80
03FFF00001FF00
01FFFC0007FE00
00FFFF803FFC00
007FFFFFFFF800
003FFFFFFFF000
001FFFFFFFE000
0007FFFFFF8000
0001FFFFFE0000
00007FFFF80000
000007FF800000
ENDCHAR
STARTCHAR D
ENCODING 68
SWIDTH 790 0
DWIDTH 59 0
BBX 55 57 2 0
BITMAP
FFFFFFFE000000
FFFFFFFFE00000
FFFFFFFFFC0000
FFFFFFFFFF0000
FFFFFFFFFFC000
0FFFE00FFFF000
07FFE001FFF800
03FFE0003FFC00
03FFE0001FFE00
01FFE0000FFF00
01FFE00007FF80
01FFE00003FFC0
01FFE00001FFC0
01FFE00000FFE0
01FFE00000FFF0
01FFE000007FF0
01FFE000007FF0
01FFE000007FF8
01FFE000003FF8
01FFE000003FF8
01FFE000003FFC
01FFE000001FFC
01FFE000001FFC
01FFE000001FFC
01FFE000001FFC
01FFE000001FFE
01FFE000001FFE
01FFE000001FFE
01FFE000001FFE
01FFE000001FFE
01FFE000001FFE
01FFE000001FFE
01FFE000001FFC
01FFE000001FFC
01FFE000001FFC
01FFE000001FFC
01FFE000001FFC
01FFE000003FFC
01FFE000003FF8
01FFE000003FF8
01FFE000003FF8
01FFE000007FF0
01FFE000007FF0
01FFE00000FFE0
01FFE00000FFE0
01FFE00001FFC0
01FFE00003FFC0
01FFE00007FF80
01FFE0000FFF00
03FFE0001FFE00
03FFF0007FFC00
07FFF807FFF800
7FFFFFFFFFE000
FFFFFFFFFFC000
FFFFFFFFFF0000
FFFFFFFFF80000
FFFFFFFF800000
ENDCHAR
STARTCHAR E
ENCODING 69
SWIDTH 755 0
DWIDTH 57 0
BBX 53 59 2 -1
BITMAP
00000000004000
FFFFFFFFFFE000
FFFFFFFFFFF000
FFFFFFFFFFF000
FFFFFFFFFFF800
1FFFFFFFFFF800
07FFE0001FFC00
03FFE00003FE00
03FFE00001FE00
01FFE00000FF00
01FFE000007F00
01FFE000003F80
01FFE000001E00
01FFE000001800
01FFE000000000
01FFE000000000
01FFE000000000
01FFE000780000
01FFE000780000
01FFE000780000
01FFE000F80000
01FFE000F80000
01FFE001F80000
01FFE007F80000
01FFFFFFF80000
01FFFFFFF80000
01FFFFFFF80000
01FFFFFFF80000
01FFFFFFF80000
01FFFFFFF80000
01FFE007F80000
01FFE001F80000
01FFE000F80000
01FFE000F80000
01FFE000780000
01FFE000780000
01FFE000780000
01FFE000000000
01FFE000000000
01FFE000000000
01FFE000000040
01FFE0000000F0
01FFE0000000F8
01FFE0000001F8
01FFE0000001F0
01FFE0000003F0
01FFE0000007E0
01FFE000000FE0
01FFE000000FE0
01FFE000003FC0
03FFF000007FC0
03FFF00001FF80
07FFFC001FFF80
1FFFFFFFFFFF00
FFFFFFFFFFFF00
FFFFFFFFFFFE00
FFFFFFFFFFFE00
FFFFFFFFFFFC00
00000000000C00
ENDCHAR
STARTCHAR F
ENCODING 70
SWIDTH 694 0
DWIDTH 52 0
BBX 49 58 2 0
BITMAP
00000000004000
FFFFFFFFFFE000
FFFFFFFFFFF000
FFFFFFFFFFF000
FFFFFFFFFFF800
1FFFFFFFFFF800
07FFE0003FFC00
03FFE00007FC00
03FFE00001FE00
01FFE00000FF00
01FFE000007F00
01FFE000003F80
01FFE000001F00
01FFE000001C00
01FFE000000000
01FFE000000000
01FFE000000000
01FFE000000000
01FFE000780000
01FFE000780000
01FFE000780000
01FFE000F80000
01FFE000F80000
01FFE001F80000
01FFE007F80000
01FFFFFFF80000
01FFFFFFF80000
01FFFFFFF80000
01FFFFFFF80000
01FFFFFFF80000
01FFFFFFF80000
01FFE007F80000
01FFE001F80000
01FFE000F80000
01FFE000F80000
01FFE000780000
01FFE000780000
01FFE000780000
01FFE000000000
01FFE000000000
01FFE000000000
01FFE000000000
01FFE000000000
01FFE000000000
01FFE000000000
01FFE000000000
01FFE000000000
01FFE000000000
01FFE000000000
03FFE000000000
03FFF000000000
07FFF000000000
0FFFFC00000000
FFFFFF80000000
FFFFFFC0000000
FFFFFFC0000000
FFFFFFC0000000
FFFFFF80000000
ENDCHAR
STARTCHAR G
ENCODING 71
SWIDTH 772 0
DWIDTH 58 0
BBX 53 59 3 -1
BITMAP
000007FF800000
00007FFFF80000
0001FFFFFE0000
0007FFFFFF8000
001FFFFFFFE000
003FFFFFFFF000
007FFF03FFF800
00FFF800FFFC00
01FFF0003FFE00
03FFC0001FFE00
07FF80000FFF00
07FF80000FFF80
0FFF000007FF80
1FFE000007FFC0
1FFE000007FFC0
3FFC000007FFC0
3FFC000003FFC0
3FFC000003FFC0
7FF8000003FF00
7FF8000003F800
7FF8000003E000
7FF80000030000
FFF80000000000
FFF80000000000
FFF80000000000
FFF00000000000
FFF00000000000
FFF00000000000
FFF00000000000
FFF80000000000
FFF8000FFFFFF8
FFF8000FFFFFF8
FFF8000FFFFFF8
FFF8000FFFFFF8
FFF8000FFFFFF8
FFF800007FFFC0
FFFC00001FFFC0
FFFC00000FFFC0
7FFC00000FFFC0
7FFC000007FFC0
7FFE000007FFC0
3FFE000007FFC0
3FFF000007FFC0
3FFF000007FFC0
1FFF800007FFC0
1FFF800007FFC0
0FFFC00007FF80
0FFFE00007FF80
07FFF00007FF00
03FFF8000FFE00
01FFFC001FFE00
00FFFF807FFC00
007FFFFFFFF800
003FFFFFFFF000
001FFFFFFFC000
0007FFFFFF8000
0001FFFFFE0000
00007FFFF00000
000007FF800000
ENDCHAR
STARTCHAR H
ENCODING 72
SWIDTH 898 0
DWIDTH 67 0
BBX 63 57 2 0
BITMAP
FFFFFF8003FFFFFE
FFFFFFC003FFFFFE
FFFFFFC003FFFFFE
FFFFFFC003FFFFFE
FFFFFF8003FFFFFE
0FFFFC00003FFFE0
07FFF000001FFFC0
03FFF000000FFF80
03FFE000000FFF80
01FFE000000FFF80
01FFE000000FFF80
01FFE000000FFF80
01FFE000000FFF80
01FFE000000FFF80
01FFE000000FFF80
01FFE000000FFF80
01FFE000000FFF80
01FFE000000FFF80
01FFE000000FFF80
01FFE000000FFF80
01FFE000000FFF80
01FFE000000FFF80
01FFE000000FFF80
01FFE000000FFF80
01FFE000000FFF80
01FFFFFFFFFFFF80
01FFFFFFFFFFFF80
01FFFFFFFFFFFF80
01FFFFFFFFFFFF80
01FFFFFFFFFFFF80
01FFFFFFFFFFFF80
01FFE000000FFF80
01FFE000000FFF80
01FFE000000FFF80
01FFE000000FFF80
01FFE000000FFF80
01FFE000000FFF80
01FFE000000FFF80
01FFE000000FFF80
01FFE000000FFF80
01FFE000000FFF80
01FFE000000FFF80
01FFE000000FFF80
01FFE000000FFF80
01FFE000000FFF80
01FFE000000FFF80
01FFE000000FFF80
01FFE000000FFF80
03FFE000000FFF80
03FFF000000FFF80
07FFF000001FFFC0
0FFFFC00003FFFE0
FFFFFF8003FFFFFE
FFFFFFC003FFFFFE
FFFFFFC003FFFFFE
FFFFFFC003FFFFFE
FFFFFF8003FFFFFE
ENDCHAR
STARTCHAR I
ENCODING 73
SWIDTH 407 0
DWIDTH 31 0
BBX 25 57 3 0
BITMAP
FFFFFF80
FFFFFF80
FFFFFF80
FFFFFF80
FFFFFF80
0FFFF800
07FFF000
07FFE000
03FFE000
03FFE000
03FFC000
03FFC000
03FFC000
03FFC000
03FFC000
03FFC000
03FFC000
03FFC000
03FFC000
03FFC000
03FFC000
03FFC000
03FFC000
03FFC000
03FFC000
03FFC000
03FFC000
03FFC000
03FFC000
03FFC000
03FFC000
03FFC000
03FFC000
03FFC000
03FFC000
03FFC000
03FFC000
03FFC000
03FFC000
03FFC000
03FFC000
03FFC000
03FFC000
03FFC000
03FFC000
03FFC000
03FFC000
03FFE000
03FFE000
07FFE000
07FFF000
0FFFF800
FFFFFF80
FFFFFF80
FFFFFF80
FFFFFF80
FFFFFF80
ENDCHAR
STARTCHAR J
ENCODING 74
SWIDTH 525 0
DWIDTH 39 0
BBX 38 58 0 -1
BITMAP
000FFFFFF8
000FFFFFFC
000FFFFFFC
000FFFFFFC
000FFFFFF8
0000FFFFC0
00007FFF00
00003FFF00
00003FFE00
00001FFE00
00001FFE00
00001FFE00
00001FFE00
00001FFE00
00001FFE00
00001FFE00
00001FFE00
00001FFE00
00001FFE00
00001FFE00
00001FFE00
00001FFE00
00001FFE00
00001FFE00
00001FFE00
00001FFE00
00001FFE00
00001FFE00
00001FFE00
00001FFE00
00001FFE00
00001FFE00
00001FFE00
00001FFE00
00001FFE00
00001FFE00
00001FFE00
00001FFE00
00001FFE00
00001FFE00
00001FFE00
00001FFE00
00C01FFE00
03C01FFE00
0FC01FFE00
3FC01FFC00
7FC01FFC00
FFC01FFC00
FFC01FFC00
7FE01FF800
7FE03FF800
3FE03FF000
3FF0FFE000
1FFFFFE000
0FFFFFC000
03FFFF0000
01FFFC0000
003FF00000
ENDCHAR
STARTCHAR K
ENCODING 75
SWIDTH 798 0
DWIDTH 60 0
BBX 57 57 2 0
BITMAP
FFFFFF807FFFFC00
FFFFFFC07FFFFC00
FFFFFFC07FFFFC00
FFFFFFC07FFFFC00
FFFFFF807FFFFC00
0FFFFC000FFF8000
07FFF00007FE0000
03FFF0000FFC0000
03FFE0000FF80000
01FFE0001FF00000
01FFE0003FE00000
01FFE0007FC00000
01FFE000FF800000
01FFE001FF800000
01FFE003FF000000
01FFE007FE000000
01FFE00FFC000000
01FFE00FF8000000
01FFE01FF0000000
01FFE03FE0000000
01FFE07FC0000000
01FFE0FF80000000
01FFE1FF80000000
01FFE3FFC0000000
01FFE7FFC0000000
01FFEFFFE0000000
01FFEFFFF0000000
01FFFFFFF0000000
01FFFFFFF8000000
01FFFFFFFC000000
01FFFFBFFC000000
01FFFF1FFE000000
01FFFE1FFF000000
01FFFC0FFF000000
01FFF807FF800000
01FFF007FFC00000
01FFE003FFC00000
01FFE001FFE00000
01FFE000FFF00000
01FFE000FFF80000
01FFE0007FF80000
01FFE0003FFC0000
01FFE0003FFE0000
01FFE0001FFE0000
01FFE0000FFF0000
01FFE00007FF8000
01FFE00007FF8000
01FFE00007FFC000
03FFE00003FFE000
03FFF00007FFE000
07FFF00007FFF000
0FFFFC000FFFF800
FFFFFF80FFFFFF80
FFFFFFC0FFFFFF80
FFFFFFC0FFFFFF80
FFFFFFC0FFFFFF80
FFFFFF80FFFFFF80
ENDCHAR
STARTCHAR L
ENCODING 76
SWIDTH 699 0
DWIDTH 52 0
BBX 50 58 2 -1
BITMAP
FFFFFF80000000
FFFFFFC0000000
FFFFFFC0000000
FFFFFFC0000000
FFFFFF80000000
0FFFE000000000
07FFE000000000
03FFE000000000
03FFE000000000
01FFE000000000
01FFE000000000
01FFE000000000
01FFE000000000
01FFE000000000
01FFE000000000
01FFE000000000
01FFE000000000
01FFE000000000
01FFE000000000
01FFE000000000
01FFE000000000
01FFE000000000
01FFE000000000
01FFE000000000
01FFE000000000
01FFE000000000
01FFE000000000
01FFE000000000
01FFE000000000
01FFE000000000
01FFE000000000
01FFE000000000
01FFE000000000
01FFE000000000
01FFE000000000
01FFE000000000
01FFE000000000
01FFE000000000
01FFE000000000
01FFE000000400
01FFE000000700
01FFE000000FC0
01FFE000000FC0
01FFE000001F80
01FFE000003F80
01FFE000003F00
01FFE000007F00
01FFE00000FE00
01FFE00001FE00
03FFF00007FC00
03FFF0001FFC00
07FFFC00FFF800
1FFFFFFFFFF800
FFFFFFFFFFF000
FFFFFFFFFFF000
FFFFFFFFFFE000
FFFFFFFFFFE000
00000000004000
ENDCHAR
STARTCHAR M
ENCODING 77
SWIDTH 1036 0
DWIDTH 78 0
BBX 73 57 2 0
BITMAP
7FFFC000000000FFFF00
7FFFC000000000FFFF80
7FFFE000000001FFFF80
7FFFE000000001FFFF80
7FFFF000000003FFFF00
07FFF000000003FFF800
01FFF800000007FFE000
01FFF800000007FFE000
01FFFC0000000FFFE000
01FFFC0000000FFFE000
01FFFE0000001FFFE000
01FFFE0000001FFFE000
01FFFE0000003FFFE000
01FFFF0000003FFFE000
01FFFF0000007FFFE000
01FFFF8000007FFFE000
01FFFF800000FFFFE000
01FDFFC00000FFFFE000
01FDFFC00001FFFFE000
01FCFFE00001FFDFE000
01FCFFE00003FFDFE000
01FC7FF00003FF9FE000
01FC7FF00007FF9FE000
01FC3FF80007FF1FE000
01FC3FF8000FFF1FE000
01FC1FFC000FFE1FE000
01FC1FFC001FFE1FE000
01FC0FFE001FFC1FE000
01FC0FFE003FFC1FE000
01FC07FF003FF81FE000
01FC07FF007FF81FE000
01FC03FF807FF01FE000
01FC03FF80FFF01FE000
01FC01FFC0FFE01FE000
01FC01FFC1FFE01FE000
01FC00FFE1FFC01FE000
01FC00FFE3FFC01FE000
01FC007FF3FF801FE000
01FC007FF7FF801FE000
01FC003FFFFF001FE000
01FC003FFFFF001FE000
01FC001FFFFE001FE000
01FC001FFFFE001FE000
01FC000FFFFC001FE000
01FC000FFFFC001FE000
01FC0007FFF8001FE000
01FE0007FFF8001FE000
01FE0003FFF0001FE000
03FE0003FFF0001FE000
03FE0001FFE0003FF000
07FF0001FFE0003FF800
0FFFC000FFC000FFFC00
FFFFF800FFC007FFFF80
FFFFF800000007FFFF80
FFFFF800000007FFFF80
FFFFF800000007FFFF80
FFFFF800000007FFFF80
ENDCHAR
STARTCHAR N
ENCODING 78
SWIDTH 891 0
DWIDTH 67 0
BBX 64 57 2 0
BITMAP
7FFF0000001FFFFF
7FFF8000001FFFFF
7FFFC000001FFFFF
7FFFE000001FFFFF
7FFFF000001FFFFF
0FFFF8000001FFF8
03FFFC000000FFE0
01FFFC0000007FE0
01FFFE0000007FC0
01FFFF0000003FC0
01FFFF8000003FC0
01FFFFC000003F80
01FFFFE000003F80
01FFFFF000003F80
01FFFFF000003F80
01FFFFF800003F80
01FDFFFC00003F80
01FCFFFE00003F80
01FC7FFF00003F80
01FC3FFF80003F80
01FC1FFFC0003F80
01FC1FFFC0003F80
01FC0FFFE0003F80
01FC07FFF0003F80
01FC03FFF8003F80
01FC01FFFC003F80
01FC00FFFE003F80
01FC007FFF003F80
01FC003FFF803F80
01FC003FFF803F80
01FC001FFFC03F80
01FC000FFFE03F80
01FC0007FFF03F80
01FC0003FFF83F80
01FC0001FFFC3F80
01FC0000FFFE3F80
01FC00007FFE3F80
01FC00007FFF3F80
01FC00003FFFBF80
01FC00001FFFFF80
01FC00000FFFFF80
01FC000007FFFF80
01FC000003FFFF80
01FC000001FFFF80
01FC000000FFFF80
01FC000000FFFF80
01FC0000007FFF80
01FE0000003FFF80
03FE0000001FFF80
03FE0000000FFF80
07FF00000007FF80
0FFFC0000003FF80
FFFFF8000003FF80
FFFFF8000001FF80
FFFFF8000000FF80
FFFFF80000007F80
FFFFF80000003F80
ENDCHAR
STARTCHAR O
ENCODING 79
SWIDTH 822 0
DWIDTH 62 0
BBX 56 59 3 -1
BITMAP
000003FF800000
00003FFFF00000
0000FFFFFE0000
0003FFFFFF8000
000FFFFFFFC000
001FFFFFFFF000
003FFE07FFF800
007FF0007FFC00
00FFC0003FFE00
01FF80000FFF00
03FF000007FF80
07FE000003FFC0
07FC000003FFE0
0FF8000001FFE0
1FF8000000FFF0
1FF0000000FFF0
3FF00000007FF8
3FF00000007FF8
7FF00000003FFC
7FE00000003FFC
7FE00000003FFE
7FE00000001FFE
FFE00000001FFE
FFE00000001FFE
FFE00000000FFF
FFE00000000FFF
FFE00000000FFF
FFE00000000FFF
FFE00000000FFF
FFE000000007FF
FFE000000007FF
FFE000000007FF
FFF000000007FF
FFF000000007FF
FFF000000007FF
FFF000000007FF
FFF000000007FE
7FF800000007FE
7FF80000000FFE
7FF80000000FFE
3FFC0000000FFC
3FFC0000000FFC
1FFE0000001FF8
1FFE0000001FF8
0FFF0000001FF0
0FFF8000003FF0
07FF8000003FE0
03FFC000007FC0
03FFE00000FFC0
01FFF00001FF80
00FFF80003FF00
007FFE000FFE00
003FFFC0FFFC00
000FFFFFFFF000
0007FFFFFFE000
0001FFFFFF8000
00007FFFFF0000
00001FFFF80000
000001FFC00000
ENDCHAR
STARTCHAR P
ENCODING 80
SWIDTH 700 0
DWIDTH 53 0
BBX 49 57 2 0
BITMAP
FFFFFFFFC00000
FFFFFFFFFC0000
FFFFFFFFFF0000
FFFFFFFFFF8000
7FFFFFFFFFE000
0FFFC003FFF000
07FFC000FFF800
03FFC0007FFC00
03FFC0001FFC00
01FFC0001FFE00
01FFC0000FFF00
01FFC00007FF00
01FFC00007FF00
01FFC00007FF80
01FFC00003FF80
01FFC00003FF80
01FFC00003FF80
01FFC00003FF80
01FFC00003FF80
01FFC00003FF80
01FFC00007FF80
01FFC00007FF00
01FFC00007FF00
01FFC0000FFF00
01FFC0000FFE00
01FFC0001FFE00
01FFC0003FFC00
01FFC000FFF800
01FFC007FFF000
01FFFFFFFFE000
01FFFFFFFFC000
01FFFFFFFF0000
01FFFFFFF80000
01FFFFFF000000
01FFE000000000
01FFE000000000
01FFE000000000
01FFE000000000
01FFE000000000
01FFE000000000
01FFE000000000
01FFE000000000
01FFE000000000
01FFE000000000
01FFE000000000
01FFE000000000
01FFE000000000
01FFE000000000
03FFE000000000
03FFF000000000
07FFF000000000
0FFFFC00000000
FFFFFF80000000
FFFFFFC0000000
FFFFFFC0000000
FFFFFFC0000000
FFFFFF80000000
ENDCHAR
STARTCHAR Q
ENCODING 81
SWIDTH 822 0
DWIDTH 62 0
BBX 56 75 3 -17
BITMAP
000003FF800000
00003FFFF00000
0000FFFFFE0000
0003FFFFFF8000
000FFFFFFFC000
001FFFFFFFF000
003FFE07FFF800
007FF0007FFC00
00FFC0003FFE00
01FF80000FFF00
03FF000007FF80
07FE000003FFC0
07FC000003FFE0
0FF8000001FFE0
1FF8000000FFF0
1FF0000000FFF0
3FF00000007FF8
3FF00000007FF8
7FF00000003FFC
7FE00000003FFC
7FE00000001FFE
7FE00000001FFE
FFE00000001FFE
FFE00000001FFE
FFE00000000FFF
FFE00000000FFF
FFE00000000FFF
FFE00000000FFF
FFE00000000FFF
FFE000000007FF
FFE000000007FF
FFE000000007FF
FFF000000007FF
FFF000000007FF
FFF000000007FF
FFF000000007FF
FFF800000007FE
7FF800000007FE
7FF80000000FFE
7FFC0000000FFE
3FFC0000000FFC
3FFE0000000FFC
1FFE0000001FF8
1FFF0000001FF8
0FFF0000003FF0
0FFF8000003FF0
07FFC000007FE0
03FFE00000FFC0
01FFF00001FFC0
01FFF80003FF80
00FFFE000FFF00
007FFF803FFE00
003FFFFFFFFC00
000FFFFFFFF000
0007FFFFFFE000
0001FFFFFF8000
00007FFFFE0000
00001FFFF80000
000001FFC00000
000001FF000000
000003FE000000
000003FE000000
000007FE000000
000007FE000000
000007FE000000
000007FE000060
000007FF0003F0
000007FFC03FF0
000003FFFFFFF8
000003FFFFFFF8
000001FFFFFFF0
000000FFFFFFC0
0000007FFFFF00
0000001FFFF800
00000003FF8000
ENDCHAR
STARTCHAR R
ENCODING 82
SWIDTH 798 0
DWIDTH 60 0
BBX 57 57 2 0
BITMAP
FFFFFFFFC0000000
FFFFFFFFFC000000
FFFFFFFFFF000000
FFFFFFFFFFC00000
7FFFFFFFFFE00000
0FFFE003FFF00000
07FFE000FFF80000
03FFE0003FFC0000
03FFE0001FFE0000
01FFE0000FFE0000
01FFE0000FFF0000
01FFE00007FF0000
01FFE00007FF8000
01FFE00007FF8000
01FFE00003FF8000
01FFE00003FF8000
01FFE00003FF8000
01FFE00003FF8000
01FFE00003FF8000
01FFE00007FF8000
01FFE00007FF0000
01FFE0000FFF0000
01FFE0000FFE0000
01FFE0001FFE0000
01FFE0003FFC0000
01FFE000FFF80000
01FFE007FFF00000
01FFFFFFFFE00000
01FFFFFFFFC00000
01FFFFFFFF000000
01FFFFFFFF800000
01FFFFFFFF800000
01FFE003FFC00000
01FFE003FFC00000
01FFE001FFE00000
01FFE001FFE00000
01FFE000FFF00000
01FFE000FFF00000
01FFE0007FF80000
01FFE0007FF80000
01FFE0003FFC0000
01FFE0001FFC0000
01FFE0001FFE0000
01FFE0000FFF0000
01FFE0000FFF0000
01FFE00007FF8000
01FFE00007FF8000
01FFE00007FFC000
03FFE00007FFC000
03FFF00007FFE000
07FFF00007FFF000
0FFFFC000FFFF800
FFFFFF80FFFFFF80
FFFFFFC0FFFFFF80
FFFFFFC0FFFFFF80
FFFFFFC0FFFFFF80
FFFFFF80FFFFFF80
ENDCHAR
STARTCHAR S
ENCODING 83
SWIDTH 723 0
DWIDTH 54 0
BBX 52 59 1 -1
BITMAP
00003FF807E000
0001FFFF07E000
000FFFFFE3F000
001FFFFFF3F000
007FFFFFFFF000
00FFFFFFFFF800
01FFFC0FFFF800
01FFE001FFFC00
03FFC0007FFC00
03FFC0001FFC00
03FF80000FFE00
07FF800007FE00
07FF800001FF00
07FF800000FF00
07FF8000007F00
07FF8000007F80
07FFC000003F80
07FFE000001E00
07FFF000000800
03FFF800000000
03FFFE00000000
03FFFFC0000000
01FFFFF8000000
00FFFFFF000000
007FFFFFE00000
007FFFFFFC0000
001FFFFFFF0000
000FFFFFFFC000
0007FFFFFFF000
0001FFFFFFFC00
00007FFFFFFE00
00001FFFFFFF00
000003FFFFFF80
0000007FFFFFC0
00000007FFFFC0
00000000FFFFE0
040000003FFFE0
1E0000000FFFF0
7F00000003FFF0
FF00000001FFF0
7F80000000FFF0
7FC0000000FFF0
3FE00000007FF0
3FF00000007FF0
1FF80000007FF0
1FFC0000007FF0
0FFE0000007FE0
0FFF000000FFE0
07FF800000FFE0
07FFE00001FFC0
03FFF80003FF80
03FFFE0007FF80
01FFFFE03FFF00
00FFFFFFFFFE00
00FFFFFFFFFC00
007FFFFFFFF000
007F1FFFFFE000
003F83FFFF0000
003F807FF00000
ENDCHAR
STARTCHAR T
ENCODING 84
SWIDTH 788 0
DWIDTH 59 0
BBX 58 58 0 0
BITMAP
0100000000002000
03FFFFFFFFFFF000
03FFFFFFFFFFF800
07FFFFFFFFFFF800
0FFFFFFFFFFFFC00
0FFFFFFFFFFFFC00
1FFFFFFFFFFFFE00
1FFF01FFE03FFE00
3FF001FFE003FF00
3FC001FFE000FF00
7F8001FFE0007F80
7F0001FFE0003F80
FE0001FFE0001FC0
7C0001FFE0000F80
1C0001FFE0000E00
000001FFE0000000
000001FFE0000000
000001FFE0000000
000001FFE0000000
000001FFE0000000
000001FFE0000000
000001FFE0000000
000001FFE0000000
000001FFE0000000
000001FFE0000000
000001FFE0000000
000001FFE0000000
000001FFE0000000
000001FFE0000000
000001FFE0000000
000001FFE0000000
000001FFE0000000
000001FFE0000000
000001FFE0000000
000001FFE0000000
000001FFE0000000
000001FFE0000000
000001FFE0000000
000001FFE0000000
000001FFE0000000
000001FFE0000000
000001FFE0000000
000001FFE0000000
000001FFE0000000
000001FFE0000000
000001FFE0000000
000001FFE0000000
000001FFE0000000
000001FFE0000000
000001FFF0000000
000003FFF0000000
000003FFF8000000
00000FFFFC000000
00007FFFFFC00000
0000FFFFFFC00000
0000FFFFFFC00000
0000FFFFFFC00000
00007FFFFFC00000
ENDCHAR
STARTCHAR U
ENCODING 85
SWIDTH 808 0
DWIDTH 61 0
BBX 58 58 2 -1
BITMAP
FFFFFF8007FFFFC0
FFFFFF8007FFFFC0
FFFFFF8007FFFFC0
FFFFFF8007FFFFC0
FFFFFF8007FFFFC0
0FFFF800007FFC00
07FFF000003FF800
03FFE000001FF000
03FFE000001FF000
03FFE000001FE000
03FFE000001FE000
01FFE000000FE000
01FFE000000FE000
01FFE000000FE000
01FFE000000FE000
01FFE000000FE000
01FFE000000FE000
01FFE000000FE000
01FFE000000FE000
01FFE000000FE000
01FFE000000FE000
01FFE000000FE000
01FFE000000FE000
01FFE000000FE000
01FFE000000FE000
01FFE000000FE000
01FFE000000FE000
01FFE000000FE000
01FFE000000FE000
01FFE000000FE000
01FFE000000FE000
01FFE000000FE000
01FFE000000FE000
01FFE000000FE000
01FFE000000FE000
01FFE000000FE000
01FFE000000FE000
01FFE000000FE000
01FFE000001FE000
01FFE000001FE000
01FFE000001FE000
01FFE000001FE000
01FFE000001FE000
01FFE000001FC000
00FFF000003FC000
00FFF000003FC000
00FFF800007FC000
007FF800007F8000
007FFC0000FF8000
003FFE0001FF0000
001FFF8003FF0000
000FFFF01FFE0000
0007FFFFFFFC0000
0003FFFFFFF80000
0001FFFFFFF00000
00007FFFFFC00000
00000FFFFF000000
000000FFF0000000
ENDCHAR
STARTCHAR V
ENCODING 86
SWIDTH 784 0
DWIDTH 59 0
BBX 58 57 0 0
BITMAP
7FFFFF8003FFFFC0
FFFFFFC007FFFFC0
FFFFFFC007FFFFC0
FFFFFFC007FFFFC0
7FFFFF8003FFFFC0
1FFFFC00007FFE00
0FFFF000001FFC00
07FFF000000FFC00
03FFE000000FF800
03FFE000000FF800
03FFE000000FF000
01FFE000000FF000
01FFE000000FF000
00FFF000000FE000
00FFF000001FE000
00FFF000001FC000
007FF800001FC000
007FF800003FC000
003FFC00003F8000
003FFC00003F8000
003FFC00007F8000
001FFE00007F0000
001FFE0000FF0000
001FFE0000FE0000
000FFF0000FE0000
000FFF0001FE0000
0007FF8001FC0000
0007FF8001FC0000
0007FF8003FC0000
0003FFC003F80000
0003FFC003F80000
0003FFC007F80000
0001FFE007F00000
0001FFE007F00000
0000FFF00FE00000
0000FFF00FE00000
0000FFF00FE00000
00007FF81FC00000
00007FF81FC00000
00003FF81FC00000
00003FFC3F800000
00003FFC3F800000
00001FFE7F800000
00001FFE7F000000
00001FFE7F000000
00000FFFFE000000
00000FFFFE000000
000007FFFE000000
000007FFFC000000
000007FFFC000000
000003FFFC000000
000003FFF8000000
000001FFF8000000
000001FFF8000000
000001FFF0000000
000000FFF0000000
000000FFE0000000
ENDCHAR
STARTCHAR W
ENCODING 87
SWIDTH 1207 0
DWIDTH 91 0
BBX 90 57 0 0
BITMAP
7FFFFF803FFFFFE007FFFFC0
FFFFFFC03FFFFFE007FFFFC0
FFFFFFC03FFFFFE007FFFFC0
FFFFFFC03FFFFFE007FFFFC0
7FFFFF803FFFFFE007FFFFC0
1FFFFC000FFFFC00007FFE00
0FFFF00003FFF800003FFC00
07FFE00003FFF000001FFC00
07FFE00001FFF000000FF800
03FFE00001FFF000000FF800
03FFE00000FFF000000FF000
01FFE00000FFF000000FF000
01FFE00000FFF000000FE000
00FFF000007FF800001FE000
00FFF000007FF800001FE000
00FFF000007FFC00001FC000
007FF800007FFC00003FC000
007FF800007FFC00003FC000
007FF800007FFE00003F8000
003FFC0000FFFE00007F8000
003FFC0000FFFE00007F8000
003FFC0000FFFF00007F0000
001FFE0001FFFF0000FF0000
001FFE0001FFFF0000FF0000
000FFE0001FFFF8000FE0000
000FFF0003FFFF8001FE0000
000FFF0003FFFF8001FC0000
0007FF8003FBFFC001FC0000
0007FF8007FBFFC001FC0000
0007FF8007F1FFE003F80000
0003FFC007F1FFE003F80000
0003FFC00FF1FFE003F80000
0003FFC00FE0FFF007F00000
0001FFE00FE0FFF007F00000
0001FFE01FC0FFF007F00000
0000FFE01FC07FF80FE00000
0000FFF01FC07FF80FE00000
0000FFF03F803FF80FE00000
00007FF03F803FFC1FC00000
00007FF83F803FFC1FC00000
00007FF87F001FFC1FC00000
00003FFC7F001FFE3F800000
00003FFC7F001FFE3F800000
00001FFCFE000FFF3F000000
00001FFEFE000FFF7F000000
00001FFEFE0007FF7F000000
00000FFFFC0007FFFE000000
00000FFFFC0007FFFE000000
00000FFFFC0003FFFE000000
000007FFF80003FFFC000000
000007FFF80003FFFC000000
000007FFF00001FFFC000000
000003FFF00001FFF8000000
000003FFF00001FFF8000000
000001FFE00000FFF8000000
000001FFE00000FFF0000000
000001FFE000007FF0000000
ENDCHAR
STARTCHAR X
ENCODING 88
SWIDTH 853 0
DWIDTH 64 0
BBX 62 57 1 0
BITMAP
3FFFFFC000FFFFF0
3FFFFFC000FFFFF0
3FFFFFC000FFFFF0
3FFFFFC000FFFFF0
3FFFFFC000FFFFF0
07FFFC00000FFE00
01FFFC00000FF800
00FFFC00001FF000
007FFE00001FF000
003FFF00003FE000
001FFF00007FC000
000FFF80007F8000
000FFFC000FF0000
0007FFE001FF0000
0003FFF003FE0000
0001FFF003FC0000
0000FFF807F80000
0000FFFC0FF80000
00007FFE1FF00000
00003FFF3FE00000
00001FFF3FC00000
00000FFFFFC00000
00000FFFFF800000
000007FFFF000000
000003FFFE000000
000001FFFC000000
000000FFFC000000
000000FFFC000000
000001FFFE000000
000003FFFF000000
000007FFFF000000
00000FFFFF800000
00000FFFFFC00000
00001FF7FFE00000
00003FE3FFF00000
00007FC1FFF00000
00007F80FFF80000
0000FF00FFFC0000
0001FF007FFE0000
0003FE003FFF0000
0003FC001FFF8000
0007F8000FFF8000
000FF80007FFC000
001FF00007FFE000
003FE00003FFF000
003FC00001FFF800
007FC00000FFF800
00FF8000007FFC00
01FF0000007FFE00
03FE0000003FFF00
07FE0000003FFF80
0FFE0000007FFFE0
FFFFF00003FFFFFC
FFFFF00007FFFFFC
FFFFF00007FFFFFC
FFFFF00007FFFFFC
FFFFF00003FFFFFC
ENDCHAR
STARTCHAR Y
ENCODING 89
SWIDTH 794 0
DWIDTH 60 0
BBX 58 57 1 0
BITMAP
FFFFFFF007FFFFC0
FFFFFFF007FFFFC0
FFFFFFF007FFFFC0
FFFFFFF007FFFFC0
FFFFFFF007FFFFC0
1FFFFF0000FFFC00
07FFFC00007FF000
03FFFC00007FE000
01FFFC00007FC000
01FFFC00007F8000
00FFFC00007F0000
007FFC0000FF0000
003FFE0000FE0000
003FFF0001FE0000
001FFF0001FC0000
000FFF8003F80000
000FFFC007F80000
0007FFC007F00000
0003FFE00FF00000
0003FFE00FE00000
0001FFF01FC00000
0000FFF81FC00000
0000FFF83F800000
00007FFC7F800000
00003FFE7F000000
00003FFEFE000000
00001FFFFE000000
00000FFFFC000000
00000FFFFC000000
000007FFF8000000
000003FFF0000000
000001FFF0000000
000001FFE0000000
000001FFE0000000
000001FFE0000000
000001FFE0000000
000001FFE0000000
000001FFE0000000
000001FFE0000000
000001FFE0000000
000001FFE0000000
000001FFE0000000
000001FFE0000000
000001FFE0000000
000001FFE0000000
000001FFE0000000
000001FFE0000000
000001FFF0000000
000001FFF0000000
000003FFF0000000
000003FFF8000000
000007FFFC000000
00007FFFFFC00000
00007FFFFFC00000
00007FFFFFC00000
00007FFFFFC00000
00007FFFFFC00000
ENDCHAR
STARTCHAR Z
ENCODING 90
SWIDTH 745 0
DWIDTH 56 0
BBX 53 59 1 -1
BITMAP
00600000000000
00FFFFFFFFFFF8
00FFFFFFFFFFF0
01FFFFFFFFFFF0
01FFFFFFFFFFE0
03FFFFFFFFFFC0
03FFFFFFFFFF80
07FFC0003FFF80
07FE00007FFF00
0FFC00007FFE00
0FF00000FFFC00
1FE00001FFFC00
1FC00003FFF800
1F800003FFF000
0F800007FFE000
0300000FFFE000
0000001FFFC000
0000003FFF8000
0000003FFF0000
0000007FFF0000
000000FFFE0000
000001FFFC0000
000001FFF80000
000003FFF00000
000007FFF00000
00000FFFE00000
00000FFFC00000
00001FFF800000
00003FFF800000
00007FFF000000
0000FFFE000000
0000FFFC000000
0001FFFC000000
0003FFF8000000
0007FFF0000000
0007FFE0000000
000FFFE0000000
001FFFC0000000
003FFF80000000
003FFF00000000
007FFF00000000
00FFFE00000000
01FFFC00000000
01FFF8000000C0
03FFF0000001F0
07FFF0000001F8
0FFFE0000003F8
1FFFC000000FF8
1FFF8000001FF0
3FFF800000FFF0
7FFF00001FFFE0
FFFFFFFFFFFFE0
FFFFFFFFFFFFC0
FFFFFFFFFFFFC0
FFFFFFFFFFFF80
FFFFFFFFFFFF80
FFFFFFFFFFFF00
FFFFFFFFFFFF00
00000000000600
ENDCHAR
STARTCHAR bracketleft
ENCODING 91
SWIDTH 397 0
DWIDTH 30 0
BBX 19 74 6 -10
BITMAP
FFFFC0
FFFFE0
FFFFE0
FFFFE0
FFFFE0
FFFFC0
FF8000
FF8000
FF8000
FF8000
FF8000
FF8000
FF8000
FF8000
FF8000
FF8000
FF8000
FF8000
FF8000
FF8000
FF8000
FF8000
FF8000
FF8000
FF8000
FF8000
FF8000
FF8000
FF8000
FF8000
FF8000
FF8000
FF8000
FF8000
FF8000
FF8000
FF8000
FF8000
FF8000
FF8000
FF8000
FF8000
FF8000
FF8000
FF8000
FF8000
FF8000
FF8000
FF8000
FF8000
FF8000
FF8000
FF8000
FF8000
FF8000
FF8000
FF8000
FF8000
FF8000
FF8000
FF8000
FF8000
FF8000
FF8000
FF8000
FF8000
FF8000
FF8000
FFFFC0
FFFFE0
FFFFE0
FFFFE0
FFFFE0
FFFFC0
ENDCHAR
STARTCHAR backslash
ENCODING 92
SWIDTH 500 0
DWIDTH 38 0
BBX 33 70 2 -10
BITMAP
FF00000000
FF80000000
7F80000000
7F80000000
7FC0000000
3FC0000000
3FC0000000
3FE0000000
1FE0000000
1FE0000000
1FF0000000
0FF0000000
0FF8000000
0FF8000000
07F8000000
07FC000000
07FC000000
03FC000000
03FE000000
01FE000000
01FE000000
01FF000000
00FF000000
00FF000000
00FF800000
007F800000
007F800000
007FC00000
003FC00000
003FE00000
003FE00000
001FE00000
001FF00000
001FF00000
000FF00000
000FF80000
0007F80000
0007F80000
0007FC0000
0003FC0000
0003FC0000
0003FE0000
0001FE0000
0001FF0000
0001FF0000
0000FF0000
0000FF8000
0000FF8000
00007F8000
00007FC000
00003FC000
00003FC000
00003FE000
00001FE000
00001FE000
00001FF000
00000FF000
00000FF000
00000FF800
000007F800
000007FC00
000007FC00
000003FC00
000003FE00
000003FE00
000001FE00
000001FF00
000000FF00
000000FF00
000000FF80
ENDCHAR
STARTCHAR bracketright
ENCODING 93
SWIDTH 397 0
DWIDTH 30 0
BBX 19 74 5 -10
BITMAP
FFFFE0
FFFFE0
FFFFE0
FFFFE0
FFFFE0
FFFFE0
003FE0
003FE0
003FE0
003FE0
003FE0
003FE0
003FE0
003FE0
003FE0
003FE0
003FE0
003FE0
003FE0
003FE0
003FE0
003FE0
003FE0
003FE0
003FE0
003FE0
003FE0
003FE0
003FE0
003FE0
003FE0
003FE0
003FE0
003FE0
003FE0
003FE0
003FE0
003FE0
003FE0
003FE0
003FE0
003FE0
003FE0
003FE0
003FE0
003FE0
003FE0
003FE0
003FE0
003FE0
003FE0
003FE0
003FE0
003FE0
003FE0
003FE0
003FE0
003FE0
003FE0
003FE0
003FE0
003FE0
003FE0
003FE0
003FE0
003FE0
003FE0
003FE0
FFFFE0
FFFFE0
FFFFE0
FFFFE0
FFFFE0
FFFFE0
ENDCHAR
STARTCHAR asciicircum
ENCODING 94
SWIDTH 600 0
DWIDTH 45 0
BBX 43 43 1 16
BITMAP
000004000000
000006000000
00000E000000
00000F000000
00001F000000
00001F800000
00003F800000
00003F800000
00007FC00000
00007FC00000
0000FFE00000
0000FFE00000
0001FFF00000
0001FFF00000
0003FFF80000
0003FBF80000
0007FBFC0000
0007F1FC0000
000FF1FE0000
000FE0FE0000
001FE0FF0000
001FC07F0000
003FC07F8000
003F803F8000
007F803FC000
007F001FC000
00FF001FE000
00FE000FE000
01FE000FF000
01FC0007F000
03FC0007F800
03F80003F800
07F80003FC00
07F00001FC00
0FF00001FE00
0FE00000FE00
1FE00000FF00
1FC000007F00
3FC000007F80
3F8000003F80
7F8000003FC0
7F0000001FC0
FF0000001FE0
ENDCHAR
STARTCHAR underscore
ENCODING 95
SWIDTH 598 0
DWIDTH 45 0
BBX 42 7 1 -9
BITMAP
7FFFFFFFFFC0
FFFFFFFFFFC0
FFFFFFFFFFC0
FFFFFFFFFFC0
FFFFFFFFFFC0
FFFFFFFFFFC0
7FFFFFFFFFC0
ENDCHAR
STARTCHAR grave
ENCODING 96
SWIDTH 600 0
DWIDTH 45 0
BBX 16 16 14 43
BITMAP
3F00
7F00
FF80
FF80
FFC0
FFC0
FFE0
7FE0
7FF0
3FF0
1FF8
0FFC
03FC
01FE
007F
001C
ENDCHAR
STARTCHAR a
ENCODING 97
SWIDTH 619 0
DWIDTH 46 0
BBX 43 40 2 -1
BITMAP
0007FC000400
003FFFC01C00
00FFFFE03C00
01FFFFF8FC00
03FFFFFFFC00
07FF03FFFC00
0FFC00FFFC00
1FF8007FFC00
1FF0003FFC00
3FF0003FFC00
3FE0001FFC00
7FE0001FFC00
7FC0001FFC00
7FC0001FFC00
7FC0001FFC00
7FC0001FFC00
FFC0001FFC00
FFC0001FFC00
FFC0001FFC00
FFC0001FFC00
FFC0001FFC00
FFC0001FFC00
FFC0001FFC00
FFC0001FFC00
7FE0001FFC00
7FE0001FFC00
7FE0001FFC00
7FF0001FFC00
3FF0001FFC00
3FF8001FFE00
3FFC001FFE00
1FFC003FFF00
0FFF007FFFC0
0FFFC1FFFFE0
07FFFFFFFFE0
03FFFFEFFFE0
01FFFFCFFFE0
007FFF8FFC00
003FFF0F0000
0007F8180000
ENDCHAR
STARTCHAR b
ENCODING 98
SWIDTH 609 0
DWIDTH 46 0
BBX 43 62 0 -1
BITMAP
000100000000
000300000000
000F00000000
001F00000000
007F00000000
01FF00000000
0FFF00000000
7FFF00000000
FFFF00000000
FFFF00000000
FFFF00000000
FFFF00000000
1FFF00000000
0FFF00000000
07FF00000000
07FF00000000
07FF00000000
03FF00000000
03FF00000000
03FF00000000
03FF00000000
03FF00000000
03FF07F80000
03FF1FFF8000
03FF7FFFE000
03FFFFFFF000
03FFFFFFF800
03FFFFFFFC00
03FFF07FFE00
03FF801FFF00
03FF0007FF80
03FF0003FF80
03FF0001FFC0
03FF0001FFC0
03FF0000FFC0
03FF0000FFE0
03FF00007FE0
03FF00007FE0
03FF00007FE0
03FF00007FE0
03FF00003FE0
03FF00003FE0
03FF00003FE0
03FF00003FE0
03FF00003FE0
03FF00003FE0
03FF00003FE0
03FF00003FE0
03FF00007FE0
03FF00007FC0
03FF80007FC0
01FF80007F80
01FF8000FF80
01FFC000FF00
00FFE001FF00
007FF003FE00
007FFC0FFC00
003FFFFFF800
000FFFFFF000
0007FFFFC000
0001FFFF0000
00003FF80000
ENDCHAR
STARTCHAR c
ENCODING 99
SWIDTH 514 0
DWIDTH 39 0
BBX 34 40 2 -1
BITMAP
0001FF0000
000FFFE000
003FFFF800
00FFFFFC00
01FFFFFE00
03FFFFFF00
07FF0FFF80
0FFC03FF80
1FF803FF80
1FF001FFC0
3FE001FFC0
3FE000FFC0
7FE000FF00
7FC000F800
7FC0008000
7FC0000000
FFC0000000
FFC0000000
FFC0000000
FFC0000000
FFC0000000
FFC0000000
FFC0000000
7FC0000000
7FC0000000
7FE0000000
7FE0000000
3FE0000000
3FF0000300
3FF00007C0
1FF8000FC0
0FFC001F80
0FFE007F80
07FF81FF00
03FFFFFE00
01FFFFFC00
00FFFFF800
007FFFF000
001FFFC000
0003FE0000
ENDCHAR
STARTCHAR d
ENCODING 100
SWIDTH 619 0
DWIDTH 46 0
BBX 43 62 2 -1
BITMAP
000000000400
000000000C00
000000003C00
000000007C00
00000001FC00
0000000FFC00
0000003FFC00
000001FFFC00
000003FFFC00
000003FFFC00
000003FFFC00
000003FFFC00
0000007FFC00
0000003FFC00
0000001FFC00
0000001FFC00
0000001FFC00
0000001FFC00
0000001FFC00
0000001FFC00
0000001FFC00
0000001FFC00
0007FC1FFC00
003FFF1FFC00
00FFFFDFFC00
01FFFFFFFC00
03FFFFFFFC00
07FFFFFFFC00
0FFF03FFFC00
1FFC00FFFC00
1FF8007FFC00
3FF0003FFC00
3FE0003FFC00
7FE0001FFC00
7FE0001FFC00
7FC0001FFC00
7FC0001FFC00
7FC0001FFC00
FFC0001FFC00
FFC0001FFC00
FFC0001FFC00
FFC0001FFC00
FFC0001FFC00
FFC0001FFC00
FFC0001FFC00
FFC0001FFC00
7FE0001FFC00
7FE0001FFC00
7FE0001FFC00
7FF0001FFC00
3FF0001FFC00
3FF8001FFE00
3FFC003FFE00
1FFC007FFF00
0FFF00FFFFC0
0FFFC3FFFFE0
07FFFFFFFFE0
03FFFFEFFFE0
01FFFFCFFFE0
007FFF8FFC00
003FFF0F0000
0007F8180000
ENDCHAR
STARTCHAR e
ENCODING 101
SWIDTH 515 0
DWIDTH 39 0
BBX 36 40 2 -1
BITMAP
0003FC0000
001FFF8000
007FFFC000
01FFFFF000
03FFFFF800
07FFFFFC00
0FFC3FFC00
1FF00FFE00
1FE00FFF00
3FE007FF00
3FC003FF80
7FC003FF80
7FC003FF80
7FC003FF80
7FC003FFC0
FFC007FF80
FFC01FFF00
FFC07FF800
FFC1FFE000
FFC7FF8000
FFDFFE0000
FFFFF00000
FFFFC00000
7FFF000000
7FFC000000
7FE0000000
7FF0000000
3FF0000000
3FF80000C0
1FF80001F0
1FFC0003F0
0FFE0007E0
0FFF801FE0
07FFF07FC0
03FFFFFF80
01FFFFFF00
007FFFFE00
003FFFFC00
000FFFF000
0001FF8000
ENDCHAR
STARTCHAR f
ENCODING 102
SWIDTH 402 0
DWIDTH 30 0
BBX 36 61 1 0
BITMAP
00000FF800
00007FFF00
0001FFFF80
0003FFFFC0
0007F8FFE0
000FF07FE0
000FE03FF0
001FE03FF0
003FC03FF0
003FC03FF0
007FC03FF0
007FC03FE0
007F807FE0
00FF807F80
00FF807000
00FF800000
00FF800000
00FF800000
01FF800000
01FF800000
01FF800000
01FF800000
01FF800000
7FFFFFF000
FFFFFFF000
FFFFFFF000
FFFFFFF000
7FFFFFF000
0FFFFFF000
03FF800000
03FF800000
01FF800000
01FF800000
01FF800000
01FF800000
01FF800000
01FF800000
01FF800000
01FF800000
01FF800000
01FF800000
01FF800000
01FF800000
01FF800000
01FF800000
01FF800000
01FF800000
01FF800000
01FF800000
01FF800000
01FF800000
01FF800000
03FFC00000
03FFC00000
07FFE00000
0FFFF00000
7FFFFF0000
FFFFFF0000
FFFFFF0000
FFFFFF0000
7FFFFF0000
ENDCHAR
STARTCHAR g
ENCODING 103
SWIDTH 522 0
DWIDTH 39 0
BBX 38 57 1 -17
BITMAP
000000003C
0007FC01FC
003FFF81FC
00FFFFE1FC
01FFFFFFFC
03FFFFFFF8
07FE07FFF8
0FFC03FFF0
1FF801FFE0
1FF001FF80
3FF000FF80
3FE000FFC0
3FE000FFC0
3FE0007FC0
7FE0007FC0
7FE0007FC0
7FE0007FC0
7FE0007FC0
3FE0007FC0
3FE000FFC0
3FE000FFC0
3FF000FF80
1FF001FF80
1FF801FF00
0FFC03FE00
07FE07FC00
07FFFFF800
0FFFFFF000
1F3FFFC000
3F07FE0000
3F00000000
7F00000000
7F80000000
7FF0000000
7FFFFF8000
7FFFFFF800
3FFFFFFE00
3FFFFFFF80
1FFFFFFFC0
0FFFFFFFE0
0FFFFFFFE0
1FFFFFFFF0
3FCFFFFFF0
7F8000FFF0
7F00001FF0
7F00000FF0
7F000007F0
FF000007F0
7F800007F0
7F80000FE0
7FC0001FE0
3FF800FFC0
3FFFFFFF80
0FFFFFFF00
07FFFFFC00
01FFFFF000
001FFF0000
ENDCHAR
STARTCHAR h
ENCODING 104
SWIDTH 681 0
DWIDTH 51 0
BBX 49 61 1 0
BITMAP
00008000000000
00018000000000
00038000000000
000F8000000000
003F8000000000
00FF8000000000
07FF8000000000
3FFF8000000000
3FFF8000000000
3FFF8000000000
3FFF8000000000
3FFF8000000000
0FFF8000000000
07FF8000000000
03FF8000000000
03FF8000000000
01FF8000000000
01FF8000000000
01FF8000000000
01FF8000000000
01FF8000000000
01FF8000000000
01FF803FC00000
01FF81FFF80000
01FF83FFFE0000
01FF8FFFFF0000
01FF9FFFFF0000
01FFBFFFFF8000
01FFBF07FF8000
01FFFC01FFC000
01FFF001FFC000
01FFE001FFC000
01FFC000FFC000
01FFC000FFC000
01FF8000FFC000
01FF8000FFE000
01FF8000FFE000
01FF8000FFE000
01FF8000FFE000
01FF8000FFE000
01FF8000FFE000
01FF8000FFE000
01FF8000FFE000
01FF8000FFE000
01FF8000FFE000
01FF8000FFE000
01FF8000FFE000
01FF8000FFE000
01FF8000FFE000
01FF8000FFE000
01FF8000FFE000
01FFC000FFE000
03FFC001FFE000
03FFE001FFF000
07FFE001FFF000
0FFFF803FFFC00
FFFFFF1FFFFF80
FFFFFF1FFFFF80
FFFFFF1FFFFF80
FFFFFF1FFFFF80
FFFFFF1FFFFF80
ENDCHAR
STARTCHAR i
ENCODING 105
SWIDTH 347 0
DWIDTH 26 0
BBX 24 56 1 0
BITMAP
003C00
007F00
00FF00
01FF80
01FFC0
03FFC0
01FFC0
01FF80
00FF80
007F00
003C00
000000
000000
000000
000000
000080
000180
000380
000F80
001F80
007F80
01FF80
0FFF80
3FFF80
7FFF80
7FFF80
7FFF80
3FFF80
07FF80
03FF80
03FF80
03FF80
01FF80
01FF80
01FF80
01FF80
01FF80
01FF80
01FF80
01FF80
01FF80
01FF80
01FF80
01FF80
01FF80
01FF80
03FF80
03FFC0
03FFC0
07FFE0
0FFFF0
FFFFFF
FFFFFF
FFFFFF
FFFFFF
FFFFFF
ENDCHAR
STARTCHAR j
ENCODING 106
SWIDTH 303 0
DWIDTH 23 0
BBX 28 72 -9 -16
BITMAP
00000F00
00001FC0
00003FC0
00007FE0
00007FF0
0000FFF0
00007FF0
00007FE0
00003FE0
00001FC0
00000F00
00000000
00000000
00000000
00000000
00000000
00000020
00000060
000001E0
000003E0
00000FE0
00003FE0
0000FFE0
0007FFE0
000FFFE0
000FFFE0
000FFFE0
000FFFE0
0003FFE0
0001FFE0
0000FFE0
0000FFE0
00007FE0
00007FE0
00007FE0
00007FE0
00007FE0
00007FE0
00007FE0
00007FE0
00007FE0
00007FE0
00007FE0
00007FE0
00007FE0
00007FE0
00007FE0
00007FE0
00007FE0
00007FE0
00007FE0
00007FE0
00007FE0
00007FE0
00007FE0
00007FE0
00007FE0
00007FE0
00007FE0
02007FC0
0E007FC0
1E007FC0
3E007FC0
FE007F80
FF00FF80
FF00FF00
FF80FF00
7FC3FE00
3FFFFC00
1FFFF800
0FFFE000
01FF0000
ENDCHAR
STARTCHAR k
ENCODING 107
SWIDTH 631 0
DWIDTH 47 0
BBX 46 61 1 0
BITMAP
000080000000
000180000000
000780000000
000F80000000
003F80000000
00FF80000000
07FF80000000
3FFF80000000
7FFF80000000
7FFF80000000
7FFF80000000
3FFF80000000
0FFF80000000
07FF80000000
03FF80000000
03FF80000000
03FF80000000
01FF80000000
01FF80000000
01FF80000000
01FF80000000
01FF80000000
01FF80000000
01FF83FFFF80
01FF83FFFF80
01FF83FFFF80
01FF83FFFF80
01FF83FFFF80
01FF801FF800
01FF801FE000
01FF803FC000
01FF807F0000
01FF80FE0000
01FF81FC0000
01FF87F80000
01FF8FF00000
01FF9FE00000
01FFBFC00000
01FFFF800000
01FFFFC00000
01FFFFE00000
01FFFFF00000
01FFFFFC0000
01FFFFFE0000
01FFCFFF0000
01FF87FF8000
01FF83FFC000
01FF81FFE000
01FF80FFF000
01FF807FF800
01FF803FFC00
03FF803FFE00
03FF801FFF00
03FF800FFF80
07FFC007FFC0
0FFFE007FFE0
FFFFFC7FFFFC
FFFFFC7FFFFC
FFFFFC7FFFFC
FFFFFC7FFFFC
FFFFFC7FFFFC
ENDCHAR
STARTCHAR l
ENCODING 108
SWIDTH 347 0
DWIDTH 26 0
BBX 24 61 1 0
BITMAP
000080
000380
000F80
001F80
00FF80
03FF80
0FFF80
3FFF80
7FFF80
7FFF80
7FFF80
1FFF80
07FF80
03FF80
03FF80
03FF80
01FF80
01FF80
01FF80
01FF80
01FF80
01FF80
01FF80
01FF80
01FF80
01FF80
01FF80
01FF80
01FF80
01FF80
01FF80
01FF80
01FF80
01FF80
01FF80
01FF80
01FF80
01FF80
01FF80
01FF80
01FF80
01FF80
01FF80
01FF80
01FF80
01FF80
01FF80
01FF80
01FF80
01FF80
01FF80
03FF80
03FFC0
03FFC0
07FFE0
0FFFF0
FFFFFF
FFFFFF
FFFFFF
FFFFFF
FFFFFF
ENDCHAR
STARTCHAR m
ENCODING 109
SWIDTH 1036 0
DWIDTH 78 0
BBX 76 41 1 0
BITMAP
00004000000000000000
0000C000000000000000
0003C03FE0001FF00000
000FC0FFF800FFFC0000
007FC3FFFE01FFFF0000
07FF87FFFF07FFFF8000
3FFF8FFFFF0FFFFFC000
3FFF9FFFFF9FFFFFC000
3FFFBF07FFBFC3FFE000
3FFFFC01FFFF00FFE000
1FFFF801FFFC007FF000
07FFF001FFF8007FF000
03FFE000FFF0007FF000
03FFC000FFF0007FF000
03FFC000FFE0003FF000
01FF8000FFC0003FF000
01FF8000FFC0003FF000
01FF8000FFC0003FF000
01FF8000FFC0003FF000
01FF8000FFC0003FF000
01FF8000FFC0003FF000
01FF8000FFC0003FF000
01FF8000FFC0003FF000
01FF8000FFC0003FF000
01FF8000FFC0003FF000
01FF8000FFC0003FF000
01FF8000FFC0003FF000
01FF8000FFC0003FF000
01FF8000FFC0003FF000
01FF8000FFC0003FF000
01FF8000FFC0003FF000
01FFC000FFE0007FF000
03FFC000FFE0007FF800
03FFC001FFE0007FF800
07FFE001FFF0007FFC00
0FFFF003FFF800FFFE00
FFFFFE3FFFFF8FFFFFE0
FFFFFE3FFFFF8FFFFFF0
FFFFFE3FFFFF8FFFFFF0
FFFFFE3FFFFF8FFFFFF0
FFFFFE3FFFFF8FFFFFE0
ENDCHAR
STARTCHAR n
ENCODING 110
SWIDTH 681 0
DWIDTH 51 0
BBX 49 41 1 0
BITMAP
00004000000000
0000C000000000
0003C03FC00000
000FC0FFF80000
007FC3FFFC0000
07FF87FFFE0000
3FFF8FFFFF0000
3FFF9FFFFF8000
3FFFBF07FF8000
3FFFFC03FFC000
1FFFF801FFC000
07FFF001FFC000
03FFE000FFC000
03FFC000FFC000
03FFC000FFC000
01FF8000FFC000
01FF8000FFC000
01FF8000FFC000
01FF8000FFC000
01FF8000FFC000
01FF8000FFC000
01FF8000FFC000
01FF8000FFC000
01FF8000FFC000
01FF8000FFC000
01FF8000FFC000
01FF8000FFC000
01FF8000FFC000
01FF8000FFC000
01FF8000FFC000
01FF8000FFC000
01FFC000FFE000
03FFC000FFE000
03FFC001FFE000
07FFE001FFF000
0FFFF003FFF800
FFFFFE1FFFFF80
FFFFFE1FFFFF80
FFFFFE1FFFFF80
FFFFFE1FFFFF80
FFFFFE1FFFFF80
ENDCHAR
STARTCHAR o
ENCODING 111
SWIDTH 574 0
DWIDTH 43 0
BBX 39 40 2 -1
BITMAP
0001FF0000
000FFFC000
003FFFF000
00FFFFFC00
01FFFFFE00
03FFFFFF00
07FE1FFF80
0FF807FFC0
1FE003FFE0
1FE001FFF0
3FC000FFF0
3FC0007FF8
7F80003FF8
7F80003FFC
7F80001FFC
7F80001FFC
FF80000FFC
FF80000FFE
FFC00007FE
FFC00007FE
FFC00007FE
FFC00007FE
FFE00003FE
7FE00003FE
7FF00003FC
7FF00003FC
7FF80003FC
3FF80003FC
3FFC0007F8
1FFE0007F8
1FFF000FF0
0FFF800FF0
07FFC03FE0
03FFF0FFC0
03FFFFFF80
00FFFFFF00
007FFFFE00
003FFFF800
000FFFE000
0001FF0000
ENDCHAR
STARTCHAR p
ENCODING 112
SWIDTH 631 0
DWIDTH 47 0
BBX 44 54 1 -15
BITMAP
000181FE0000
000F87FFC000
01FF9FFFF000
7FFF3FFFF800
7FFF7FFFFC00
7FFF7FFFFE00
7FFFFC3FFF00
1FFFF007FF80
07FFE003FF80
07FFC001FFC0
03FF8000FFC0
03FF8000FFE0
03FF80007FE0
03FF80007FE0
03FF80007FF0
03FF80003FF0
03FF80003FF0
03FF80003FF0
03FF80003FF0
03FF80003FF0
03FF80003FF0
03FF80003FF0
03FF80003FF0
03FF80003FF0
03FF80003FF0
03FF80003FF0
03FF80003FE0
03FF80003FE0
03FFC0003FE0
03FFC0007FE0
03FFC0007FC0
03FFE000FFC0
03FFF001FF80
03FFF803FF00
03FFFE07FF00
03FFFFFFFE00
03FFFFFFF800
03FFBFFFF000
03FF8FFFC000
03FF83FE0000
03FF80000000
03FF80000000
03FF80000000
03FF80000000
03FF80000000
03FF80000000
07FFC0000000
07FFE0000000
1FFFF0000000
FFFFFE000000
FFFFFE000000
FFFFFE000000
FFFFFE000000
FFFFFE000000
ENDCHAR
STARTCHAR q
ENCODING 113
SWIDTH 625 0
DWIDTH 47 0
BBX 45 54 2 -15
BITMAP
0007FC000400
003FFF801C00
00FFFFE03C00
01FFFFF8FC00
03FFFFFFFC00
07FF03FFFC00
0FFC00FFFC00
1FF8007FFC00
1FF0007FFC00
3FF0003FFC00
3FE0003FFC00
7FE0001FFC00
7FC0001FFC00
7FC0001FFC00
7FC0001FFC00
7FC0001FFC00
FFC0001FFC00
FFC0001FFC00
FFC0001FFC00
FFC0001FFC00
FFC0001FFC00
FFC0001FFC00
FFC0001FFC00
FFC0001FFC00
7FE0001FFC00
7FE0001FFC00
7FE0001FFC00
7FF0001FFC00
3FF0001FFC00
3FF8001FFC00
3FFC001FFC00
1FFC003FFC00
0FFF007FFC00
0FFFC1FFFC00
07FFFFFFFC00
03FFFFFFFC00
01FFFFDFFC00
007FFF9FFC00
003FFF1FFC00
0007F81FFC00
0000001FFC00
0000001FFC00
0000001FFC00
0000001FFC00
0000001FFC00
0000001FFE00
0000003FFE00
0000003FFF00
000000FFFF80
000007FFFFF0
000007FFFFF8
000007FFFFF8
000007FFFFF8
000007FFFFF0
ENDCHAR
STARTCHAR r
ENCODING 114
SWIDTH 530 0
DWIDTH 40 0
BBX 38 40 1 0
BITMAP
0000C00000
0003C03F80
000FC1FFE0
003FC3FFF0
03FF8FFFF8
3FFF9FFFF8
3FFFBFFFFC
3FFFBE1FFC
3FFFF80FFC
3FFFF00FFC
07FFE00FFC
03FFE00FFC
03FFC00FF8
03FFC00FF0
01FF800F80
01FF800E00
01FF800000
01FF800000
01FF800000
01FF800000
01FF800000
01FF800000
01FF800000
01FF800000
01FF800000
01FF800000
01FF800000
01FF800000
01FF800000
01FFC00000
01FFC00000
03FFC00000
03FFE00000
07FFE00000
0FFFF80000
FFFFFF0000
FFFFFF0000
FFFFFF0000
FFFFFF0000
FFFFFF0000
ENDCHAR
STARTCHAR s
ENCODING 115
SWIDTH 542 0
DWIDTH 41 0
BBX 37 40 2 -1
BITMAP
001FF03C00
007FFE3C00
01FFFFFE00
03FFFFFE00
07FFFFFF00
0FFC0FFF00
0FF001FF00
1FF0007F80
1FF0003F80
1FF0001FC0
1FF0000FC0
1FF80007C0
1FFC000380
1FFF000000
1FFFF00000
0FFFFF0000
0FFFFFE000
07FFFFF800
03FFFFFE00
01FFFFFF80
007FFFFFC0
001FFFFFE0
0007FFFFE0
0000FFFFF0
30000FFFF0
780001FFF8
FC00007FF8
FC00001FF8
7E00000FF8
7F00000FF8
3F800007F0
3FE0000FF0
1FF0000FF0
1FFC001FE0
0FFF807FC0
07FFFFFFC0
07FFFFFF80
03FFFFFE00
03E7FFF800
01E07FC000
ENDCHAR
STARTCHAR t
ENCODING 116
SWIDTH 410 0
DWIDTH 31 0
BBX 29 52 1 -1
BITMAP
00008000
00018000
00038000
00078000
001F8000
007F8000
00FF8000
01FF8000
01FF8000
01FF8000
01FF8000
01FF8000
01FF8000
7FFFFFF0
FFFFFFF8
FFFFFFF8
FFFFFFF8
7FFFFFF8
0FFFFFF8
07FF8000
03FF8000
01FF8000
01FF8000
01FF8000
01FF8000
01FF8000
01FF8000
01FF8000
01FF8000
01FF8000
01FF8000
01FF8000
01FF8000
01FF8000
01FF8000
01FF8000
01FF8000
01FF8000
01FF8000
01FF8000
01FF8000
01FF8000
01FFC000
01FFC020
01FFC0F0
01FFF3F8
00FFFFF8
00FFFFF0
007FFFC0
007FFF00
001FFC00
000FE000
ENDCHAR
STARTCHAR u
ENCODING 117
SWIDTH 659 0
DWIDTH 49 0
BBX 48 39 1 -1
BITMAP
FFFF807FFFC0
FFFF807FFFC0
FFFF807FFFC0
FFFF807FFFC0
FFFF807FFFC0
0FFF8007FFC0
07FF8003FFC0
03FF8001FFC0
03FF8001FFC0
03FF8001FFC0
01FF8000FFC0
01FF8000FFC0
01FF8000FFC0
01FF8000FFC0
01FF8000FFC0
01FF8000FFC0
01FF8000FFC0
01FF8000FFC0
01FF8000FFC0
01FF8000FFC0
01FF8000FFC0
01FF8000FFC0
01FF8000FFC0
01FF8000FFC0
01FF8000FFC0
01FF8000FFC0
01FF8000FFE0
01FF8001FFE0
01FF8001FFE0
01FFC003FFE0
01FFC007FFF0
00FFE01F7FFC
00FFF07E7FFF
00FFFFFCFFFF
007FFFFCFFFF
003FFFF0FFFF
001FFFE0FFC0
000FFFC0F000
0001FE00C000
ENDCHAR
STARTCHAR v
ENCODING 118
SWIDTH 600 0
DWIDTH 45 0
BBX 45 38 0 0
BITMAP
7FFFF007FFF0
FFFFF00FFFF8
FFFFF00FFFF8
FFFFF00FFFF8
7FFFF007FFF0
0FFF8000FF80
0FFF00007F00
07FF00007E00
07FF0000FC00
03FF8000FC00
03FF8000FC00
01FF8001F800
01FFC001F800
00FFC003F000
00FFE003F000
007FE003E000
007FF007E000
003FF007C000
003FF80FC000
001FF80F8000
001FFC1F8000
001FFC1F8000
000FFE1F0000
000FFE3F0000
0007FF3E0000
0007FF7E0000
0003FFFC0000
0003FFFC0000
0001FFF80000
0001FFF80000
0000FFF00000
0000FFF00000
00007FE00000
00007FE00000
00007FE00000
00003FC00000
00003FC00000
00001F800000
ENDCHAR
STARTCHAR w
ENCODING 119
SWIDTH 932 0
DWIDTH 70 0
BBX 69 38 0 0
BITMAP
7FFFF01FFFFE03FFF8
FFFFF01FFFFE07FFF8
FFFFF01FFFFE07FFF8
FFFFF01FFFFE07FFF8
7FFFF01FFFFE03FFF8
0FFF8001FFE0007FC0
0FFF0001FFE0003F80
07FF0001FFE0007F00
03FF0001FFE0007E00
03FF8003FFE0007E00
03FF8003FFE000FC00
01FFC003FFF000FC00
01FFC007FFF000FC00
00FFC007FFF801F800
00FFE00FDFF801F800
007FE00FDFFC03F000
007FF00F9FFC03F000
007FF01F8FFC03E000
003FF81F8FFE07E000
003FF83F07FE07E000
001FF83F07FF0FC000
001FFC3E03FF0FC000
000FFC7E03FF8F8000
000FFE7C03FF9F8000
000FFEFC01FF9F0000
0007FEFC01FFFF0000
0007FFF800FFFF0000
0003FFF800FFFE0000
0003FFF0007FFE0000
0001FFF0007FFC0000
0001FFE0007FFC0000
0001FFE0003FF80000
0000FFE0003FF80000
0000FFC0001FF80000
00007FC0001FF00000
00007F80000FF00000
00003F80000FE00000
00003F000007E00000
ENDCHAR
STARTCHAR x
ENCODING 120
SWIDTH 603 0
DWIDTH 45 0
BBX 44 38 1 0
BITMAP
7FFFFC1FFFC0
7FFFFC3FFFC0
7FFFFC3FFFC0
7FFFFC3FFFC0
7FFFFC1FFFC0
0FFFC003FC00
07FFC003F000
03FFC007E000
01FFE007C000
00FFF00FC000
007FF81F8000
003FF83F0000
001FFC3E0000
000FFE7E0000
000FFFFC0000
0007FFF80000
0003FFF00000
0001FFE00000
0000FFE00000
0001FFF00000
0003FFF80000
0007FFFC0000
0007DFFE0000
000F8FFF0000
001F87FF0000
003F03FF8000
007E01FFC000
00FC01FFE000
00F800FFF000
01F8007FF800
03F0003FFC00
07E0003FFE00
1FE0003FFF00
FFFE03FFFFE0
FFFF03FFFFF0
FFFF03FFFFF0
FFFF03FFFFF0
FFFE03FFFFE0
ENDCHAR
STARTCHAR y
ENCODING 121
SWIDTH 578 0
DWIDTH 43 0
BBX 43 55 0 -17
BITMAP
7FFFF03FFFE0
FFFFF03FFFE0
FFFFF03FFFE0
FFFFF03FFFE0
7FFFF03FFFE0
1FFF8003FE00
0FFF0003FC00
07FF0003FC00
07FF8003F800
03FF8003F000
03FF8007F000
01FFC007F000
01FFC00FE000
00FFE00FE000
00FFE01FC000
007FF01FC000
007FF03F8000
003FF83F8000
003FF87F0000
001FF87F0000
001FFCFE0000
000FFCFE0000
000FFFFC0000
0007FFFC0000
0007FFF80000
0003FFF80000
0003FFF00000
0001FFF00000
0001FFE00000
0001FFE00000
0000FFC00000
0000FFC00000
00007F800000
00007F800000
0000FF000000
0000FF000000
0001FE000000
0001FE000000
0003FC000000
0003FC000000
0003F8000000
0007F8000000
0007F0000000
000FF0000000
000FE0000000
001FE0000000
001FC0000000
003FC0000000
003F80000000
007F80000000
007F00000000
007F00000000
007E00000000
001E00000000
000400000000
ENDCHAR
STARTCHAR z
ENCODING 122
SWIDTH 544 0
DWIDTH 41 0
BBX 39 40 1 -1
BITMAP
0100000000
03FFFFFFFC
07FFFFFFFC
07FFFFFFF8
0FFFFFFFF0
1FFFFFFFF0
1FF001FFE0
3FC003FFC0
3F0007FF80
7E0007FF00
FC000FFE00
FC001FFE00
38003FFC00
18007FF800
0000FFF000
0000FFE000
0001FFC000
0003FFC000
0007FF8000
000FFF0000
001FFE0000
003FFC0000
003FF80000
007FF80000
00FFF00000
01FFE00000
03FFC00010
07FF80003C
07FF00003E
0FFF00007E
1FFE0000FC
3FFC0003FC
7FF8000FF8
FFF0007FF8
FFFFFFFFF0
FFFFFFFFE0
FFFFFFFFE0
FFFFFFFFC0
FFFFFFFFC0
0000000180
ENDCHAR
STARTCHAR braceleft
ENCODING 123
SWIDTH 456 0
DWIDTH 34 0
BBX 20 71 7 -10
BITMAP
000070
0003F0
000FF0
001FC0
007F00
007E00
00FC00
01FC00
01FC00
01FC00
01FC00
01FC00
01FE00
01FE00
01FF00
01FF80
01FF80
01FFC0
00FFC0
00FFE0
00FFE0
007FE0
007FF0
003FF0
003FF0
003FF0
003FF0
003FE0
003FE0
007FC0
007FC0
01FF80
07FF00
FFFC00
FFE000
FF0000
FFE000
FFFC00
07FF00
01FF80
00FFC0
007FC0
003FE0
003FE0
003FF0
003FF0
003FF0
003FF0
007FF0
007FE0
007FE0
00FFE0
00FFC0
01FFC0
01FF80
01FF80
01FF00
01FE00
01FE00
01FC00
01FC00
01FC00
01FC00
01FC00
00FC00
007E00
003F00
001FC0
000FF0
0003F0
000070
ENDCHAR
STARTCHAR bar
ENCODING 124
SWIDTH 600 0
DWIDTH 45 0
BBX 7 70 19 -11
BITMAP
FE
FE
FE
FE
FE
FE
FE
FE
FE
FE
FE
FE
FE
FE
FE
FE
FE
FE
FE
FE
FE
FE
FE
FE
FE
FE
FE
FE
FE
FE
FE
FE
FE
FE
FE
FE
FE
FE
FE
FE
FE
FE
FE
FE
FE
FE
FE
FE
FE
FE
FE
FE
FE
FE
FE
FE
FE
FE
FE
FE
FE
FE
FE
FE
FE
FE
FE
FE
FE
FE
ENDCHAR
STARTCHAR braceright
ENCODING 125
SWIDTH 456 0
DWIDTH 34 0
BBX 20 71 7 -10
BITMAP
E00000
FC0000
FF0000
3FC000
0FE000
07F000
03F000
03F800
03F800
03F800
03F800
03F800
07F800
07F800
0FF800
0FF800
1FF800
3FF800
3FF000
7FF000
7FF000
7FE000
FFE000
FFE000
FFC000
FFC000
7FC000
7FC000
7FE000
3FE000
3FF000
1FF800
07FE00
03FFF0
007FF0
000FF0
007FF0
03FFF0
07FF00
1FF800
3FF000
3FE000
7FE000
7FC000
7FC000
FFC000
FFC000
FFE000
7FE000
7FE000
7FF000
7FF000
3FF000
3FF800
1FF800
0FF800
0FF800
07F800
07F800
03F800
03F800
03F800
03F800
03F800
03F000
07F000
0FE000
3FC000
FF0000
FC0000
E00000
ENDCHAR
STARTCHAR asciitilde
ENCODING 126
SWIDTH 600 0
DWIDTH 45 0
BBX 43 17 1 13
BITMAP
00FF00000000
03FFC0000000
07FFF0000FC0
0FFFF8001FE0
1FFFFC001FE0
3FFFFE001FC0
3FFFFF001FC0
7FC1FFC01FC0
7F80FFE03FC0
7F007FF07FC0
7F001FFFFF80
7F000FFFFF80
FF0007FFFF00
FF0003FFFE00
7E0001FFFC00
0000007FF800
0000001FC000
ENDCHAR
STARTCHAR uni00A0
ENCODING 160
SWIDTH 250 0
DWIDTH 19 0
BBX 1 1 0 0
BITMAP
00
ENDCHAR
STARTCHAR exclamdown
ENCODING 161
SWIDTH 373 0
DWIDTH 28 0
BBX 14 60 9 -19
BITMAP
0380
0FC0
1FE0
3FF0
7FF8
7FFC
FFFC
FFFC
FFFC
7FFC
7FF8
3FF0
1FE0
0FC0
0380
0000
0000
0000
0000
0FE0
0FE0
0FE0
0FE0
0FE0
0FE0
0FE0
0FE0
0FE0
1FE0
1FE0
1FE0
1FE0
1FE0
1FE0
1FF0
1FF0
1FF0
3FF0
3FF0
3FF0
3FF8
3FF8
3FF8
7FF8
7FF8
7FF8
7FFC
7FFC
FFFC
FFFC
FFFC
FFFC
FFFC
FFFC
FFFC
7FF8
3FF0
1FE0
0FC0
0780
ENDCHAR
STARTCHAR cent
ENCODING 162
SWIDTH 498 0
DWIDTH 37 0
BBX 34 68 2 -15
BITMAP
0003FC0000
0003FC0000
0003FC0000
0003FC0000
0003FC0000
0003FC0000
0003FC0000
0003FC0000
0003FC0000
0003FC0000
0003FC0000
0003FC0000
0003FC0000
0003FC0000
0003FC0000
0003FF8000
001FFFF000
007FFFF800
00FFFFFC00
03FFFFFE00
07FFFFFF00
07FE0FFF80
0FF803FF80
1FF001FFC0
1FF001FFC0
3FE001FFC0
3FE000FFC0
7FE000FC00
7FC000C000
7FC0000000
7FC0000000
FFC0000000
FFC0000000
FFC0000000
FFC0000000
FFC0000000
FFC0000000
FFC0000000
7FE0000000
7FE0000000
7FE0000000
3FF0000300
3FF0000780
3FF8000FC0
1FFC001FC0
1FFE003F80
0FFF81FF80
07FFFFFF00
03FFFFFE00
01FFFFFC00
00FFFFF800
007FFFF000
001FFFC000
0003FE0000
0003FC0000
0003FC0000
0003FC0000
0003FC0000
0003FC0000
0003FC0000
0003FC0000
0003FC0000
0003FC0000
0003FC0000
0003FC0000
0003FC0000
0003FC0000
0003FC0000
ENDCHAR
STARTCHAR sterling
ENCODING 163
SWIDTH 697 0
DWIDTH 52 0
BBX 50 58 1 -1
BITMAP
00001FF807C000
0001FFFF0FC000
0007FFFFC7E000
001FFFFFF7E000
003FFFFFFFF000
007FFFFFFFF000
00FFFE0FFFF000
00FFF001FFF800
01FFE0007FF800
01FFE0003FFC00
03FFC0000FFC00
03FFC00007FC00
03FFC00003FE00
03FFC00001FE00
03FFC00000FF00
03FFC000007F00
03FFC000007F00
03FFC000003C00
03FFC000000000
01FFE000000000
01FFE000000000
01FFF000000000
00FFF000000000
00FFF800000000
007FF800000000
003FFC00000000
003FFC00000000
001FFE00000000
000FFE00000000
000FFE00000000
03FFFFFFFF8000
03FFFFFFFF8000
03FFFFFFFF8000
03FFFFFFFF8000
03FFFFFFFF8000
03FFFFFFFF8000
03FFFFFFFF8000
0001FF80000000
0001FF80000000
0001FF80000200
0001FF80000700
0003FF80000FC0
0003FF00000FC0
0003FF00001F80
0007FF00003F80
000FFE00007F00
000FFC0000FF00
001FF80001FE00
003FF00007FE00
007FE0001FFC00
01FF8001FFFC00
0FFFFFFFFFF800
FFFFFFFFFFF800
FFFFFFFFFFF000
FFFFFFFFFFF000
FFFFFFFFFFE000
7FFFFFFFFFE000
00000000004000
ENDCHAR
STARTCHAR currency
ENCODING 164
SWIDTH 600 0
DWIDTH 45 0
BBX 39 39 3 5
BITMAP
0C00000060
1E000000F0
3F000001F8
7F800003FC
FFC00007FE
FFE0FE0FFE
7FF7FFDFFC
3FFFFFFFF8
1FFFFFFFF0
0FFFFFFFE0
07FFFFFFC0
03FFFFFF80
01FF83FF00
03FE00FF80
03FC007F80
03F8003F80
07F0001FC0
07F0001FC0
07F0001FC0
07F0001FC0
07F0001FC0
07F0001FC0
07F0001FC0
03F8003F80
03FC007F80
03FE00FF80
01FF83FF00
03FFFFFF80
07FFFFFFC0
0FFFFFFFE0
1FFFFFFFF0
3FFFFFFFF8
7FF7FFDFFC
FFE0FE0FFE
FFC00007FE
7F800003FC
3F000001F8
1E000000F0
0C00000060
ENDCHAR
STARTCHAR yen
ENCODING 165
SWIDTH 794 0
DWIDTH 60 0
BBX 58 57 1 0
BITMAP
FFFFFFF007FFFFC0
FFFFFFF007FFFFC0
FFFFFFF007FFFFC0
FFFFFFF007FFFFC0
FFFFFFF007FFFFC0
1FFFFF0000FFFC00
07FFFC00007FF000
03FFFC00007FE000
01FFFC00007FC000
01FFFC00007F8000
00FFFC00007F0000
007FFE0000FF0000
003FFE0000FE0000
003FFF0001FE0000
001FFF0003FC0000
000FFF8003F80000
000FFFC007F80000
0007FFC007F00000
0003FFE00FF00000
0003FFF00FE00000
0001FFF01FC00000
0000FFF83FC00000
07FFFFF83FFFF000
07FFFFFC7FFFF000
07FFFFFE7FFFF000
07FFFFFEFFFFF000
07FFFFFFFFFFF000
07FFFFFFFFFFF000
07FFFFFFFFFFF000
000007FFF8000000
000003FFF8000000
000003FFF0000000
000001FFF0000000
000001FFE0000000
000001FFE0000000
07FFFFFFFFFFF000
07FFFFFFFFFFF000
07FFFFFFFFFFF000
07FFFFFFFFFFF000
07FFFFFFFFFFF000
07FFFFFFFFFFF000
07FFFFFFFFFFF000
000001FFE0000000
000001FFE0000000
000001FFE0000000
000001FFE0000000
000001FFE0000000
000001FFF0000000
000001FFF0000000
000001FFF0000000
000003FFF8000000
000007FFFC000000
00007FFFFFC00000
00007FFFFFC00000
00007FFFFFC00000
00007FFFFFC00000
00007FFFFFC00000
ENDCHAR
STARTCHAR brokenbar
ENCODING 166
SWIDTH 600 0
DWIDTH 45 0
BBX 7 70 19 -11
BITMAP
FE
FE
FE
FE
FE
FE
FE
FE
FE
FE
FE
FE
FE
FE
FE
FE
FE
FE
FE
FE
FE
FE
FE
FE
FE
FE
FE
00
00
00
00
00
00
00
00
00
00
00
00
00
00
00
00
FE
FE
FE
FE
FE
FE
FE
FE
FE
FE
FE
FE
FE
FE
FE
FE
FE
FE
FE
FE
FE
FE
FE
FE
FE
FE
FE
ENDCHAR
STARTCHAR section
ENCODING 167
SWIDTH 788 0
DWIDTH 59 0
BBX 51 82 4 -18
BITMAP
00000000038000
00007FF807C000
0007FFFF07E000
001FFFFFC7E000
003FFFFFF7F000
00FFFFFFFFF000
01FFFFFFFFF000
03FFF80FFFF800
03FFE001FFF800
07FF80007FF800
07FF80003FFC00
07FF00000FFC00
0FFF000007FE00
0FFF000003FE00
0FFF000001FE00
0FFF800000FF00
0FFF8000007F00
0FFFC000003E00
07FFE000001800
07FFF800000000
07FFFE00000000
03FFFF80000000
03FFFFF0000000
01FFFFFE000000
00FFFFFFC00000
007FFFFFF80000
003FFFFFFF0000
001FFFFFFFC000
003FFFFFFFF000
00FFFFFFFFF800
01FFFFFFFFFC00
03FFFFFFFFFE00
03FFC7FFFFFF00
07FF80FFFFFF80
07FF800FFFFFC0
07FF0001FFFFC0
0FFF00003FFFE0
0FFF00000FFFE0
0FFF000007FFE0
0FFF800003FFE0
0FFF800001FFE0
07FFC00000FFE0
07FFE00000FFE0
07FFF80000FFE0
07FFFE0000FFE0
03FFFFC000FFE0
01FFFFF800FFC0
01FFFFFF81FFC0
00FFFFFFF1FFC0
007FFFFFFFFF80
001FFFFFFFFF00
000FFFFFFFFF00
0003FFFFFFFE00
0001FFFFFFFC00
00003FFFFFFE00
00000FFFFFFF00
000001FFFFFF80
0000001FFFFF80
00000003FFFFC0
000000007FFFC0
1C0000001FFFE0
7E00000007FFE0
FE00000003FFE0
FF00000001FFE0
FF80000001FFE0
7FC0000000FFE0
7FE0000000FFE0
3FF0000000FFE0
3FF8000000FFE0
1FFC000000FFE0
0FFE000000FFC0
0FFF000001FFC0
07FFC00001FF80
07FFF00003FF80
03FFFC000FFF00
03FFFFC07FFE00
01FFFFFFFFFC00
01FFFFFFFFF800
00FFFFFFFFF000
00FF3FFFFFC000
007F0FFFFE0000
003F00FFE00000
ENDCHAR
STARTCHAR dieresis
ENCODING 168
SWIDTH 600 0
DWIDTH 45 0
BBX 29 11 8 45
BITMAP
0F000780
1F800FE0
3FC01FF0
7FE03FF0
FFE03FF8
FFF03FF8
FFE03FF8
7FE03FF0
3FC01FF0
1F800FE0
0F000780
ENDCHAR
STARTCHAR copyright
ENCODING 169
SWIDTH 788 0
DWIDTH 59 0
BBX 57 57 1 -1
BITMAP
000001FFC0000000
00001FFFFC000000
00007FFFFF000000
0001FFFFFFC00000
0007FFFFFFF00000
000FFF007FF80000
003FF00007FE0000
007FC00001FF0000
00FF0000007F8000
01FE0000003FC000
03FC0000001FE000
03F80000000FE000
07F0007F8007F000
0FE003FFE003F800
0FC007FFF801F800
1F801FFFFC00FC00
1F801FFFFE00FC00
3F003F83FE007E00
3F007F01FF003E00
3E00FE00FF003F00
7E00FE00FF003F00
7C00FE00FF001F00
7C01FC00F8001F00
7C01FC0080001F80
FC01FC0000001F80
FC01FC0000000F80
F801FC0000000F80
F801FC0000000F80
F801FC0000000F80
F801FC0000000F80
F801FC0000000F80
FC01FC0000000F80
FC01FE0000001F80
7C00FE0004001F80
7C00FF000E001F00
7C007F000F001F00
7E007F803E003F00
3E003FE0FE003F00
3F001FFFFC003E00
3F000FFFF8007E00
1F8007FFF000FC00
1F8003FFC000FC00
0FC000FF0001F800
0FE000000003F800
07F000000003F000
03F800000007E000
03FC0000001FE000
01FE0000003FC000
00FF0000007F8000
007FC00001FF0000
003FF00007FE0000
000FFF007FF80000
0007FFFFFFF00000
0001FFFFFFC00000
00007FFFFF000000
00001FFFFC000000
000001FFC0000000
ENDCHAR
STARTCHAR ordfeminine
ENCODING 170
SWIDTH 518 0
DWIDTH 39 0
BBX 36 33 2 24
BITMAP
001FE00200
00FFFC0600
03FFFE1E00
07FFFFFE00
0FF83FFE00
1FE00FFE00
1FC007FE00
3FC003FE00
3F8003FE00
7F8003FE00
7F8001FE00
7F0001FE00
7F0001FE00
FF0001FE00
FF0001FE00
FF0001FE00
FF0001FE00
FF0001FE00
FF0001FE00
FF8001FE00
7F8001FE00
7F8001FE00
7FC001FE00
7FC001FF00
3FE003FF00
3FE003FF00
1FF007FFC0
1FFC1FFFF0
0FFFFFFFF0
07FFFDFFF0
03FFF9FFF0
00FFF1F000
001FC10000
ENDCHAR
STARTCHAR guillemotleft
ENCODING 171
SWIDTH 656 0
DWIDTH 49 0
BBX 38 33 6 8
BITMAP
0001800030
0003C00078
0007E000FC
000FE001FC
001FC003F8
003F8007F0
007F800FF0
00FF001FE0
01FE003FC0
03FC007F80
07FC00FF80
0FF801FF00
1FF003FE00
3FE007FC00
7FE00FFC00
7FC01FF800
FF801FF000
7FC01FF800
7FC00FF800
3FE007FC00
1FF003FE00
0FF801FF00
07FC00FF00
03FC007F80
01FE003FC0
00FF001FE0
007F800FF0
003F8007F0
001FC003F8
000FE001FC
0007E000FC
0003C00078
0001800030
ENDCHAR
STARTCHAR logicalnot
ENCODING 172
SWIDTH 600 0
DWIDTH 45 0
BBX 41 24 2 0
BITMAP
7FFFFFFFFF00
FFFFFFFFFF80
FFFFFFFFFF80
FFFFFFFFFF80
FFFFFFFFFF80
FFFFFFFFFF80
7FFFFFFFFF80
000000007F80
000000007F80
000000007F80
000000007F80
000000007F80
000000007F80
000000007F80
000000007F80
000000007F80
000000007F80
000000007F80
000000007F80
000000007F80
000000007F80
000000007F80
000000007F80
000000007F00
ENDCHAR
STARTCHAR registered
ENCODING 174
SWIDTH 788 0
DWIDTH 59 0
BBX 57 57 1 -1
BITMAP
000001FFC0000000
00001FFFFC000000
00007FFFFF000000
0001FFFFFFC00000
0007FFFFFFF00000
000FFF007FF80000
003FF00007FE0000
007FC00001FF0000
00FF0000007F8000
01FE0000003FC000
03FC0000001FE000
03F80000000FE000
07F000000007F000
0FE1FFFFC003F800
0FC1FFFFF801F800
1F81FFFFFC00FC00
1F807FFFFE00FC00
3F003F81FE007E00
3F003F807F003E00
3E003F807F003F00
7E003F803F003F00
7C003F803F001F00
7C003F803F001F00
7C003F803F001F80
FC003F807F001F80
FC003F80FE000F80
F8003F81FE000F80
F8003FFFFC000F80
F8003FFFF0000F80
F8003FFFF0000F80
F8003F83F8000F80
FC003F81F8000F80
FC003F81FC001F80
7C003F80FC001F80
7C003F80FE001F00
7C003F807F001F00
7E003F807F003F00
3E003F803F803F00
3F003FC07FC03E00
3F01FFF1FFF07E00
1F81FFF1FFF8FC00
1F81FFF1FFF8FC00
0FC000000001F800
0FE000000003F800
07F000000003F000
03F800000007E000
03FC0000001FE000
01FE0000003FC000
00FF0000007F8000
007FC00001FF0000
003FF00007FE0000
000FFF007FF80000
0007FFFFFFF00000
0001FFFFFFC00000
00007FFFFF000000
00001FFFFC000000
000001FFC0000000
ENDCHAR
STARTCHAR macron
ENCODING 175
SWIDTH 600 0
DWIDTH 45 0
BBX 22 7 11 47
BITMAP
FFFFFC
FFFFFC
FFFFFC
FFFFFC
FFFFFC
FFFFFC
FFFFFC
ENDCHAR
STARTCHAR degree
ENCODING 176
SWIDTH 355 0
DWIDTH 27 0
BBX 21 19 3 40
BITMAP
01FC00
07FF00
1FFFC0
3FFFE0
7FFFE0
7F0FF0
FE03F0
FC03F0
FC01F8
FC01F8
FC01F8
FC03F0
FE03F0
7F0FF0
7FFFE0
3FFFE0
1FFFC0
07FF00
01FC00
ENDCHAR
STARTCHAR plusminus
ENCODING 177
SWIDTH 600 0
DWIDTH 45 0
BBX 41 46 2 0
BITMAP
00007F000000
00007F000000
00007F000000
00007F000000
00007F000000
00007F000000
00007F000000
00007F000000
00007F000000
00007F000000
00007F000000
00007F000000
00007F000000
00007F000000
7FFFFFFFFF00
7FFFFFFFFF00
7FFFFFFFFF00
7FFFFFFFFF00
7FFFFFFFFF00
7FFFFFFFFF00
7FFFFFFFFF00
00007F000000
00007F000000
00007F000000
00007F000000
00007F000000
00007F000000
00007F000000
00007F000000
00007F000000
00007F000000
00007F000000
00007F000000
00007F000000
00007F000000
000000000000
000000000000
000000000000
000000000000
7FFFFFFFFF00
FFFFFFFFFF80
FFFFFFFFFF80
FFFFFFFFFF80
FFFFFFFFFF80
FFFFFFFFFF80
7FFFFFFFFF00
ENDCHAR
STARTCHAR uni00B2
ENCODING 178
SWIDTH 411 0
DWIDTH 31 0
BBX 28 33 2 28
BITMAP
00FF8000
07FFF000
0FFFFC00
3FC3FE00
3F01FE00
7F00FF00
7F00FF00
7F00FF00
7F00FF00
7F00FF00
3F80FF00
0381FF00
0001FE00
0003FE00
0007FC00
000FF800
001FF000
003FE000
007F8000
00FF0000
01FC0000
07F80000
0FE00000
1FC00060
1F8000F0
3F0001F0
7E000FE0
FFFFFFE0
FFFFFFC0
FFFFFFC0
FFFFFF80
FFFFFF00
00000100
ENDCHAR
STARTCHAR uni00B3
ENCODING 179
SWIDTH 383 0
DWIDTH 29 0
BBX 25 32 1 29
BITMAP
00FF8000
07FFF000
1FFFFC00
3FC3FE00
7F01FE00
7F00FF00
7E00FF00
FF00FF00
7F00FF00
7F00FF00
0F81FF00
0003FE00
000FFC00
003FF000
01FFC000
07FFF800
07FFFE00
03FFFF00
0301FF80
0000FF80
0000FF80
00007F80
00007F80
00007F80
0000FF80
0000FF80
C001FF00
780FFE00
7FFFFC00
7FFFF800
7FFFE000
07FE0000
ENDCHAR
STARTCHAR acute
ENCODING 180
SWIDTH 600 0
DWIDTH 45 0
BBX 16 17 14 42
BITMAP
0020
00FE
00FF
01FF
01FF
03FF
03FF
07FE
07FE
0FFC
0FFC
1FF8
3FE0
7FC0
7F80
FE00
3800
ENDCHAR
STARTCHAR uni00B5
ENCODING 181
SWIDTH 600 0
DWIDTH 45 0
BBX 41 53 2 -15
BITMAP
FFC03FFFF000
FFE03FFFF000
FFE03FFFF000
FFE03FFFF000
FFE01FFFF000
FFE003FFF000
FFE001FFF000
FFE000FFF000
FFE000FFF000
FFE0007FF000
FFE0007FF000
FFE0007FF000
FFE0007FF000
FFE0007FF000
FFE0007FF000
FFE0007FF000
FFE0007FF000
FFE0007FF000
FFE0007FF000
FFE0007FF000
FFE0007FF000
FFE0007FF000
FFE0007FF000
FFE0007FF000
FFE0007FF000
FFE0007FF000
FFE0007FF000
FFE0007FF000
FFE000FFF000
FFE001FFF800
FFE003FFFC00
FFF00FBFFF00
FFFC3FBFFF80
FFFFFF3FFF80
FFFFFE3FFF80
FFFFFC3FFF80
FFFFF87FE000
FFFFE07C0000
FFFF00600000
FFE000000000
FFE000000000
FFE000000000
FFE000000000
FFE000000000
FFE000000000
FFE000000000
FFE000000000
FFE000000000
FFE000000000
FFE000000000
FFE000000000
FFE000000000
FFC000000000
ENDCHAR
STARTCHAR paragraph
ENCODING 182
SWIDTH 600 0
DWIDTH 45 0
BBX 37 63 4 -9
BITMAP
003FFFFFF8
01FFFFFFF8
07FFFFFFF8
0FFFFFFFF8
1FFFFFFFF8
3FFFF07F80
3FFFF07F00
7FFFF07F00
7FFFF07E00
FFFFF07E00
FFFFF07E00
FFFFF07E00
FFFFF07E00
FFFFF07E00
FFFFF07E00
FFFFF07E00
7FFFF07E00
7FFFF07E00
7FFFF07E00
3FFFF07E00
1FFFF07E00
0FFFF07E00
07FFF07E00
03FFF07E00
001FF07E00
0003F07E00
0003F07E00
0003F07E00
0003F07E00
0003F07E00
0003F07E00
0003F07E00
0003F07E00
0003F07E00
0003F07E00
0003F07E00
0003F07E00
0003F07E00
0003F07E00
0003F07E00
0003F07E00
0003F07E00
0003F07E00
0003F07E00
0003F07E00
0003F07E00
0003F07E00
0003F07E00
0003F07E00
0003F07E00
0003F07E00
0003F07E00
0003F07E00
0003F07E00
0003F07E00
0003F07E00
0003F07E00
0003F07E00
0003F07E00
0003F07E00
0003F07E00
0003F07E00
0003F07E00
ENDCHAR
STARTCHAR periodcentered
ENCODING 183
SWIDTH 233 0
DWIDTH 17 0
BBX 15 15 1 20
BITMAP
0380
07E0
0FF0
1FF8
3FFC
7FFC
7FFE
FFFE
7FFE
7FFC
3FFC
1FF8
0FF0
07E0
0380
ENDCHAR
STARTCHAR cedilla
ENCODING 184
SWIDTH 600 0
DWIDTH 45 0
BBX 19 22 10 -19
BITMAP
01F800
03F000
07F000
07E000
0FC000
0F8000
1F0000
3EFC00
3FFF00
7FFF80
7FFFC0
007FE0
001FE0
000FE0
000FE0
001FE0
F01FE0
7FFFE0
7FFFC0
7FFF80
3FFF00
07F800
ENDCHAR
STARTCHAR uni00B9
ENCODING 185
SWIDTH 301 0
DWIDTH 23 0
BBX 20 32 1 29
BITMAP
000080
0007C0
007FC0
FFFFC0
FFFF80
FFFE00
0FFC00
07FC00
03FC00
03FC00
03FC00
03FC00
03FC00
03FC00
03FC00
03FC00
03FC00
03FC00
03FC00
03FC00
03FC00
03FC00
03FC00
03FC00
03FC00
03FC00
03FE00
07FE00
07FF00
FFFFF0
FFFFF0
FFFFF0
ENDCHAR
STARTCHAR ordmasculine
ENCODING 186
SWIDTH 458 0
DWIDTH 34 0
BBX 32 33 2 24
BITMAP
000FF000
007FFE00
00FFFF80
03FFFFC0
07FFFFE0
0FF0FFF0
1FC03FF8
1F801FF8
3F800FFC
3F0007FE
7F0003FE
7F0003FE
7F0001FF
7F0001FF
7F0000FF
FF0000FF
FF0000FF
7F8000FF
7F80007F
7FC0007F
7FC0007F
7FE0007F
3FE0007E
3FF0007E
1FF800FE
1FF800FC
0FFE01F8
07FF07F0
03FFFFF0
01FFFFC0
00FFFF80
003FFE00
0007F800
ENDCHAR
STARTCHAR guillemotright
ENCODING 187
SWIDTH 656 0
DWIDTH 49 0
BBX 38 33 5 8
BITMAP
1000020000
3800070000
7C000F8000
FE001FC000
7F000FE000
3F8007F000
1FC003F800
1FE003FC00
0FF001FE00
07F800FF00
03FC007F80
03FE007FC0
01FF003FE0
00FF801FF0
007FC00FF8
007FE00FFC
003FE007FC
003FE00FFC
007FC00FF8
00FF801FF0
01FF003FE0
03FE007FC0
03FC007F80
07F800FF00
0FF001FE00
1FE003FC00
1FC003F800
3F8007F000
7F000FE000
FE001FC000
7C001F8000
38000F0000
1000020000
ENDCHAR
STARTCHAR onequarter
ENCODING 188
SWIDTH 800 0
DWIDTH 60 0
BBX 55 73 2 -10
BITMAP
0000C000000000
0007C000000000
007FC000000000
FFFFC000000000
FFFF8000000000
FFFE0000000000
FFFE0000000000
0FFC0000001F00
07FC0000003F00
03FC0000007E00
03FC0000007C00
03FC000000FC00
03FC000001F800
03FC000003F000
03FC000003E000
03FC000007E000
03FC00000FC000
03FC00001F8000
03FC00001F0000
03FC00003F0000
03FC00007E0000
03FC0000FC0000
03FC0000F80000
03FC0001F80000
03FC0003F00000
03FC0007E00000
03FE0007C00000
03FE000FC00000
03FE001F800000
07FF003F000000
FFFFF83E000000
FFFFF87E000000
FFFFF8FC000000
000001F83E0000
000001F01FE000
000003E01FF800
000007E00FF800
00000FC00FF800
00000F800FF800
00001F000FF800
00003F000FF000
00007E000FF000
00007C001FE000
0000F8001FE000
0001F8003FC000
0003F0003FC000
0003E0007F8000
0007C0007F0000
000FC000FF0000
001F8001FE0000
003F0003FC0000
003E0007F80600
007E0007F07E00
00FC000FE07E00
01F8001FC07E00
01F0003FC07E00
03F0007F807E00
07E0007F007E00
0FC000FE007E00
0F8000FFFFFFFC
1F8000FFFFFFFE
3F0000FFFFFFFE
7E0000FFFFFFFE
7C0000FFFFFFFE
00000000007E00
00000000007E00
00000000007E00
00000000007E00
00000000007E00
00000000007E00
00000000007E00
00000000007E00
00000000007E00
ENDCHAR
STARTCHAR onehalf
ENCODING 189
SWIDTH 800 0
DWIDTH 60 0
BBX 57 64 2 -1
BITMAP
0000C00000000000
0007C00000000000
007FC00000000000
FFFFC00000000000
FFFF800000000000
FFFE000000000000
FFFE000000000000
0FFC0000001F0000
07FC0000003F0000
03FC0000007E0000
03FC0000007C0000
03FC000000FC0000
03FC000001F80000
03FC000003F00000
03FC000003E00000
03FC000007E00000
03FC00000FC00000
03FC00001F800000
03FC00001F000000
03FC00003F000000
03FC00007E000000
03FC0000FC000000
03FC0000F8000000
03FC0001F8000000
03FC0003F0000000
03FC0007E0000000
03FE0007C0000000
03FE000FC0000000
03FE001F80000000
07FF003F00000000
FFFFF83E00000000
FFFFF87E00000000
FFFFF8FC07FC0000
000001F83FFF8000
000001F0FFFFC000
000003E1FC1FE000
000007E3F80FF000
00000FC3F00FF000
00001F87F007F800
00001F07F007F800
00003F07F007F800
00007E03F807F800
0000FC03F80FF800
0000F8003C0FF000
0001F800001FF000
0003F000003FE000
0007E000007FC000
0007C00000FF8000
000FC00001FF0000
001F800003FC0000
003F000007F80000
003E00000FE00000
007E00003FC00000
00FC00007F000000
01F80000FE000600
01F00001FC000780
03F00003F0001F80
07E00003F000FF00
0FC00007FFFFFE00
0F80000FFFFFFE00
1F80000FFFFFFC00
3F00000FFFFFF800
7E00000FFFFFF800
7C00000000001000
ENDCHAR
STARTCHAR threequarters
ENCODING 190
SWIDTH 800 0
DWIDTH 60 0
BBX 56 70 1 -9
BITMAP
00FF8000000000
07FFF000000000
1FFFFC00000000
3FC3FE00000000
7F01FE00000000
7F00FF00000700
7E00FF00000F80
FF00FF00001F00
7F00FF00003F00
7F00FF00007E00
0F81FF0000FC00
0003FE0000F800
000FFC0001F800
003FF00003F000
01FFC00007E000
07FFF80007C000
07FFFE000FC000
03FFFF001F8000
0301FF803F0000
0000FF803E0000
0000FF807E0000
00007F80FC0000
00007F81F80000
00007F81F00000
0000FF83F00000
0000FF87E00000
C001FF0FC00000
780FFE0F800000
7FFFFC1F000000
7FFFF83F000000
7FFFE07E1F0000
07FE00FC0FF000
000000F80FFC00
000001F807FC00
000003F007FC00
000007E007FC00
000007C007FC00
00000FC007F800
00001F8007F800
00003F000FF000
00003E000FF000
00007E001FE000
0000FC001FE000
0001F8003FC000
0001F0003F8000
0003E0007F8000
0007E000FF0000
000FC001FE0000
000F8003FC0300
001F0003F83F00
003F0007F03F00
007E000FE03F00
00FC001FE03F00
00F8001FC03F00
01F8003F803F00
03F0007F003F00
07E0007FFFFFFF
07C0007FFFFFFF
0FC0007FFFFFFF
1F80007FFFFFFF
3F00007FFFFFFF
3E000000003F00
00000000003F00
00000000003F00
00000000003F00
00000000003F00
00000000003F00
00000000003F00
00000000003F00
00000000003F00
ENDCHAR
STARTCHAR questiondown
ENCODING 191
SWIDTH 550 0
DWIDTH 41 0
BBX 35 60 4 -19
BITMAP
00000F0000
00001F8000
00003FC000
00007FE000
0000FFF000
0001FFF800
0001FFF800
0001FFF800
0001FFF800
0001FFF800
0000FFF000
00007FE000
00003FC000
00001F8000
00000F0000
0000000000
0000000000
0000000000
0000000000
00001F8000
00001FC000
00001FC000
00001FC000
00001FC000
00003FC000
00003FC000
00007F8000
0000FF8000
0001FF8000
0007FF0000
000FFE0000
003FFC0000
00FFF80000
01FFE00000
03FFC00000
07FF800000
0FFF000000
1FFE000000
3FFC000000
3FF8000100
7FF8000F80
7FF0007FC0
7FF000FFC0
7FF000FFE0
7FF0007FE0
FFF0007FE0
FFF0007FE0
7FF0007FE0
7FF0007FE0
7FF0007FE0
7FF8007FC0
3FF800FFC0
3FFE01FFC0
1FFF87FF80
0FFFFFFF00
07FFFFFE00
03FFFFFC00
00FFFFF800
003FFFE000
0007FF0000
ENDCHAR
STARTCHAR Agrave
ENCODING 192
SWIDTH 786 0
DWIDTH 59 0
BBX 59 78 0 0
BITMAP
000007C000000000
00000FE000000000
00001FF000000000
00001FF000000000
00001FF000000000
00001FF800000000
00001FF800000000
00000FFC00000000
00000FFE00000000
000007FE00000000
000003FF00000000
000001FF80000000
000000FF80000000
0000003FC0000000
0000000FE0000000
0000000380000000
0000000000000000
0000000000000000
0000000000000000
0000000000000000
0000000000000000
000000FFE0000000
000001FFE0000000
000001FFF0000000
000003FFF0000000
000003FFF0000000
000003FFF8000000
000007FFF8000000
000007FFF8000000
000007FFFC000000
00000FFFFC000000
00000FFFFE000000
00001FFFFE000000
00001FCFFE000000
00001FCFFF000000
00003F87FF000000
00003F87FF800000
00003F87FF800000
00007F03FF800000
00007F03FFC00000
00007F03FFC00000
0000FE01FFC00000
0000FE01FFE00000
0001FE00FFE00000
0001FC00FFF00000
0001FC00FFF00000
0003FC007FF00000
0003F8007FF80000
0003F8007FF80000
0007F8003FFC0000
0007F0003FFC0000
000FF0001FFC0000
000FE0001FFE0000
000FFFFFFFFE0000
001FFFFFFFFE0000
001FFFFFFFFF0000
001FFFFFFFFF0000
003FFFFFFFFF8000
003FFFFFFFFF8000
003F800003FF8000
007F000003FFC000
007F000003FFC000
00FF000001FFE000
00FE000001FFE000
00FE000001FFE000
01FE000000FFF000
01FE000000FFF000
01FC000000FFF000
03FC000000FFF800
03FE000000FFF800
07FE000001FFFC00
07FF000003FFFC00
1FFFC00007FFFF00
7FFFF8007FFFFFC0
FFFFF8007FFFFFE0
FFFFF8007FFFFFE0
FFFFF8007FFFFFE0
7FFFF8007FFFFFC0
ENDCHAR
STARTCHAR Aacute
ENCODING 193
SWIDTH 786 0
DWIDTH 59 0
BBX 59 78 0 0
BITMAP
0000000020000000
00000000FC000000
00000001FE000000
00000001FF000000
00000001FF000000
00000003FF000000
00000003FF000000
00000007FE000000
00000007FE000000
0000000FFC000000
0000001FF8000000
0000001FF0000000
0000003FE0000000
0000007FC0000000
000000FF00000000
000000FE00000000
0000003800000000
0000000000000000
0000000000000000
0000000000000000
0000000000000000
000000FFE0000000
000001FFE0000000
000001FFF0000000
000003FFF0000000
000003FFF0000000
000003FFF8000000
000007FFF8000000
000007FFF8000000
000007FFFC000000
00000FFFFC000000
00000FFFFE000000
00001FFFFE000000
00001FCFFE000000
00001FCFFF000000
00003F87FF000000
00003F87FF800000
00003F87FF800000
00007F03FF800000
00007F03FFC00000
00007F03FFC00000
0000FE01FFC00000
0000FE01FFE00000
0001FE00FFE00000
0001FC00FFF00000
0001FC00FFF00000
0003FC007FF00000
0003F8007FF80000
0003F8007FF80000
0007F8003FFC0000
0007F0003FFC0000
000FF0001FFC0000
000FE0001FFE0000
000FFFFFFFFE0000
001FFFFFFFFE0000
001FFFFFFFFF0000
001FFFFFFFFF0000
003FFFFFFFFF8000
003FFFFFFFFF8000
003F800003FF8000
007F000003FFC000
007F000003FFC000
00FF000001FFE000
00FE000001FFE000
00FE000001FFE000
01FE000000FFF000
01FE000000FFF000
01FC000000FFF000
03FC000000FFF800
03FE000000FFF800
07FE000001FFFC00
07FF000003FFFC00
1FFFC00007FFFF00
7FFFF8007FFFFFC0
FFFFF8007FFFFFE0
FFFFF8007FFFFFE0
FFFFF8007FFFFFE0
7FFFF8007FFFFFC0
ENDCHAR
STARTCHAR Acircumflex
ENCODING 194
SWIDTH 786 0
DWIDTH 59 0
BBX 59 77 0 0
BITMAP
0000000C00000000
0000001E00000000
0000003F80000000
000000FFC0000000
000001FFF0000000
000007FFF8000000
00001FFFFE000000
0000FFFFFFC00000
0001FFF3FFE00000
0001FFF3FFF00000
0001FFE1FFF00000
0001FFC0FFF00000
0001FF807FE00000
0001FF003FE00000
0000FE001FE00000
0000F80007C00000
0000000000000000
0000000000000000
0000000000000000
0000000000000000
000000FFE0000000
000001FFE0000000
000001FFF0000000
000003FFF0000000
000003FFF0000000
000003FFF8000000
000007FFF8000000
000007FFF8000000
000007FFFC000000
00000FFFFC000000
00000FFFFE000000
00001FFFFE000000
00001FCFFE000000
00001FCFFF000000
00003F87FF000000
00003F87FF800000
00003F87FF800000
00007F03FF800000
00007F03FFC00000
00007F03FFC00000
0000FE01FFC00000
0000FE01FFE00000
0001FE00FFE00000
0001FC00FFF00000
0001FC00FFF00000
0003FC007FF00000
0003F8007FF80000
0003F8007FF80000
0007F8003FFC0000
0007F0003FFC0000
000FF0001FFC0000
000FE0001FFE0000
000FFFFFFFFE0000
001FFFFFFFFE0000
001FFFFFFFFF0000
001FFFFFFFFF0000
003FFFFFFFFF8000
003FFFFFFFFF8000
003F800003FF8000
007F000003FFC000
007F000003FFC000
00FF000001FFE000
00FE000001FFE000
00FE000001FFE000
01FE000000FFF000
01FE000000FFF000
01FC000000FFF000
03FC000000FFF800
03FE000000FFF800
07FE000001FFFC00
07FF000003FFFC00
1FFFC00007FFFF00
7FFFF8007FFFFFC0
FFFFF8007FFFFFE0
FFFFF8007FFFFFE0
FFFFF8007FFFFFE0
7FFFF8007FFFFFC0
ENDCHAR
STARTCHAR Atilde
ENCODING 195
SWIDTH 786 0
DWIDTH 59 0
BBX 59 76 0 0
BITMAP
000007E00F000000
00001FF01F800000
00003FFC3F800000
00007FFC1FC00000
00007FFE1FC00000
0000FFFF1FC00000
0000FE7F1FC00000
0000FE3F9FC00000
0000FE1FFFC00000
0000FE1FFFC00000
0000FE0FFF800000
00007F07FF000000
00003E03FE000000
00001C00FC000000
0000000000000000
0000000000000000
0000000000000000
0000000000000000
0000000000000000
000000FFE0000000
000001FFE0000000
000001FFF0000000
000003FFF0000000
000003FFF0000000
000003FFF8000000
000007FFF8000000
000007FFF8000000
000007FFFC000000
00000FFFFC000000
00000FFFFE000000
00001FFFFE000000
00001FCFFE000000
00001FCFFF000000
00003F87FF000000
00003F87FF800000
00003F87FF800000
00007F03FF800000
00007F03FFC00000
00007F03FFC00000
0000FE01FFC00000
0000FE01FFE00000
0001FE00FFE00000
0001FC00FFF00000
0001FC00FFF00000
0003FC007FF00000
0003F8007FF80000
0003F8007FF80000
0007F8003FFC0000
0007F0003FFC0000
000FF0001FFC0000
000FE0001FFE0000
000FFFFFFFFE0000
001FFFFFFFFE0000
001FFFFFFFFF0000
001FFFFFFFFF0000
003FFFFFFFFF8000
003FFFFFFFFF8000
003F800003FF8000
007F000003FFC000
007F000003FFC000
00FF000001FFE000
00FE000001FFE000
00FE000001FFE000
01FE000000FFF000
01FE000000FFF000
01FC000000FFF000
03FC000000FFF800
03FE000000FFF800
07FE000001FFFC00
07FF000003FFFC00
1FFFC00007FFFF00
7FFFF8007FFFFFC0
FFFFF8007FFFFFE0
FFFFF8007FFFFFE0
FFFFF8007FFFFFE0
7FFFF8007FFFFFC0
ENDCHAR
STARTCHAR Adieresis
ENCODING 196
SWIDTH 786 0
DWIDTH 59 0
BBX 59 75 0 0
BITMAP
00003C000F000000
00007F003F800000
0000FF807FC00000
0001FF807FE00000
0001FFC0FFE00000
0001FFC0FFF00000
0001FFC0FFE00000
0001FF807FE00000
0000FF807FC00000
00007F003F800000
00003C000F000000
0000000000000000
0000000000000000
0000000000000000
0000000000000000
0000000000000000
0000000000000000
0000000000000000
000000FFE0000000
000001FFE0000000
000001FFF0000000
000003FFF0000000
000003FFF0000000
000003FFF8000000
000007FFF8000000
000007FFF8000000
000007FFFC000000
00000FFFFC000000
00000FFFFE000000
00001FFFFE000000
00001FCFFE000000
00001FCFFF000000
00003F87FF000000
00003F87FF800000
00003F87FF800000
00007F03FF800000
00007F03FFC00000
00007F03FFC00000
0000FE01FFC00000
0000FE01FFE00000
0001FE00FFE00000
0001FC00FFF00000
0001FC00FFF00000
0003FC007FF00000
0003F8007FF80000
0003F8007FF80000
0007F8003FFC0000
0007F0003FFC0000
000FF0001FFC0000
000FE0001FFE0000
000FFFFFFFFE0000
001FFFFFFFFE0000
001FFFFFFFFF0000
001FFFFFFFFF0000
003FFFFFFFFF8000
003FFFFFFFFF8000
003F800003FF8000
007F000003FFC000
007F000003FFC000
00FF000001FFE000
00FE000001FFE000
00FE000001FFE000
01FE000000FFF000
01FE000000FFF000
01FC000000FFF000
03FC000000FFF800
03FE000000FFF800
07FE000001FFFC00
07FF000003FFFC00
1FFFC00007FFFF00
7FFFF8007FFFFFC0
FFFFF8007FFFFFE0
FFFFF8007FFFFFE0
FFFFF8007FFFFFE0
7FFFF8007FFFFFC0
ENDCHAR
STARTCHAR Aring
ENCODING 197
SWIDTH 786 0
DWIDTH 59 0
BBX 59 81 0 0
BITMAP
0000003F80000000
000000FFE0000000
000003FFF0000000
000007FFF8000000
000007FFFC000000
00000FE1FC000000
00000FC07E000000
00001F807E000000
00001F803E000000
00001F803F000000
00001F803F000000
00001F803E000000
00001F807E000000
00000FC07E000000
00000FE1FE000000
000007FFFC000000
000007FFF8000000
000003FFF0000000
000000FFE0000000
0000003F00000000
0000000000000000
0000000000000000
0000000000000000
0000000000000000
000000FFE0000000
000001FFE0000000
000001FFF0000000
000003FFF0000000
000003FFF0000000
000003FFF8000000
000007FFF8000000
000007FFF8000000
000007FFFC000000
00000FFFFC000000
00000FFFFE000000
00001FFFFE000000
00001FCFFE000000
00001FCFFF000000
00003F87FF000000
00003F87FF800000
00003F87FF800000
00007F03FF800000
00007F03FFC00000
00007F03FFC00000
0000FE01FFC00000
0000FE01FFE00000
0001FE00FFE00000
0001FC00FFF00000
0001FC00FFF00000
0003FC007FF00000
0003F8007FF80000
0003F8007FF80000
0007F8003FFC0000
0007F0003FFC0000
000FF0001FFC0000
000FE0001FFE0000
000FFFFFFFFE0000
001FFFFFFFFE0000
001FFFFFFFFF0000
001FFFFFFFFF0000
003FFFFFFFFF8000
003FFFFFFFFF8000
003F800003FF8000
007F000003FFC000
007F000003FFC000
00FF000001FFE000
00FE000001FFE000
00FE000001FFE000
01FE000000FFF000
01FE000000FFF000
01FC000000FFF000
03FC000000FFF800
03FE000000FFF800
07FE000001FFFC00
07FF000003FFFC00
1FFFC00007FFFF00
7FFFF8007FFFFFC0
FFFFF8007FFFFFE0
FFFFF8007FFFFFE0
FFFFF8007FFFFFE0
7FFFF8007FFFFFC0
ENDCHAR
STARTCHAR AE
ENCODING 198
SWIDTH 1172 0
DWIDTH 88 0
BBX 86 59 0 -1
BITMAP
0000000000000000003000
0000000FFFFFFFFFFFF000
0000000FFFFFFFFFFFF800
0000000FFFFFFFFFFFF800
0000000FFFFFFFFFFFFC00
00000001FFFFFFFFFFFE00
00000000FFFFF00007FE00
00000000FFFFF00001FF00
00000000FEFFF000007F00
00000000FEFFF000003F80
00000001FCFFF000001FC0
00000003F8FFF000001FC0
00000003F8FFF000000F00
00000007F0FFF000000600
00000007F0FFF000000000
0000000FE0FFF000000000
0000000FE0FFF000000000
0000001FC0FFF0003C0000
0000003FC0FFF0003C0000
0000003F80FFF0003C0000
0000007F00FFF0003C0000
0000007F00FFF0007C0000
000000FE00FFF000FC0000
000000FE00FFF003FC0000
000001FC00FFFFFFFC0000
000001FC00FFFFFFFC0000
000003F800FFFFFFFC0000
000007F800FFFFFFFC0000
000007F000FFFFFFFC0000
00000FF000FFFFFFFC0000
00000FE000FFF003FC0000
00001FC000FFF000FC0000
00001FC000FFF0007C0000
00003FFFFFFFF0003C0000
00007FFFFFFFF0003C0000
00007FFFFFFFF0003C0000
0000FFFFFFFFF0003C0000
0000FFFFFFFFF000000000
0001FFFFFFFFF000000000
0001FC0000FFF000000020
0003F80000FFF000000038
0007F80000FFF00000007C
0007F00000FFF00000007C
000FF00000FFF0000000FC
000FE00000FFF0000000F8
001FE00000FFF0000001F8
001FC00000FFF0000003F0
003FC00000FFF0000007F0
007F800001FFF0000007F0
00FF800001FFF800001FE0
01FF800001FFF800003FE0
03FF800003FFFC0000FFC0
0FFFC0000FFFFE000FFFC0
7FFFF8007FFFFFFFFFFF80
FFFFF8007FFFFFFFFFFF80
FFFFF8007FFFFFFFFFFF00
FFFFF8007FFFFFFFFFFF00
7FFFF8007FFFFFFFFFFF00
0000000000000000000600
ENDCHAR
STARTCHAR Ccedilla
ENCODING 199
SWIDTH 749 0
DWIDTH 56 0
BBX 53 77 3 -19
BITMAP
000007FF800000
00007FFFF80000
0001FFFFFE0000
0007FFFFFF8000
001FFFFFFFE000
003FFFFFFFF000
007FFF03FFF800
00FFF800FFFC00
01FFE0003FFE00
03FFC0001FFE00
07FF80000FFF00
07FF80000FFF80
0FFF000007FF80
1FFE000007FFC0
1FFE000007FFC0
3FFE000007FFC0
3FFC000003FFC0
3FFC000003FFC0
7FFC000003FF00
7FF8000003F800
7FF8000003E000
7FF80000030000
FFF80000000000
FFF80000000000
FFF80000000000
FFF00000000000
FFF00000000000
FFF00000000000
FFF00000000000
FFF00000000000
FFF80000000000
FFF80000000000
FFF80000000000
FFF80000000000
FFF80000000000
FFF80000000000
FFF80000000000
FFFC0000000000
7FFC0000000000
7FFC00000001E0
7FFC00000003F8
7FFE00000003F8
3FFE00000007F0
3FFF00000007F0
1FFF0000000FE0
1FFF8000001FE0
0FFF8000003FC0
0FFFC000007F80
07FFE00000FF80
03FFF00001FF00
01FFFC0007FE00
00FFFF803FFC00
007FFFFFFFF800
003FFFFFFFF000
001FFFFFFFE000
0007FFFFFF8000
0001FFFFFE0000
00007FFFF80000
000007FF800000
000003F0000000
000003E0000000
000007C0000000
000007BF000000
00000FFFC00000
00001FFFF00000
00001FFFF00000
0000001FF80000
00000007F80000
00000003F80000
00000003F80000
00000003F80000
00001C07F80000
00001FFFF80000
00001FFFF00000
00001FFFE00000
00000FFFC00000
000001FE000000
ENDCHAR
STARTCHAR Egrave
ENCODING 200
SWIDTH 755 0
DWIDTH 57 0
BBX 53 79 2 -1
BITMAP
00003E00000000
0000FE00000000
0001FF00000000
0001FF00000000
0001FF80000000
0001FF80000000
0000FFC0000000
0000FFC0000000
00007FE0000000
00007FF0000000
00003FF0000000
00001FF8000000
000007FC000000
000003FC000000
000000FE000000
00000038000000
00000000000000
00000000000000
00000000000000
00000000000000
00000000004000
FFFFFFFFFFE000
FFFFFFFFFFF000
FFFFFFFFFFF000
FFFFFFFFFFF800
1FFFFFFFFFF800
07FFE0001FFC00
03FFE00003FE00
03FFE00001FE00
01FFE00000FF00
01FFE000007F00
01FFE000003F80
01FFE000001E00
01FFE000001800
01FFE000000000
01FFE000000000
01FFE000000000
01FFE000780000
01FFE000780000
01FFE000780000
01FFE000F80000
01FFE000F80000
01FFE001F80000
01FFE007F80000
01FFFFFFF80000
01FFFFFFF80000
01FFFFFFF80000
01FFFFFFF80000
01FFFFFFF80000
01FFFFFFF80000
01FFE007F80000
01FFE001F80000
01FFE000F80000
01FFE000F80000
01FFE000780000
01FFE000780000
01FFE000780000
01FFE000000000
01FFE000000000
01FFE000000000
01FFE000000040
01FFE0000000F0
01FFE0000000F8
01FFE0000001F8
01FFE0000001F0
01FFE0000003F0
01FFE0000007E0
01FFE000000FE0
01FFE000000FE0
01FFE000003FC0
03FFF000007FC0
03FFF00001FF80
07FFFC001FFF80
1FFFFFFFFFFF00
FFFFFFFFFFFF00
FFFFFFFFFFFE00
FFFFFFFFFFFE00
FFFFFFFFFFFC00
00000000000C00
ENDCHAR
STARTCHAR Eacute
ENCODING 201
SWIDTH 755 0
DWIDTH 57 0
BBX 53 79 2 -1
BITMAP
00000002000000
0000000FE00000
0000000FF00000
0000001FF00000
0000001FF00000
0000003FF00000
0000003FF00000
0000007FF00000
0000007FE00000
000000FFC00000
000000FFC00000
000001FF800000
000003FE000000
000007FC000000
000007F8000000
00000FE0000000
00000380000000
00000000000000
00000000000000
00000000000000
00000000004000
FFFFFFFFFFE000
FFFFFFFFFFF000
FFFFFFFFFFF000
FFFFFFFFFFF800
1FFFFFFFFFF800
07FFE0001FFC00
03FFE00003FE00
03FFE00001FE00
01FFE00000FF00
01FFE000007F00
01FFE000003F80
01FFE000001E00
01FFE000001800
01FFE000000000
01FFE000000000
01FFE000000000
01FFE000780000
01FFE000780000
01FFE000780000
01FFE000F80000
01FFE000F80000
01FFE001F80000
01FFE007F80000
01FFFFFFF80000
01FFFFFFF80000
01FFFFFFF80000
01FFFFFFF80000
01FFFFFFF80000
01FFFFFFF80000
01FFE007F80000
01FFE001F80000
01FFE000F80000
01FFE000F80000
01FFE000780000
01FFE000780000
01FFE000780000
01FFE000000000
01FFE000000000
01FFE000000000
01FFE000000040
01FFE0000000F0
01FFE0000000F8
01FFE0000001F8
01FFE0000001F0
01FFE0000003F0
01FFE0000007E0
01FFE000000FE0
01FFE000000FE0
01FFE000003FC0
03FFF000007FC0
03FFF00001FF80
07FFFC001FFF80
1FFFFFFFFFFF00
FFFFFFFFFFFF00
FFFFFFFFFFFE00
FFFFFFFFFFFE00
FFFFFFFFFFFC00
00000000000C00
ENDCHAR
STARTCHAR Ecircumflex
ENCODING 202
SWIDTH 755 0
DWIDTH 57 0
BBX 53 78 2 -1
BITMAP
000000C0000000
000001F0000000
000003F8000000
00000FFC000000
00001FFF000000
00007FFFC00000
0001FFFFF00000
0007FFBFFC0000
001FFFBFFF0000
001FFF1FFF0000
001FFE1FFF0000
001FFE0FFF0000
001FFC07FF0000
001FF803FE0000
000FE001FE0000
000780007C0000
00000000000000
00000000000000
00000000000000
00000000004000
FFFFFFFFFFE000
FFFFFFFFFFF000
FFFFFFFFFFF000
FFFFFFFFFFF800
1FFFFFFFFFF800
07FFE0001FFC00
03FFE00003FE00
03FFE00001FE00
01FFE00000FF00
01FFE000007F00
01FFE000003F80
01FFE000001E00
01FFE000001800
01FFE000000000
01FFE000000000
01FFE000000000
01FFE000780000
01FFE000780000
01FFE000780000
01FFE000F80000
01FFE000F80000
01FFE001F80000
01FFE007F80000
01FFFFFFF80000
01FFFFFFF80000
01FFFFFFF80000
01FFFFFFF80000
01FFFFFFF80000
01FFFFFFF80000
01FFE007F80000
01FFE001F80000
01FFE000F80000
01FFE000F80000
01FFE000780000
01FFE000780000
01FFE000780000
01FFE000000000
01FFE000000000
01FFE000000000
01FFE000000040
01FFE0000000F0
01FFE0000000F8
01FFE0000001F8
01FFE0000001F0
01FFE0000003F0
01FFE0000007E0
01FFE000000FE0
01FFE000000FE0
01FFE000003FC0
03FFF000007FC0
03FFF00001FF80
07FFFC001FFF80
1FFFFFFFFFFF00
FFFFFFFFFFFF00
FFFFFFFFFFFE00
FFFFFFFFFFFE00
FFFFFFFFFFFC00
00000000000C00
ENDCHAR
STARTCHAR Edieresis
ENCODING 203
SWIDTH 755 0
DWIDTH 57 0
BBX 53 76 2 -1
BITMAP
0001E000F00000
0007F001FC0000
000FF803FE0000
000FFC07FE0000
001FFC07FF0000
001FFC0FFF0000
001FFC07FF0000
000FFC07FE0000
000FF803FE0000
0007F001FC0000
0001E000F00000
00000000000000
00000000000000
00000000000000
00000000000000
00000000000000
00000000000000
00000000004000
FFFFFFFFFFE000
FFFFFFFFFFF000
FFFFFFFFFFF000
FFFFFFFFFFF800
1FFFFFFFFFF800
07FFE0001FFC00
03FFE00003FE00
03FFE00001FE00
01FFE00000FF00
01FFE000007F00
01FFE000003F80
01FFE000001E00
01FFE000001800
01FFE000000000
01FFE000000000
01FFE000000000
01FFE000780000
01FFE000780000
01FFE000780000
01FFE000F80000
01FFE000F80000
01FFE001F80000
01FFE007F80000
01FFFFFFF80000
01FFFFFFF80000
01FFFFFFF80000
01FFFFFFF80000
01FFFFFFF80000
01FFFFFFF80000
01FFE007F80000
01FFE001F80000
01FFE000F80000
01FFE000F80000
01FFE000780000
01FFE000780000
01FFE000780000
01FFE000000000
01FFE000000000
01FFE000000000
01FFE000000040
01FFE0000000F0
01FFE0000000F8
01FFE0000001F8
01FFE0000001F0
01FFE0000003F0
01FFE0000007E0
01FFE000000FE0
01FFE000000FE0
01FFE000003FC0
03FFF000007FC0
03FFF00001FF80
07FFFC001FFF80
1FFFFFFFFFFF00
FFFFFFFFFFFF00
FFFFFFFFFFFE00
FFFFFFFFFFFE00
FFFFFFFFFFFC00
00000000000C00
ENDCHAR
STARTCHAR Igrave
ENCODING 204
SWIDTH 407 0
DWIDTH 31 0
BBX 25 78 3 0
BITMAP
07C00000
1FC00000
3FE00000
3FE00000
3FF00000
3FF00000
1FF80000
1FF80000
0FFC0000
0FFC0000
07FE0000
03FF0000
00FF8000
007F8000
001FC000
00070000
00000000
00000000
00000000
00000000
00000000
FFFFFF80
FFFFFF80
FFFFFF80
FFFFFF80
FFFFFF80
0FFFF800
07FFF000
07FFE000
03FFE000
03FFE000
03FFC000
03FFC000
03FFC000
03FFC000
03FFC000
03FFC000
03FFC000
03FFC000
03FFC000
03FFC000
03FFC000
03FFC000
03FFC000
03FFC000
03FFC000
03FFC000
03FFC000
03FFC000
03FFC000
03FFC000
03FFC000
03FFC000
03FFC000
03FFC000
03FFC000
03FFC000
03FFC000
03FFC000
03FFC000
03FFC000
03FFC000
03FFC000
03FFC000
03FFC000
03FFC000
03FFC000
03FFC000
03FFE000
03FFE000
07FFE000
07FFF000
0FFFF800
FFFFFF80
FFFFFF80
FFFFFF80
FFFFFF80
FFFFFF80
ENDCHAR
STARTCHAR Iacute
ENCODING 205
SWIDTH 407 0
DWIDTH 31 0
BBX 25 78 3 0
BITMAP
00004000
0001FC00
0001FE00
0003FE00
0003FE00
0007FE00
0007FE00
000FFC00
000FFC00
001FF800
003FF000
003FF000
007FC000
00FF8000
00FF0000
01FC0000
00700000
00000000
00000000
00000000
00000000
FFFFFF80
FFFFFF80
FFFFFF80
FFFFFF80
FFFFFF80
0FFFF800
07FFF000
07FFE000
03FFE000
03FFE000
03FFC000
03FFC000
03FFC000
03FFC000
03FFC000
03FFC000
03FFC000
03FFC000
03FFC000
03FFC000
03FFC000
03FFC000
03FFC000
03FFC000
03FFC000
03FFC000
03FFC000
03FFC000
03FFC000
03FFC000
03FFC000
03FFC000
03FFC000
03FFC000
03FFC000
03FFC000
03FFC000
03FFC000
03FFC000
03FFC000
03FFC000
03FFC000
03FFC000
03FFC000
03FFC000
03FFC000
03FFC000
03FFE000
03FFE000
07FFE000
07FFF000
0FFFF800
FFFFFF80
FFFFFF80
FFFFFF80
FFFFFF80
FFFFFF80
ENDCHAR
STARTCHAR Icircumflex
ENCODING 206
SWIDTH 407 0
DWIDTH 31 0
BBX 29 77 1 0
BITMAP
00060000
000F8000
001FC000
007FE000
00FFF800
03FFFE00
0FFFFF80
3FFFFFE0
FFFDFFF8
FFF8FFF8
FFF0FFF8
FFE07FF8
FFE03FF8
FF801FF0
7F000FF0
3C0003E0
00000000
00000000
00000000
00000000
3FFFFFE0
3FFFFFE0
3FFFFFE0
3FFFFFE0
3FFFFFE0
03FFFE00
01FFFC00
01FFF800
00FFF800
00FFF800
00FFF000
00FFF000
00FFF000
00FFF000
00FFF000
00FFF000
00FFF000
00FFF000
00FFF000
00FFF000
00FFF000
00FFF000
00FFF000
00FFF000
00FFF000
00FFF000
00FFF000
00FFF000
00FFF000
00FFF000
00FFF000
00FFF000
00FFF000
00FFF000
00FFF000
00FFF000
00FFF000
00FFF000
00FFF000
00FFF000
00FFF000
00FFF000
00FFF000
00FFF000
00FFF000
00FFF000
00FFF000
00FFF800
00FFF800
01FFF800
01FFFC00
03FFFE00
3FFFFFE0
3FFFFFE0
3FFFFFE0
3FFFFFE0
3FFFFFE0
ENDCHAR
STARTCHAR Idieresis
ENCODING 207
SWIDTH 407 0
DWIDTH 31 0
BBX 29 75 1 0
BITMAP
0F000780
3F800FC0
7FC01FE0
7FE03FF0
FFE07FF8
FFE07FF8
FFE03FF8
7FE03FF0
7FC01FE0
3F800FC0
0F000780
00000000
00000000
00000000
00000000
00000000
00000000
00000000
3FFFFFE0
3FFFFFE0
3FFFFFE0
3FFFFFE0
3FFFFFE0
03FFFE00
01FFFC00
01FFF800
00FFF800
00FFF800
00FFF000
00FFF000
00FFF000
00FFF000
00FFF000
00FFF000
00FFF000
00FFF000
00FFF000
00FFF000
00FFF000
00FFF000
00FFF000
00FFF000
00FFF000
00FFF000
00FFF000
00FFF000
00FFF000
00FFF000
00FFF000
00FFF000
00FFF000
00FFF000
00FFF000
00FFF000
00FFF000
00FFF000
00FFF000
00FFF000
00FFF000
00FFF000
00FFF000
00FFF000
00FFF000
00FFF000
00FFF000
00FFF800
00FFF800
01FFF800
01FFFC00
03FFFE00
3FFFFFE0
3FFFFFE0
3FFFFFE0
3FFFFFE0
3FFFFFE0
ENDCHAR
STARTCHAR Eth
ENCODING 208
SWIDTH 790 0
DWIDTH 59 0
BBX 55 57 2 0
BITMAP
FFFFFFFE000000
FFFFFFFFE00000
FFFFFFFFFC0000
FFFFFFFFFF0000
FFFFFFFFFFC000
0FFFE00FFFF000
07FFE001FFF800
03FFE0003FFC00
03FFE0001FFE00
01FFE0000FFF00
01FFE00007FF80
01FFE00003FFC0
01FFE00001FFC0
01FFE00000FFE0
01FFE00000FFF0
01FFE000007FF0
01FFE000007FF0
01FFE000007FF8
01FFE000003FF8
01FFE000003FF8
01FFE000003FFC
01FFE000001FFC
01FFE000001FFC
01FFE000001FFC
01FFE000001FFC
FFFFFFFFF01FFE
FFFFFFFFF01FFE
FFFFFFFFF01FFE
FFFFFFFFF01FFE
FFFFFFFFF01FFE
FFFFFFFFF01FFE
FFFFFFFFF01FFE
FFFFFFFFF01FFC
FFFFFFFFF01FFC
01FFE000001FFC
01FFE000001FFC
01FFE000001FFC
01FFE000003FFC
01FFE000003FF8
01FFE000003FF8
01FFE000003FF8
01FFE000007FF0
01FFE000007FF0
01FFE00000FFE0
01FFE00000FFE0
01FFE00001FFC0
01FFE00003FFC0
01FFE00007FF80
01FFE0000FFF00
03FFE0001FFE00
03FFF0007FFC00
07FFF807FFF800
7FFFFFFFFFE000
FFFFFFFFFFC000
FFFFFFFFFF0000
FFFFFFFFF80000
FFFFFFFF800000
ENDCHAR
STARTCHAR Ntilde
ENCODING 209
SWIDTH 891 0
DWIDTH 67 0
BBX 64 76 2 0
BITMAP
000000FC01E00000
000003FE03F00000
000007FF07F00000
00000FFF83F80000
00000FFFC3F80000
00001FFFE3F80000
00001FCFE3F80000
00001FC7F3F80000
00001FC3FFF80000
00001FC3FFF80000
00001FC1FFF00000
00000FE0FFE00000
000007C07FC00000
000003803F000000
0000000000000000
0000000000000000
0000000000000000
0000000000000000
0000000000000000
7FFF0000001FFFFF
7FFF8000001FFFFF
7FFFC000001FFFFF
7FFFE000001FFFFF
7FFFF000001FFFFF
0FFFF8000001FFF8
03FFFC000000FFE0
01FFFC0000007FE0
01FFFE0000007FC0
01FFFF0000003FC0
01FFFF8000003FC0
01FFFFC000003F80
01FFFFE000003F80
01FFFFF000003F80
01FFFFF000003F80
01FFFFF800003F80
01FDFFFC00003F80
01FCFFFE00003F80
01FC7FFF00003F80
01FC3FFF80003F80
01FC1FFFC0003F80
01FC1FFFC0003F80
01FC0FFFE0003F80
01FC07FFF0003F80
01FC03FFF8003F80
01FC01FFFC003F80
01FC00FFFE003F80
01FC007FFF003F80
01FC003FFF803F80
01FC003FFF803F80
01FC001FFFC03F80
01FC000FFFE03F80
01FC0007FFF03F80
01FC0003FFF83F80
01FC0001FFFC3F80
01FC0000FFFE3F80
01FC00007FFE3F80
01FC00007FFF3F80
01FC00003FFFBF80
01FC00001FFFFF80
01FC00000FFFFF80
01FC000007FFFF80
01FC000003FFFF80
01FC000001FFFF80
01FC000000FFFF80
01FC000000FFFF80
01FC0000007FFF80
01FE0000003FFF80
03FE0000001FFF80
03FE0000000FFF80
07FF00000007FF80
0FFFC0000003FF80
FFFFF8000003FF80
FFFFF8000001FF80
FFFFF8000000FF80
FFFFF80000007F80
FFFFF80000003F80
ENDCHAR
STARTCHAR Ograve
ENCODING 210
SWIDTH 822 0
DWIDTH 62 0
BBX 56 79 3 -1
BITMAP
00000F80000000
00001FC0000000
00003FC0000000
00003FE0000000
00003FE0000000
00003FF0000000
00003FF0000000
00001FF8000000
00001FF8000000
00000FFC000000
000007FE000000
000003FE000000
000001FF000000
0000007F800000
0000001FC00000
0000000F000000
00000000000000
00000000000000
00000000000000
00000000000000
000003FF800000
00003FFFF00000
0000FFFFFE0000
0003FFFFFF8000
000FFFFFFFC000
001FFFFFFFF000
003FFE07FFF800
007FF0007FFC00
00FFC0003FFE00
01FF80000FFF00
03FF000007FF80
07FE000003FFC0
07FC000003FFE0
0FF8000001FFE0
1FF8000000FFF0
1FF0000000FFF0
3FF00000007FF8
3FF00000007FF8
7FF00000003FFC
7FE00000003FFC
7FE00000003FFE
7FE00000001FFE
FFE00000001FFE
FFE00000001FFE
FFE00000000FFF
FFE00000000FFF
FFE00000000FFF
FFE00000000FFF
FFE00000000FFF
FFE000000007FF
FFE000000007FF
FFE000000007FF
FFF000000007FF
FFF000000007FF
FFF000000007FF
FFF000000007FF
FFF000000007FE
7FF800000007FE
7FF80000000FFE
7FF80000000FFE
3FFC0000000FFC
3FFC0000000FFC
1FFE0000001FF8
1FFE0000001FF8
0FFF0000001FF0
0FFF8000003FF0
07FF8000003FE0
03FFC000007FC0
03FFE00000FFC0
01FFF00001FF80
00FFF80003FF00
007FFE000FFE00
003FFFC0FFFC00
000FFFFFFFF000
0007FFFFFFE000
0001FFFFFF8000
00007FFFFF0000
00001FFFF80000
000001FFC00000
ENDCHAR
STARTCHAR Oacute
ENCODING 211
SWIDTH 822 0
DWIDTH 62 0
BBX 56 79 3 -1
BITMAP
00000000400000
00000001F80000
00000003FC0000
00000003FE0000
00000007FE0000
00000007FE0000
0000000FFC0000
0000000FFC0000
0000001FFC0000
0000001FF80000
0000003FF00000
0000007FE00000
0000007FC00000
000000FF800000
000001FE000000
000001F8000000
00000070000000
00000000000000
00000000000000
00000000000000
000003FF800000
00003FFFF00000
0000FFFFFE0000
0003FFFFFF8000
000FFFFFFFC000
001FFFFFFFF000
003FFE07FFF800
007FF0007FFC00
00FFC0003FFE00
01FF80000FFF00
03FF000007FF80
07FE000003FFC0
07FC000003FFE0
0FF8000001FFE0
1FF8000000FFF0
1FF0000000FFF0
3FF00000007FF8
3FF00000007FF8
7FF00000003FFC
7FE00000003FFC
7FE00000003FFE
7FE00000001FFE
FFE00000001FFE
FFE00000001FFE
FFE00000000FFF
FFE00000000FFF
FFE00000000FFF
FFE00000000FFF
FFE00000000FFF
FFE000000007FF
FFE000000007FF
FFE000000007FF
FFF000000007FF
FFF000000007FF
FFF000000007FF
FFF000000007FF
FFF000000007FE
7FF800000007FE
7FF80000000FFE
7FF80000000FFE
3FFC0000000FFC
3FFC0000000FFC
1FFE0000001FF8
1FFE0000001FF8
0FFF0000001FF0
0FFF8000003FF0
07FF8000003FE0
03FFC000007FC0
03FFE00000FFC0
01FFF00001FF80
00FFF80003FF00
007FFE000FFE00
003FFFC0FFFC00
000FFFFFFFF000
0007FFFFFFE000
0001FFFFFF8000
00007FFFFF0000
00001FFFF80000
000001FFC00000
ENDCHAR
STARTCHAR Ocircumflex
ENCODING 212
SWIDTH 822 0
DWIDTH 62 0
BBX 56 78 3 -1
BITMAP
00000018000000
0000003C000000
000000FF000000
000001FF800000
000007FFC00000
00000FFFF00000
00003FFFFC0000
0001FFFFFF8000
0003FFE7FFC000
0007FFE7FFC000
0007FFC3FFC000
0007FF81FFC000
0003FF00FFC000
0003FE007FC000
0003FC003F8000
0001F0000F8000
00000000000000
00000000000000
00000000000000
000003FF800000
00003FFFF00000
0000FFFFFE0000
0003FFFFFF8000
000FFFFFFFC000
001FFFFFFFF000
003FFE07FFF800
007FF0007FFC00
00FFC0003FFE00
01FF80000FFF00
03FF000007FF80
07FE000003FFC0
07FC000003FFE0
0FF8000001FFE0
1FF8000000FFF0
1FF0000000FFF0
3FF00000007FF8
3FF00000007FF8
7FF00000003FFC
7FE00000003FFC
7FE00000003FFE
7FE00000001FFE
FFE00000001FFE
FFE00000001FFE
FFE00000000FFF
FFE00000000FFF
FFE00000000FFF
FFE00000000FFF
FFE00000000FFF
FFE000000007FF
FFE000000007FF
FFE000000007FF
FFF000000007FF
FFF000000007FF
FFF000000007FF
FFF000000007FF
FFF000000007FE
7FF800000007FE
7FF80000000FFE
7FF80000000FFE
3FFC0000000FFC
3FFC0000000FFC
1FFE0000001FF8
1FFE0000001FF8
0FFF0000001FF0
0FFF8000003FF0
07FF8000003FE0
03FFC000007FC0
03FFE00000FFC0
01FFF00001FF80
00FFF80003FF00
007FFE000FFE00
003FFFC0FFFC00
000FFFFFFFF000
0007FFFFFFE000
0001FFFFFF8000
00007FFFFF0000
00001FFFF80000
000001FFC00000
ENDCHAR
STARTCHAR Otilde
ENCODING 213
SWIDTH 822 0
DWIDTH 62 0
BBX 56 77 3 -1
BITMAP
00000F801C0000
00003FE03E0000
00007FF07F0000
0000FFF83F8000
0001FFFC3F8000
0001FFFC3F8000
0001FCFE3F8000
0001FC7F3F8000
0001FC7FFF8000
0001FC3FFF0000
0001FC1FFF0000
0000FE1FFE0000
0000FC07FC0000
00007803F00000
00000000000000
00000000000000
00000000000000
00000000000000
000003FF800000
00003FFFF00000
0000FFFFFE0000
0003FFFFFF8000
000FFFFFFFC000
001FFFFFFFF000
003FFE07FFF800
007FF0007FFC00
00FFC0003FFE00
01FF80000FFF00
03FF000007FF80
07FE000003FFC0
07FC000003FFE0
0FF8000001FFE0
1FF8000000FFF0
1FF0000000FFF0
3FF00000007FF8
3FF00000007FF8
7FF00000003FFC
7FE00000003FFC
7FE00000003FFE
7FE00000001FFE
FFE00000001FFE
FFE00000001FFE
FFE00000000FFF
FFE00000000FFF
FFE00000000FFF
FFE00000000FFF
FFE00000000FFF
FFE000000007FF
FFE000000007FF
FFE000000007FF
FFF000000007FF
FFF000000007FF
FFF000000007FF
FFF000000007FF
FFF000000007FE
7FF800000007FE
7FF80000000FFE
7FF80000000FFE
3FFC0000000FFC
3FFC0000000FFC
1FFE0000001FF8
1FFE0000001FF8
0FFF0000001FF0
0FFF8000003FF0
07FF8000003FE0
03FFC000007FC0
03FFE00000FFC0
01FFF00001FF80
00FFF80003FF00
007FFE000FFE00
003FFFC0FFFC00
000FFFFFFFF000
0007FFFFFFE000
0001FFFFFF8000
00007FFFFF0000
00001FFFF80000
000001FFC00000
ENDCHAR
STARTCHAR Odieresis
ENCODING 214
SWIDTH 822 0
DWIDTH 62 0
BBX 56 76 3 -1
BITMAP
000078001E0000
0000FE007F0000
0001FF00FF8000
0003FF00FFC000
0003FF81FFC000
0003FF81FFC000
0003FF81FFC000
0003FF00FFC000
0001FF00FF8000
0000FE007F0000
000078001E0000
00000000000000
00000000000000
00000000000000
00000000000000
00000000000000
00000000000000
000003FF800000
00003FFFF00000
0000FFFFFE0000
0003FFFFFF8000
000FFFFFFFC000
001FFFFFFFF000
003FFE07FFF800
007FF0007FFC00
00FFC0003FFE00
01FF80000FFF00
03FF000007FF80
07FE000003FFC0
07FC000003FFE0
0FF8000001FFE0
1FF8000000FFF0
1FF0000000FFF0
3FF00000007FF8
3FF00000007FF8
7FF00000003FFC
7FE00000003FFC
7FE00000003FFE
7FE00000001FFE
FFE00000001FFE
FFE00000001FFE
FFE00000000FFF
FFE00000000FFF
FFE00000000FFF
FFE00000000FFF
FFE00000000FFF
FFE000000007FF
FFE000000007FF
FFE000000007FF
FFF000000007FF
FFF000000007FF
FFF000000007FF
FFF000000007FF
FFF000000007FE
7FF800000007FE
7FF80000000FFE
7FF80000000FFE
3FFC0000000FFC
3FFC0000000FFC
1FFE0000001FF8
1FFE0000001FF8
0FFF0000001FF0
0FFF8000003FF0
07FF8000003FE0
03FFC000007FC0
03FFE00000FFC0
01FFF00001FF80
00FFF80003FF00
007FFE000FFE00
003FFFC0FFFC00
000FFFFFFFF000
0007FFFFFFE000
0001FFFFFF8000
00007FFFFF0000
00001FFFF80000
000001FFC00000
ENDCHAR
STARTCHAR multiply
ENCODING 215
SWIDTH 600 0
DWIDTH 45 0
BBX 39 39 3 0
BITMAP
0C00000060
1E000000F0
3F000001F8
7F800003FC
FFC00007FE
7FE0000FFC
7FF0001FF8
3FF8003FF0
1FFC007FE0
0FFE00FFC0
07FF01FF80
03FF83FF00
01FFC7FE00
00FFEFFC00
007FFFF800
003FFFF000
001FFFE000
000FFFC000
0007FF8000
0003FF8000
0007FFC000
000FFFE000
001FFFF000
003FFFF800
007FFFFC00
00FFEFFE00
01FFC7FF00
03FF83FF80
07FF01FFC0
0FFE00FFE0
1FFC007FF0
3FF8003FF8
7FF0001FFC
FFE0000FFC
FFC00007FE
7F800003FC
3F000001F8
1E000000F0
0800000060
ENDCHAR
STARTCHAR Oslash
ENCODING 216
SWIDTH 822 0
DWIDTH 62 0
BBX 56 70 3 -5
BITMAP
0000000007E000
000000001FF000
000000001FE000
000000003FE000
000000003FE000
000000003FC000
000000007FC000
000003FF7F8000
00003FFFFF8000
0000FFFFFF8000
0003FFFFFF8000
0007FFFFFFE000
001FFFFFFFF000
003FFE07FFF800
007FF001FFFC00
00FFC003FFFE00
01FF8003FFFF00
03FF0007FFFF80
07FE0007FFFFC0
07FC0007FBFFE0
0FF8000FF9FFE0
1FF8000FF9FFF0
1FF8000FF0FFF0
3FF0001FF07FF8
3FF0001FE07FF8
3FF0001FE07FFC
7FE0003FE03FFC
7FE0003FC03FFE
7FE0003FC01FFE
FFE0007FC01FFE
FFE0007F801FFE
FFE0007F800FFF
FFE000FF800FFF
FFE000FF000FFF
FFE000FF000FFF
FFE001FF000FFF
FFE001FE000FFF
FFE003FE0007FF
FFE003FE0007FF
FFF003FC0007FF
FFF007FC0007FF
FFF007FC0007FF
FFF007F80007FF
FFF00FF80007FE
7FF80FF80007FE
7FF80FF00007FE
7FF81FF0000FFC
3FFC1FE0000FFC
3FFC1FE0000FFC
3FFE3FE0000FF8
1FFE3FC0001FF8
0FFF3FC0001FF0
0FFFFFC0003FF0
07FFFF80003FE0
07FFFF80007FC0
03FFFF8000FFC0
01FFFF0001FF80
00FFFF0003FF00
007FFF000FFE00
003FFFC0FFFC00
001FFFFFFFF000
000FFFFFFFE000
0003FFFFFF8000
0007FFFFFE0000
0007FFFFF80000
000FF9FF800000
000FF800000000
000FF000000000
001FF000000000
001FE000000000
ENDCHAR
STARTCHAR Ugrave
ENCODING 217
SWIDTH 808 0
DWIDTH 61 0
BBX 58 79 2 -1
BITMAP
000001F000000000
000007F800000000
000007F800000000
00000FFC00000000
000007FC00000000
000007FE00000000
000007FE00000000
000007FF00000000
000003FF00000000
000001FF80000000
000000FFC0000000
0000007FC0000000
0000003FE0000000
0000000FF0000000
00000007F8000000
00000001E0000000
0000000000000000
0000000000000000
0000000000000000
0000000000000000
0000000000000000
FFFFFF8007FFFFC0
FFFFFF8007FFFFC0
FFFFFF8007FFFFC0
FFFFFF8007FFFFC0
FFFFFF8007FFFFC0
0FFFF800007FFC00
07FFF000003FF800
03FFE000001FF000
03FFE000001FF000
03FFE000001FE000
03FFE000001FE000
01FFE000000FE000
01FFE000000FE000
01FFE000000FE000
01FFE000000FE000
01FFE000000FE000
01FFE000000FE000
01FFE000000FE000
01FFE000000FE000
01FFE000000FE000
01FFE000000FE000
01FFE000000FE000
01FFE000000FE000
01FFE000000FE000
01FFE000000FE000
01FFE000000FE000
01FFE000000FE000
01FFE000000FE000
01FFE000000FE000
01FFE000000FE000
01FFE000000FE000
01FFE000000FE000
01FFE000000FE000
01FFE000000FE000
01FFE000000FE000
01FFE000000FE000
01FFE000000FE000
01FFE000000FE000
01FFE000001FE000
01FFE000001FE000
01FFE000001FE000
01FFE000001FE000
01FFE000001FE000
01FFE000001FC000
00FFF000003FC000
00FFF000003FC000
00FFF800007FC000
007FF800007F8000
007FFC0000FF8000
003FFE0001FF0000
001FFF8003FF0000
000FFFF01FFE0000
0007FFFFFFFC0000
0003FFFFFFF80000
0001FFFFFFF00000
00007FFFFFC00000
00000FFFFF000000
000000FFF0000000
ENDCHAR
STARTCHAR Uacute
ENCODING 218
SWIDTH 808 0
DWIDTH 61 0
BBX 58 79 2 -1
BITMAP
0000000008000000
000000007F000000
000000007F800000
000000007F800000
00000000FF800000
00000000FF800000
00000001FF800000
00000001FF800000
00000003FF000000
00000003FF000000
00000007FE000000
0000000FFC000000
0000000FF8000000
0000001FF0000000
0000003FC0000000
0000007F00000000
0000000C00000000
0000000000000000
0000000000000000
0000000000000000
0000000000000000
FFFFFF8007FFFFC0
FFFFFF8007FFFFC0
FFFFFF8007FFFFC0
FFFFFF8007FFFFC0
FFFFFF8007FFFFC0
0FFFF800007FFC00
07FFF000003FF800
03FFE000001FF000
03FFE000001FF000
03FFE000001FE000
03FFE000001FE000
01FFE000000FE000
01FFE000000FE000
01FFE000000FE000
01FFE000000FE000
01FFE000000FE000
01FFE000000FE000
01FFE000000FE000
01FFE000000FE000
01FFE000000FE000
01FFE000000FE000
01FFE000000FE000
01FFE000000FE000
01FFE000000FE000
01FFE000000FE000
01FFE000000FE000
01FFE000000FE000
01FFE000000FE000
01FFE000000FE000
01FFE000000FE000
01FFE000000FE000
01FFE000000FE000
01FFE000000FE000
01FFE000000FE000
01FFE000000FE000
01FFE000000FE000
01FFE000000FE000
01FFE000000FE000
01FFE000001FE000
01FFE000001FE000
01FFE000001FE000
01FFE000001FE000
01FFE000001FE000
01FFE000001FC000
00FFF000003FC000
00FFF000003FC000
00FFF800007FC000
007FF800007F8000
007FFC0000FF8000
003FFE0001FF0000
001FFF8003FF0000
000FFFF01FFE0000
0007FFFFFFFC0000
0003FFFFFFF80000
0001FFFFFFF00000
00007FFFFFC00000
00000FFFFF000000
000000FFF0000000
ENDCHAR
STARTCHAR Ucircumflex
ENCODING 219
SWIDTH 808 0
DWIDTH 61 0
BBX 58 78 2 -1
BITMAP
0000000300000000
0000000F80000000
0000001FC0000000
0000003FF0000000
000000FFF8000000
000003FFFE000000
00000FFFFF800000
00003FFFFFE00000
0000FFFDFFF80000
0000FFF8FFF80000
0000FFF87FF80000
0000FFF03FF80000
0000FFE03FF80000
00007FC01FF80000
00007F8007F00000
00003E0001E00000
0000000000000000
0000000000000000
0000000000000000
0000000000000000
FFFFFF8007FFFFC0
FFFFFF8007FFFFC0
FFFFFF8007FFFFC0
FFFFFF8007FFFFC0
FFFFFF8007FFFFC0
0FFFF800007FFC00
07FFF000003FF800
03FFE000001FF000
03FFE000001FF000
03FFE000001FE000
03FFE000001FE000
01FFE000000FE000
01FFE000000FE000
01FFE000000FE000
01FFE000000FE000
01FFE000000FE000
01FFE000000FE000
01FFE000000FE000
01FFE000000FE000
01FFE000000FE000
01FFE000000FE000
01FFE000000FE000
01FFE000000FE000
01FFE000000FE000
01FFE000000FE000
01FFE000000FE000
01FFE000000FE000
01FFE000000FE000
01FFE000000FE000
01FFE000000FE000
01FFE000000FE000
01FFE000000FE000
01FFE000000FE000
01FFE000000FE000
01FFE000000FE000
01FFE000000FE000
01FFE000000FE000
01FFE000000FE000
01FFE000001FE000
01FFE000001FE000
01FFE000001FE000
01FFE000001FE000
01FFE000001FE000
01FFE000001FC000
00FFF000003FC000
00FFF000003FC000
00FFF800007FC000
007FF800007F8000
007FFC0000FF8000
003FFE0001FF0000
001FFF8003FF0000
000FFFF01FFE0000
0007FFFFFFFC0000
0003FFFFFFF80000
0001FFFFFFF00000
00007FFFFFC00000
00000FFFFF000000
000000FFF0000000
ENDCHAR
STARTCHAR Udieresis
ENCODING 220
SWIDTH 808 0
DWIDTH 61 0
BBX 58 76 2 -1
BITMAP
00000F0007800000
00001F800FE00000
00003FC01FF00000
00007FE03FF80000
0000FFE03FF80000
0000FFF03FF80000
00007FE03FF80000
00007FE03FF80000
00003FC01FF00000
00001F800FE00000
00000F0007800000
0000000000000000
0000000000000000
0000000000000000
0000000000000000
0000000000000000
0000000000000000
0000000000000000
FFFFFF8007FFFFC0
FFFFFF8007FFFFC0
FFFFFF8007FFFFC0
FFFFFF8007FFFFC0
FFFFFF8007FFFFC0
0FFFF800007FFC00
07FFF000003FF800
03FFE000001FF000
03FFE000001FF000
03FFE000001FE000
03FFE000001FE000
01FFE000000FE000
01FFE000000FE000
01FFE000000FE000
01FFE000000FE000
01FFE000000FE000
01FFE000000FE000
01FFE000000FE000
01FFE000000FE000
01FFE000000FE000
01FFE000000FE000
01FFE000000FE000
01FFE000000FE000
01FFE000000FE000
01FFE000000FE000
01FFE000000FE000
01FFE000000FE000
01FFE000000FE000
01FFE000000FE000
01FFE000000FE000
01FFE000000FE000
01FFE000000FE000
01FFE000000FE000
01FFE000000FE000
01FFE000000FE000
01FFE000000FE000
01FFE000000FE000
01FFE000000FE000
01FFE000001FE000
01FFE000001FE000
01FFE000001FE000
01FFE000001FE000
01FFE000001FE000
01FFE000001FC000
00FFF000003FC000
00FFF000003FC000
00FFF800007FC000
007FF800007F8000
007FFC0000FF8000
003FFE0001FF0000
001FFF8003FF0000
000FFFF01FFE0000
0007FFFFFFFC0000
0003FFFFFFF80000
0001FFFFFFF00000
00007FFFFFC00000
00000FFFFF000000
000000FFF0000000
ENDCHAR
STARTCHAR Yacute
ENCODING 221
SWIDTH 794 0
DWIDTH 60 0
BBX 58 78 1 0
BITMAP
0000000004000000
000000001FC00000
000000001FE00000
000000003FE00000
000000003FE00000
000000007FE00000
000000007FE00000
00000000FFC00000
00000000FFC00000
00000001FF800000
00000003FF000000
00000003FF000000
00000007FC000000
0000000FF8000000
0000000FF0000000
0000001FC0000000
0000000700000000
0000000000000000
0000000000000000
0000000000000000
0000000000000000
FFFFFFF007FFFFC0
FFFFFFF007FFFFC0
FFFFFFF007FFFFC0
FFFFFFF007FFFFC0
FFFFFFF007FFFFC0
1FFFFF0000FFFC00
07FFFC00007FF000
03FFFC00007FE000
01FFFC00007FC000
01FFFC00007F8000
00FFFC00007F0000
007FFC0000FF0000
003FFE0000FE0000
003FFF0001FE0000
001FFF0001FC0000
000FFF8003F80000
000FFFC007F80000
0007FFC007F00000
0003FFE00FF00000
0003FFE00FE00000
0001FFF01FC00000
0000FFF81FC00000
0000FFF83F800000
00007FFC7F800000
00003FFE7F000000
00003FFEFE000000
00001FFFFE000000
00000FFFFC000000
00000FFFFC000000
000007FFF8000000
000003FFF0000000
000001FFF0000000
000001FFE0000000
000001FFE0000000
000001FFE0000000
000001FFE0000000
000001FFE0000000
000001FFE0000000
000001FFE0000000
000001FFE0000000
000001FFE0000000
000001FFE0000000
000001FFE0000000
000001FFE0000000
000001FFE0000000
000001FFE0000000
000001FFE0000000
000001FFF0000000
000001FFF0000000
000003FFF0000000
000003FFF8000000
000007FFFC000000
00007FFFFFC00000
00007FFFFFC00000
00007FFFFFC00000
00007FFFFFC00000
00007FFFFFC00000
ENDCHAR
STARTCHAR Thorn
ENCODING 222
SWIDTH 700 0
DWIDTH 53 0
BBX 49 57 2 0
BITMAP
FFFFFF00000000
FFFFFF00000000
FFFFFF00000000
FFFFFF00000000
7FFFFF00000000
0FFFC000000000
07FFC000000000
03FFC000000000
03FFC000000000
01FFFFFFC00000
01FFFFFFFC0000
01FFFFFFFF0000
01FFFFFFFF8000
01FFFFFFFFE000
01FFC003FFF000
01FFC000FFF800
01FFC0007FFC00
01FFC0001FFC00
01FFC0001FFE00
01FFC0000FFF00
01FFC00007FF00
01FFC00007FF00
01FFC00007FF80
01FFC00003FF80
01FFC00003FF80
01FFC00003FF80
01FFC00003FF80
01FFC00003FF80
01FFC00003FF80
01FFC00007FF80
01FFC00007FF00
01FFC00007FF00
01FFC0000FFF00
01FFC0000FFE00
01FFC0001FFE00
01FFC0003FFC00
01FFC000FFF800
01FFC007FFF000
01FFFFFFFFE000
01FFFFFFFF8000
01FFFFFFFE0000
01FFFFFFF80000
01FFFFFF000000
01FFC000000000
01FFC000000000
01FFC000000000
01FFE000000000
01FFE000000000
03FFE000000000
03FFE000000000
07FFF000000000
0FFFF800000000
FFFFFF80000000
FFFFFFC0000000
FFFFFFC0000000
FFFFFFC0000000
FFFFFF80000000
ENDCHAR
STARTCHAR germandbls
ENCODING 223
SWIDTH 702 0
DWIDTH 53 0
BBX 49 59 1 -1
BITMAP
00000FFE000000
00007FFFE00000
0003FFFFF80000
0007FFFFFE0000
000FFFFFFF0000
001FFFFFFF8000
003FFE0FFFC000
007FF803FFC000
007FF001FFE000
00FFE000FFE000
00FFE0007FE000
00FFC0007FE000
01FFC0007FE000
01FFC0007FE000
01FFC0007FE000
01FFC000FFE000
01FFC000FFE000
01FFC001FFC000
01FFC003FF8000
01FFC00FFF8000
01FFC03FFF0000
01FFC07FFC0000
01FFC0FFF00000
01FFC0FFC00000
01FFC0FF000000
01FFC0FF000000
01FFC0FF800000
01FFC0FFF00000
01FFC07FFE0000
01FFC03FFF8000
01FFC01FFFE000
01FFC007FFF000
01FFC001FFF800
01FFC0007FFC00
01FFC0001FFE00
01FFC0000FFF00
01FFC00007FF00
01FFC00007FF80
01FFC00003FF80
01FFC00003FF80
01FFC00003FF80
01FFC00003FF80
01FFC00003FF80
01FFC00003FF80
01FFC00003FF80
01FFC00003FF80
01FFC00003FF80
01FFC00007FF80
01FFC30007FF80
03FFC3C00FFF00
03FFC3F83FFF00
07FFC3FFFFFE00
0FFFC3FFFFFE00
FFFFC3FFFFFC00
FFFFC3FFFFF800
FFFFC1FFFFF000
FFFFC07FFFE000
FFFFC01FFF8000
00000003FC0000
ENDCHAR
STARTCHAR agrave
ENCODING 224
SWIDTH 619 0
DWIDTH 46 0
BBX 43 60 2 -1
BITMAP
000F80000000
003F80000000
007FC0000000
007FC0000000
007FE0000000
007FE0000000
003FF0000000
003FF0000000
001FF8000000
001FFC000000
000FFC000000
0003FE000000
0001FF000000
0000FF000000
00003F800000
00000E000000
000000000000
000000000000
000000000000
000000000000
0007FC000400
003FFFC01C00
00FFFFE03C00
01FFFFF8FC00
03FFFFFFFC00
07FF03FFFC00
0FFC00FFFC00
1FF8007FFC00
1FF0003FFC00
3FF0003FFC00
3FE0001FFC00
7FE0001FFC00
7FC0001FFC00
7FC0001FFC00
7FC0001FFC00
7FC0001FFC00
FFC0001FFC00
FFC0001FFC00
FFC0001FFC00
FFC0001FFC00
FFC0001FFC00
FFC0001FFC00
FFC0001FFC00
FFC0001FFC00
7FE0001FFC00
7FE0001FFC00
7FE0001FFC00
7FF0001FFC00
3FF0001FFC00
3FF8001FFE00
3FFC001FFE00
1FFC003FFF00
0FFF007FFFC0
0FFFC1FFFFE0
07FFFFFFFFE0
03FFFFEFFFE0
01FFFFCFFFE0
007FFF8FFC00
003FFF0F0000
0007F8180000
ENDCHAR
STARTCHAR aacute
ENCODING 225
SWIDTH 619 0
DWIDTH 46 0
BBX 43 60 2 -1
BITMAP
000000800000
000003F80000
000003FC0000
000007FC0000
000007FC0000
00000FFC0000
00000FFC0000
00001FFC0000
00001FF80000
00003FF00000
00003FF00000
00007FE00000
0000FFC00000
0000FF000000
0001FE000000
0003F8000000
0000E0000000
000000000000
000000000000
000000000000
0007FC000400
003FFFC01C00
00FFFFE03C00
01FFFFF8FC00
03FFFFFFFC00
07FF03FFFC00
0FFC00FFFC00
1FF8007FFC00
1FF0003FFC00
3FF0003FFC00
3FE0001FFC00
7FE0001FFC00
7FC0001FFC00
7FC0001FFC00
7FC0001FFC00
7FC0001FFC00
FFC0001FFC00
FFC0001FFC00
FFC0001FFC00
FFC0001FFC00
FFC0001FFC00
FFC0001FFC00
FFC0001FFC00
FFC0001FFC00
7FE0001FFC00
7FE0001FFC00
7FE0001FFC00
7FF0001FFC00
3FF0001FFC00
3FF8001FFE00
3FFC001FFE00
1FFC003FFF00
0FFF007FFFC0
0FFFC1FFFFE0
07FFFFFFFFE0
03FFFFEFFFE0
01FFFFCFFFE0
007FFF8FFC00
003FFF0F0000
0007F8180000
ENDCHAR
STARTCHAR acircumflex
ENCODING 226
SWIDTH 619 0
DWIDTH 46 0
BBX 43 59 2 -1
BITMAP
000030000000
00007C000000
0000FE000000
0003FF000000
0007FFC00000
001FFFF00000
007FFFFC0000
01FFEFFF0000
07FFEFFFC000
07FFC7FFC000
07FF83FFC000
07FF83FFC000
07FF01FFC000
07FE00FFC000
03F8003F8000
01F0001F0000
000000000000
000000000000
000000000000
0007FC000400
003FFFC01C00
00FFFFE03C00
01FFFFF8FC00
03FFFFFFFC00
07FF03FFFC00
0FFC00FFFC00
1FF8007FFC00
1FF0003FFC00
3FF0003FFC00
3FE0001FFC00
7FE0001FFC00
7FC0001FFC00
7FC0001FFC00
7FC0001FFC00
7FC0001FFC00
FFC0001FFC00
FFC0001FFC00
FFC0001FFC00
FFC0001FFC00
FFC0001FFC00
FFC0001FFC00
FFC0001FFC00
FFC0001FFC00
7FE0001FFC00
7FE0001FFC00
7FE0001FFC00
7FF0001FFC00
3FF0001FFC00
3FF8001FFE00
3FFC001FFE00
1FFC003FFF00
0FFF007FFFC0
0FFFC1FFFFE0
07FFFFFFFFE0
03FFFFEFFFE0
01FFFFCFFFE0
007FFF8FFC00
003FFF0F0000
0007F8180000
ENDCHAR
STARTCHAR atilde
ENCODING 227
SWIDTH 619 0
DWIDTH 46 0
BBX 43 58 2 -1
BITMAP
001F801C0000
007FE07E0000
00FFF07F0000
01FFF87F0000
01FFF83F0000
01FFFC3F8000
03FDFE3F8000
03F8FE7F0000
03F87FFF0000
03F83FFF0000
01FC3FFE0000
01FC1FFE0000
00FC0FFC0000
007003F00000
000000000000
000000000000
000000000000
000000000000
0007FC000400
003FFFC01C00
00FFFFE03C00
01FFFFF8FC00
03FFFFFFFC00
07FF03FFFC00
0FFC00FFFC00
1FF8007FFC00
1FF0003FFC00
3FF0003FFC00
3FE0001FFC00
7FE0001FFC00
7FC0001FFC00
7FC0001FFC00
7FC0001FFC00
7FC0001FFC00
FFC0001FFC00
FFC0001FFC00
FFC0001FFC00
FFC0001FFC00
FFC0001FFC00
FFC0001FFC00
FFC0001FFC00
FFC0001FFC00
7FE0001FFC00
7FE0001FFC00
7FE0001FFC00
7FF0001FFC00
3FF0001FFC00
3FF8001FFE00
3FFC001FFE00
1FFC003FFF00
0FFF007FFFC0
0FFFC1FFFFE0
07FFFFFFFFE0
03FFFFEFFFE0
01FFFFCFFFE0
007FFF8FFC00
003FFF0F0000
0007F8180000
ENDCHAR
STARTCHAR adieresis
ENCODING 228
SWIDTH 619 0
DWIDTH 46 0
BBX 43 57 2 -1
BITMAP
0078003C0000
01FC007F0000
03FE00FF8000
03FF01FF8000
07FF01FFC000
07FF01FFC000
07FF01FFC000
03FF01FF8000
03FE00FF8000
01FC007F0000
0078003C0000
000000000000
000000000000
000000000000
000000000000
000000000000
000000000000
0007FC000400
003FFFC01C00
00FFFFE03C00
01FFFFF8FC00
03FFFFFFFC00
07FF03FFFC00
0FFC00FFFC00
1FF8007FFC00
1FF0003FFC00
3FF0003FFC00
3FE0001FFC00
7FE0001FFC00
7FC0001FFC00
7FC0001FFC00
7FC0001FFC00
7FC0001FFC00
FFC0001FFC00
FFC0001FFC00
FFC0001FFC00
FFC0001FFC00
FFC0001FFC00
FFC0001FFC00
FFC0001FFC00
FFC0001FFC00
7FE0001FFC00
7FE0001FFC00
7FE0001FFC00
7FF0001FFC00
3FF0001FFC00
3FF8001FFE00
3FFC001FFE00
1FFC003FFF00
0FFF007FFFC0
0FFFC1FFFFE0
07FFFFFFFFE0
03FFFFEFFFE0
01FFFFCFFFE0
007FFF8FFC00
003FFF0F0000
0007F8180000
ENDCHAR
STARTCHAR aring
ENCODING 229
SWIDTH 619 0
DWIDTH 46 0
BBX 43 63 2 -1
BITMAP
0000FE000000
0003FF800000
0007FFC00000
000FFFE00000
001FFFF00000
003F83F80000
003F01F80000
003F00FC0000
007E00FC0000
007E00FC0000
007E00FC0000
007E00FC0000
003F00FC0000
003F01F80000
003F83F80000
001FFFF00000
000FFFF00000
0007FFE00000
0003FF800000
0000FE000000
000000000000
000000000000
000000000000
0007FC000400
003FFFC01C00
00FFFFE03C00
01FFFFF8FC00
03FFFFFFFC00
07FF03FFFC00
0FFC00FFFC00
1FF8007FFC00
1FF0003FFC00
3FF0003FFC00
3FE0001FFC00
7FE0001FFC00
7FC0001FFC00
7FC0001FFC00
7FC0001FFC00
7FC0001FFC00
FFC0001FFC00
FFC0001FFC00
FFC0001FFC00
FFC0001FFC00
FFC0001FFC00
FFC0001FFC00
FFC0001FFC00
FFC0001FFC00
7FE0001FFC00
7FE0001FFC00
7FE0001FFC00
7FF0001FFC00
3FF0001FFC00
3FF8001FFE00
3FFC001FFE00
1FFC003FFF00
0FFF007FFFC0
0FFFC1FFFFE0
07FFFFFFFFE0
03FFFFEFFFE0
01FFFFCFFFE0
007FFF8FFC00
003FFF0F0000
0007F8180000
ENDCHAR
STARTCHAR ae
ENCODING 230
SWIDTH 887 0
DWIDTH 67 0
BBX 64 40 2 -1
BITMAP
0007FC00043FC000
003FFFC01DFFF800
00FFFFE03FFFFC00
01FFFFF8FFFFFF00
03FFFFFFFFFFFF80
07FF03FFFFFFFFC0
0FFC00FFFFC3FFC0
1FF8007FFF00FFE0
1FF0003FFE00FFF0
3FF0003FFE007FF0
3FE0001FFC007FF8
7FE0001FFC003FF8
7FC0001FFC003FF8
7FC0001FFC003FF8
7FC0001FF8003FF8
7FC0001FF8007FF8
FFC0001FF801FFF0
FFC0001FFC07FF80
FFC0001FFC1FFE00
FFC0001FFC7FF800
FFC0001FFDFFE000
FFC0001FFFFF0000
FFC0001FFFFC0000
FFC0001FFFF00000
7FE0001FFFC00000
7FE0001FFE000000
7FE0001FFE000000
7FF0001FFF000000
3FF0001FFF80000C
3FF8001FFF80001F
3FFC001FFFC0003F
1FFC003FFFE0007E
0FFF007FFFF801FE
0FFFC1FFFFFE07FC
07FFFFFFFFFFFFF8
03FFFFEFFFFFFFF0
01FFFFCFFFFFFFE0
007FFF8FF3FFFFC0
003FFE0F00FFFF00
0007F818001FF800
ENDCHAR
STARTCHAR ccedilla
ENCODING 231
SWIDTH 514 0
DWIDTH 39 0
BBX 34 58 2 -19
BITMAP
0001FF0000
000FFFE000
003FFFF800
00FFFFFC00
01FFFFFE00
03FFFFFF00
07FF0FFF80
0FFC03FF80
1FF803FF80
1FF001FFC0
3FE001FFC0
3FE000FFC0
7FE000FF00
7FC000F800
7FC0008000
7FC0000000
FFC0000000
FFC0000000
FFC0000000
FFC0000000
FFC0000000
FFC0000000
FFC0000000
7FC0000000
7FC0000000
7FE0000000
7FE0000000
3FE0000000
3FF0000300
3FF00007C0
1FF8000FC0
0FFC001F80
0FFE007F80
07FF81FF00
03FFFFFE00
01FFFFFC00
00FFFFF800
007FFFF000
001FFFC000
0003FE0000
0003F00000
0007E00000
0007C00000
000FFF0000
000FFFC000
001FFFE000
001FFFF000
00001FF800
000007F800
000007F800
000007F800
000007F800
003C0FF800
003FFFF000
003FFFF000
001FFFE000
000FFF8000
0001FE0000
ENDCHAR
STARTCHAR egrave
ENCODING 232
SWIDTH 515 0
DWIDTH 39 0
BBX 36 60 2 -1
BITMAP
007E000000
00FE000000
01FF000000
01FF000000
01FF800000
01FF800000
01FFC00000
00FFC00000
00FFE00000
007FE00000
003FF00000
001FF80000
0007F80000
0003FC0000
0000FE0000
0000380000
0000000000
0000000000
0000000000
0000000000
0003FC0000
001FFF8000
007FFFC000
01FFFFF000
03FFFFF800
07FFFFFC00
0FFC3FFC00
1FF00FFE00
1FE00FFF00
3FE007FF00
3FC003FF80
7FC003FF80
7FC003FF80
7FC003FF80
7FC003FFC0
FFC007FF80
FFC01FFF00
FFC07FF800
FFC1FFE000
FFC7FF8000
FFDFFE0000
FFFFF00000
FFFFC00000
7FFF000000
7FFC000000
7FE0000000
7FF0000000
3FF0000000
3FF80000C0
1FF80001F0
1FFC0003F0
0FFE0007E0
0FFF801FE0
07FFF07FC0
03FFFFFF80
01FFFFFF00
007FFFFE00
003FFFFC00
000FFFF000
0001FF8000
ENDCHAR
STARTCHAR eacute
ENCODING 233
SWIDTH 515 0
DWIDTH 39 0
BBX 36 60 2 -1
BITMAP
0000020000
00000FC000
00000FE000
00001FF000
00001FF000
00003FF000
00003FF000
00007FE000
00007FE000
0000FFC000
0001FF8000
0001FF0000
0003FE0000
0007FC0000
0007F00000
000FE00000
0003800000
0000000000
0000000000
0000000000
0003FC0000
001FFF8000
007FFFC000
01FFFFF000
03FFFFF800
07FFFFFC00
0FFC3FFC00
1FF00FFE00
1FE00FFF00
3FE007FF00
3FC003FF80
7FC003FF80
7FC003FF80
7FC003FF80
7FC003FFC0
FFC007FF80
FFC01FFF00
FFC07FF800
FFC1FFE000
FFC7FF8000
FFDFFE0000
FFFFF00000
FFFFC00000
7FFF000000
7FFC000000
7FE0000000
7FF0000000
3FF0000000
3FF80000C0
1FF80001F0
1FFC0003F0
0FFE0007E0
0FFF801FE0
07FFF07FC0
03FFFFFF80
01FFFFFF00
007FFFFE00
003FFFFC00
000FFFF000
0001FF8000
ENDCHAR
STARTCHAR ecircumflex
ENCODING 234
SWIDTH 515 0
DWIDTH 39 0
BBX 36 59 2 -1
BITMAP
0000C00000
0001E00000
0003F80000
000FFC0000
001FFF0000
007FFF8000
01FFFFF000
07FFFFFC00
1FFF3FFE00
1FFF1FFF00
1FFE1FFF00
1FFC0FFF00
1FF807FF00
1FF003FE00
0FE001FE00
0780007C00
0000000000
0000000000
0000000000
0003FC0000
001FFF8000
007FFFC000
01FFFFF000
03FFFFF800
07FFFFFC00
0FFC3FFC00
1FF00FFE00
1FE00FFF00
3FE007FF00
3FC003FF80
7FC003FF80
7FC003FF80
7FC003FF80
7FC003FFC0
FFC007FF80
FFC01FFF00
FFC07FF800
FFC1FFE000
FFC7FF8000
FFDFFE0000
FFFFF00000
FFFFC00000
7FFF000000
7FFC000000
7FE0000000
7FF0000000
3FF0000000
3FF80000C0
1FF80001F0
1FFC0003F0
0FFE0007E0
0FFF801FE0
07FFF07FC0
03FFFFFF80
01FFFFFF00
007FFFFE00
003FFFFC00
000FFFF000
0001FF8000
ENDCHAR
STARTCHAR edieresis
ENCODING 235
SWIDTH 515 0
DWIDTH 39 0
BBX 36 57 2 -1
BITMAP
01C000F000
07F003F800
0FF803FC00
1FFC07FE00
1FFC0FFE00
1FFC0FFF00
1FFC0FFE00
1FFC07FE00
0FF803FC00
07F003F800
01C000F000
0000000000
0000000000
0000000000
0000000000
0000000000
0000000000
0003FC0000
001FFF8000
007FFFC000
01FFFFF000
03FFFFF800
07FFFFFC00
0FFC3FFC00
1FF00FFE00
1FE00FFF00
3FE007FF00
3FC003FF80
7FC003FF80
7FC003FF80
7FC003FF80
7FC003FFC0
FFC007FF80
FFC01FFF00
FFC07FF800
FFC1FFE000
FFC7FF8000
FFDFFE0000
FFFFF00000
FFFFC00000
7FFF000000
7FFC000000
7FE0000000
7FF0000000
3FF0000000
3FF80000C0
1FF80001F0
1FFC0003F0
0FFE0007E0
0FFF801FE0
07FFF07FC0
03FFFFFF80
01FFFFFF00
007FFFFE00
003FFFFC00
000FFFF000
0001FF8000
ENDCHAR
STARTCHAR igrave
ENCODING 236
SWIDTH 347 0
DWIDTH 26 0
BBX 24 59 1 0
BITMAP
0F8000
1FC000
3FE000
3FE000
3FE000
3FF000
3FF000
1FF800
1FFC00
0FFC00
07FE00
03FF00
01FF00
007F80
001FC0
000700
000000
000000
000080
000180
000380
000F80
001F80
007F80
01FF80
0FFF80
3FFF80
7FFF80
7FFF80
7FFF80
3FFF80
07FF80
03FF80
03FF80
03FF80
01FF80
01FF80
01FF80
01FF80
01FF80
01FF80
01FF80
01FF80
01FF80
01FF80
01FF80
01FF80
01FF80
01FF80
03FF80
03FFC0
03FFC0
07FFE0
0FFFF0
FFFFFF
FFFFFF
FFFFFF
FFFFFF
FFFFFF
ENDCHAR
STARTCHAR iacute
ENCODING 237
SWIDTH 347 0
DWIDTH 26 0
BBX 24 59 1 0
BITMAP
000040
0001F8
0003FC
0003FE
0003FE
0007FE
0007FE
000FFC
001FFC
001FF8
003FF0
003FE0
007FC0
00FF80
01FE00
01FC00
007000
000000
000080
000180
000380
000F80
001F80
007F80
01FF80
0FFF80
3FFF80
7FFF80
7FFF80
7FFF80
3FFF80
07FF80
03FF80
03FF80
03FF80
01FF80
01FF80
01FF80
01FF80
01FF80
01FF80
01FF80
01FF80
01FF80
01FF80
01FF80
01FF80
01FF80
01FF80
03FF80
03FFC0
03FFC0
07FFE0
0FFFF0
FFFFFF
FFFFFF
FFFFFF
FFFFFF
FFFFFF
ENDCHAR
STARTCHAR icircumflex
ENCODING 238
SWIDTH 347 0
DWIDTH 26 0
BBX 30 58 -2 0
BITMAP
00030000
00078000
001FE000
003FF000
007FFC00
01FFFE00
07FFFF80
3FFFFFF0
7FFCFFF8
7FFCFFFC
FFF87FFC
7FF03FFC
7FE01FF8
7FC00FF8
7F8007F8
3E0001F0
00000000
00001000
00003000
00007000
0001F000
0003F000
000FF000
003FF000
01FFF000
07FFF000
0FFFF000
0FFFF000
0FFFF000
07FFF000
00FFF000
007FF000
007FF000
007FF000
003FF000
003FF000
003FF000
003FF000
003FF000
003FF000
003FF000
003FF000
003FF000
003FF000
003FF000
003FF000
003FF000
003FF000
007FF000
007FF800
007FF800
00FFFC00
01FFFE00
1FFFFFE0
1FFFFFE0
1FFFFFE0
1FFFFFE0
1FFFFFE0
ENDCHAR
STARTCHAR idieresis
ENCODING 239
SWIDTH 347 0
DWIDTH 26 0
BBX 28 56 -1 0
BITMAP
1E000780
3F801FC0
7FC03FE0
FFC03FF0
FFE07FF0
FFE07FF0
FFE07FF0
FFC03FF0
7FC03FE0
3F801FC0
1E000780
00000000
00000000
00000000
00000000
00002000
00006000
0000E000
0003E000
0007E000
001FE000
007FE000
03FFE000
0FFFE000
1FFFE000
1FFFE000
1FFFE000
0FFFE000
01FFE000
00FFE000
00FFE000
00FFE000
007FE000
007FE000
007FE000
007FE000
007FE000
007FE000
007FE000
007FE000
007FE000
007FE000
007FE000
007FE000
007FE000
007FE000
00FFE000
00FFF000
00FFF000
01FFF800
03FFFC00
3FFFFFC0
3FFFFFC0
3FFFFFC0
3FFFFFC0
3FFFFFC0
ENDCHAR
STARTCHAR eth
ENCODING 240
SWIDTH 573 0
DWIDTH 43 0
BBX 39 62 2 -1
BITMAP
0000300000
7E00780000
7FE0FC0000
7FFDFE0000
7FFFFC0000
7FFFF80000
07FFF00000
00FFF80000
001FFC0000
003FFF0000
003FFF8000
007FFFC000
00FE7FE000
01FC3FF000
01FC1FF800
00781FF800
00300FFC00
000007FE00
000003FE00
000003FF00
000001FF80
000001FF80
0001FFFFC0
000FFFFFC0
003FFFFFE0
00FFFFFFE0
01FFFFFFF0
03FFFFFFF0
07FE0FFFF0
0FF803FFF8
0FF001FFF8
1FF000FFF8
3FE0007FFC
3FE0003FFC
3FC0003FFC
7FC0001FFC
7FC0001FFC
7FC0001FFC
7FC0000FFE
FFC0000FFE
FFC0000FFE
FFC0000FFE
FFC00007FE
FFE00007FE
FFE00007FC
7FE00007FC
7FE00007FC
7FF00007FC
7FF00007FC
3FF80007F8
3FF8000FF8
1FFC000FF0
1FFE001FF0
0FFE001FE0
07FF803FC0
07FFC0FFC0
03FFFFFF80
01FFFFFF00
007FFFFC00
003FFFF800
000FFFE000
0001FF0000
ENDCHAR
STARTCHAR ntilde
ENCODING 241
SWIDTH 681 0
DWIDTH 51 0
BBX 49 57 1 0
BITMAP
0000FC00E00000
0001FF01F00000
0007FF83F80000
0007FFC1F80000
000FFFE1FC0000
000FFFE1FC0000
000FE7F1FC0000
000FC3FBFC0000
000FC3FFF80000
000FE1FFF80000
000FE1FFF80000
000FE0FFF00000
0007E07FE00000
0003801F800000
00000000000000
00000000000000
00004000000000
0000C000000000
0003C03FC00000
000FC0FFF80000
007FC3FFFC0000
07FF87FFFE0000
3FFF8FFFFF0000
3FFF9FFFFF8000
3FFFBF07FF8000
3FFFFC03FFC000
1FFFF801FFC000
07FFF001FFC000
03FFE000FFC000
03FFC000FFC000
03FFC000FFC000
01FF8000FFC000
01FF8000FFC000
01FF8000FFC000
01FF8000FFC000
01FF8000FFC000
01FF8000FFC000
01FF8000FFC000
01FF8000FFC000
01FF8000FFC000
01FF8000FFC000
01FF8000FFC000
01FF8000FFC000
01FF8000FFC000
01FF8000FFC000
01FF8000FFC000
01FF8000FFC000
01FFC000FFE000
03FFC000FFE000
03FFC001FFE000
07FFE001FFF000
0FFFF003FFF800
FFFFFE1FFFFF80
FFFFFE1FFFFF80
FFFFFE1FFFFF80
FFFFFE1FFFFF80
FFFFFE1FFFFF80
ENDCHAR
STARTCHAR ograve
ENCODING 242
SWIDTH 574 0
DWIDTH 43 0
BBX 39 60 2 -1
BITMAP
000F800000
003FC00000
003FC00000
007FE00000
007FE00000
003FE00000
003FF00000
003FF00000
001FF80000
000FFC0000
0007FC0000
0003FE0000
0001FF0000
00007F8000
00003F8000
00000F0000
0000000000
0000000000
0000000000
0000000000
0001FF0000
000FFFC000
003FFFF000
00FFFFFC00
01FFFFFE00
03FFFFFF00
07FE1FFF80
0FF807FFC0
1FE003FFE0
1FE001FFF0
3FC000FFF0
3FC0007FF8
7F80003FF8
7F80003FFC
7F80001FFC
7F80001FFC
FF80000FFC
FF80000FFE
FFC00007FE
FFC00007FE
FFC00007FE
FFC00007FE
FFE00003FE
7FE00003FE
7FF00003FC
7FF00003FC
7FF80003FC
3FF80003FC
3FFC0007F8
1FFE0007F8
1FFF000FF0
0FFF800FF0
07FFC03FE0
03FFF0FFC0
03FFFFFF80
00FFFFFF00
007FFFFE00
003FFFF800
000FFFE000
0001FF0000
ENDCHAR
STARTCHAR oacute
ENCODING 243
SWIDTH 574 0
DWIDTH 43 0
BBX 39 60 2 -1
BITMAP
0000004000
000003F800
000003FC00
000007FC00
000007FC00
000007FC00
00000FFC00
00000FFC00
00001FF800
00003FF800
00003FF000
00007FE000
0000FFC000
0000FF0000
0001FE0000
0001F80000
0000E00000
0000000000
0000000000
0000000000
0001FF0000
000FFFC000
003FFFF000
00FFFFFC00
01FFFFFE00
03FFFFFF00
07FE1FFF80
0FF807FFC0
1FE003FFE0
1FE001FFF0
3FC000FFF0
3FC0007FF8
7F80003FF8
7F80003FFC
7F80001FFC
7F80001FFC
FF80000FFC
FF80000FFE
FFC00007FE
FFC00007FE
FFC00007FE
FFC00007FE
FFE00003FE
7FE00003FE
7FF00003FC
7FF00003FC
7FF80003FC
3FF80003FC
3FFC0007F8
1FFE0007F8
1FFF000FF0
0FFF800FF0
07FFC03FE0
03FFF0FFC0
03FFFFFF80
00FFFFFF00
007FFFFE00
003FFFF800
000FFFE000
0001FF0000
ENDCHAR
STARTCHAR ocircumflex
ENCODING 244
SWIDTH 574 0
DWIDTH 43 0
BBX 39 59 2 -1
BITMAP
0000180000
00007C0000
0000FE0000
0001FF8000
0007FFC000
001FFFF000
007FFFFC00
01FFEFFF00
07FFEFFFC0
07FFC7FFC0
07FFC3FFC0
07FF83FFC0
07FF01FFC0
03FE00FFC0
03FC003F80
01F0000F00
0000000000
0000000000
0000000000
0001FF0000
000FFFC000
003FFFF000
00FFFFFC00
01FFFFFE00
03FFFFFF00
07FE1FFF80
0FF807FFC0
1FE003FFE0
1FE001FFF0
3FC000FFF0
3FC0007FF8
7F80003FF8
7F80003FFC
7F80001FFC
7F80001FFC
FF80000FFC
FF80000FFE
FFC00007FE
FFC00007FE
FFC00007FE
FFC00007FE
FFE00003FE
7FE00003FE
7FF00003FC
7FF00003FC
7FF80003FC
3FF80003FC
3FFC0007F8
1FFE0007F8
1FFF000FF0
0FFF800FF0
07FFC03FE0
03FFF0FFC0
03FFFFFF80
00FFFFFF00
007FFFFE00
003FFFF800
000FFFE000
0001FF0000
ENDCHAR
STARTCHAR otilde
ENCODING 245
SWIDTH 574 0
DWIDTH 43 0
BBX 39 58 2 -1
BITMAP
001F801C00
003FE07E00
00FFF07F00
00FFF87F00
01FFF83F80
01FFFC3F80
01FCFE3F80
03F87F7F80
03F87FFF00
01F83FFF00
01FC3FFF00
01FC1FFE00
00FC0FFC00
007003F000
0000000000
0000000000
0000000000
0000000000
0001FF0000
000FFFC000
003FFFF000
00FFFFFC00
01FFFFFE00
03FFFFFF00
07FE1FFF80
0FF807FFC0
1FE003FFE0
1FE001FFF0
3FC000FFF0
3FC0007FF8
7F80003FF8
7F80003FFC
7F80001FFC
7F80001FFC
FF80000FFC
FF80000FFE
FFC00007FE
FFC00007FE
FFC00007FE
FFC00007FE
FFE00003FE
7FE00003FE
7FF00003FC
7FF00003FC
7FF80003FC
3FF80003FC
3FFC0007F8
1FFE0007F8
1FFF000FF0
0FFF800FF0
07FFC03FE0
03FFF0FFC0
03FFFFFF80
00FFFFFF00
007FFFFE00
003FFFF800
000FFFE000
0001FF0000
ENDCHAR
STARTCHAR odieresis
ENCODING 246
SWIDTH 574 0
DWIDTH 43 0
BBX 39 57 2 -1
BITMAP
0078003C00
01FC007F00
01FE00FF80
03FF01FF80
07FF01FFC0
07FF81FFC0
07FF01FFC0
03FF01FF80
01FE00FF80
01FC007F00
0078003C00
0000000000
0000000000
0000000000
0000000000
0000000000
0000000000
0001FF0000
000FFFC000
003FFFF000
00FFFFFC00
01FFFFFE00
03FFFFFF00
07FE1FFF80
0FF807FFC0
1FE003FFE0
1FE001FFF0
3FC000FFF0
3FC0007FF8
7F80003FF8
7F80003FFC
7F80001FFC
7F80001FFC
FF80000FFC
FF80000FFE
FFC00007FE
FFC00007FE
FFC00007FE
FFC00007FE
FFE00003FE
7FE00003FE
7FF00003FC
7FF00003FC
7FF80003FC
3FF80003FC
3FFC0007F8
1FFE0007F8
1FFF000FF0
0FFF800FF0
07FFC03FE0
03FFF0FFC0
03FFFFFF80
00FFFFFF00
007FFFFE00
003FFFF800
000FFFE000
0001FF0000
ENDCHAR
STARTCHAR divide
ENCODING 247
SWIDTH 600 0
DWIDTH 45 0
BBX 43 46 1 -1
BITMAP
00000E000000
00001F000000
00003F800000
00007FC00000
0000FFE00000
0001FFF00000
0003FFF80000
0003FFF80000
0003FFF80000
0001FFF00000
0000FFE00000
00007FC00000
00003F800000
00001F000000
00000E000000
000000000000
000000000000
000000000000
000000000000
000000000000
7FFFFFFFFFC0
FFFFFFFFFFE0
FFFFFFFFFFE0
FFFFFFFFFFE0
FFFFFFFFFFE0
FFFFFFFFFFE0
7FFFFFFFFFC0
000000000000
000000000000
000000000000
000000000000
00000E000000
00001F000000
00003F800000
00007FC00000
0000FFE00000
0001FFF00000
0003FFF80000
0003FFF80000
0003FFF80000
0001FFF00000
0000FFE00000
00007FC00000
00003F800000
00001F800000
00000E000000
ENDCHAR
STARTCHAR oslash
ENCODING 248
SWIDTH 574 0
DWIDTH 43 0
BBX 41 40 1 -1
BITMAP
0000FF007F80
0007FFE0FF80
001FFFF9FF00
007FFFFFFE00
00FFFFFFFC00
01FFFFFFF800
03FF0FFFF000
07FC03FFE000
0FF001FFF000
0FF000FFF800
1FE000FFF800
1FE001FFFC00
3FC001FFFC00
3FC003FFFE00
3FC007FFFE00
3FC00FFFFE00
7FC01FF7FE00
7FC03FE7FF00
7FE03FC3FF00
7FE07F83FF00
7FE0FF03FF00
7FE1FF03FF00
7FF3FE01FF00
3FF7FC01FF00
3FFFF801FE00
3FFFF001FE00
3FFFE001FE00
1FFFC001FE00
1FFFC003FC00
0FFF8003FC00
0FFF8007F800
07FFC007F800
03FFE01FF000
07FFF87FE000
0FFFFFFFC000
1FFFFFFF8000
3FFFFFFF0000
7FDFFFFC0000
7F87FFF00000
FF007F800000
ENDCHAR
STARTCHAR ugrave
ENCODING 249
SWIDTH 659 0
DWIDTH 49 0
BBX 48 60 1 -1
BITMAP
0000FC000000
0001FC000000
0003FE000000
0003FE000000
0003FF000000
0003FF000000
0003FF800000
0001FF800000
0001FFC00000
0000FFC00000
00007FE00000
00003FF00000
00000FF00000
000007F80000
000001FC0000
000000700000
000000000000
000000000000
000000000000
000000000000
000000000000
FFFF807FFFC0
FFFF807FFFC0
FFFF807FFFC0
FFFF807FFFC0
FFFF807FFFC0
0FFF8007FFC0
07FF8003FFC0
03FF8001FFC0
03FF8001FFC0
03FF8001FFC0
01FF8000FFC0
01FF8000FFC0
01FF8000FFC0
01FF8000FFC0
01FF8000FFC0
01FF8000FFC0
01FF8000FFC0
01FF8000FFC0
01FF8000FFC0
01FF8000FFC0
01FF8000FFC0
01FF8000FFC0
01FF8000FFC0
01FF8000FFC0
01FF8000FFC0
01FF8000FFC0
01FF8000FFE0
01FF8001FFE0
01FF8001FFE0
01FFC003FFE0
01FFC007FFF0
00FFE01F7FFC
00FFF07E7FFF
00FFFFFCFFFF
007FFFFCFFFF
003FFFF0FFFF
001FFFE0FFC0
000FFFC0F000
0001FE00C000
ENDCHAR
STARTCHAR uacute
ENCODING 250
SWIDTH 659 0
DWIDTH 49 0
BBX 48 60 1 -1
BITMAP
000000040000
0000001F8000
0000001FC000
0000003FE000
0000003FE000
0000007FE000
0000007FE000
000000FFC000
000000FFC000
000001FF8000
000003FF0000
000003FE0000
000007FC0000
00000FF80000
00000FE00000
00001FC00000
000007000000
000000000000
000000000000
000000000000
000000000000
FFFF807FFFC0
FFFF807FFFC0
FFFF807FFFC0
FFFF807FFFC0
FFFF807FFFC0
0FFF8007FFC0
07FF8003FFC0
03FF8001FFC0
03FF8001FFC0
03FF8001FFC0
01FF8000FFC0
01FF8000FFC0
01FF8000FFC0
01FF8000FFC0
01FF8000FFC0
01FF8000FFC0
01FF8000FFC0
01FF8000FFC0
01FF8000FFC0
01FF8000FFC0
01FF8000FFC0
01FF8000FFC0
01FF8000FFC0
01FF8000FFC0
01FF8000FFC0
01FF8000FFC0
01FF8000FFE0
01FF8001FFE0
01FF8001FFE0
01FFC003FFE0
01FFC007FFF0
00FFE01F7FFC
00FFF07E7FFF
00FFFFFCFFFF
007FFFFCFFFF
003FFFF0FFFF
001FFFE0FFC0
000FFFC0F000
0001FE00C000
ENDCHAR
STARTCHAR ucircumflex
ENCODING 251
SWIDTH 659 0
DWIDTH 49 0
BBX 48 59 1 -1
BITMAP
000001800000
000003C00000
000007F00000
00001FF80000
00003FFE0000
0000FFFF0000
0003FFFFE000
000FFFFFF800
003FFE7FFC00
003FFE3FFE00
003FFC3FFE00
003FF81FFE00
003FF00FFE00
003FE007FC00
001FC003FC00
000F0000F800
000000000000
000000000000
000000000000
000000000000
FFFF807FFFC0
FFFF807FFFC0
FFFF807FFFC0
FFFF807FFFC0
FFFF807FFFC0
0FFF8007FFC0
07FF8003FFC0
03FF8001FFC0
03FF8001FFC0
03FF8001FFC0
01FF8000FFC0
01FF8000FFC0
01FF8000FFC0
01FF8000FFC0
01FF8000FFC0
01FF8000FFC0
01FF8000FFC0
01FF8000FFC0
01FF8000FFC0
01FF8000FFC0
01FF8000FFC0
01FF8000FFC0
01FF8000FFC0
01FF8000FFC0
01FF8000FFC0
01FF8000FFC0
01FF8000FFE0
01FF8001FFE0
01FF8001FFE0
01FFC003FFE0
01FFC007FFF0
00FFE01F7FFC
00FFF07E7FFF
00FFFFFCFFFF
007FFFFCFFFF
003FFFF0FFFF
001FFFE0FFC0
000FFFC0F000
0001FE00C000
ENDCHAR
STARTCHAR udieresis
ENCODING 252
SWIDTH 659 0
DWIDTH 49 0
BBX 48 57 1 -1
BITMAP
00038001E000
000FE007F000
001FF007F800
003FF80FFC00
003FF81FFC00
003FF81FFE00
003FF81FFC00
003FF80FFC00
001FF007F800
000FE007F000
00038001E000
000000000000
000000000000
000000000000
000000000000
000000000000
000000000000
000000000000
FFFF807FFFC0
FFFF807FFFC0
FFFF807FFFC0
FFFF807FFFC0
FFFF807FFFC0
0FFF8007FFC0
07FF8003FFC0
03FF8001FFC0
03FF8001FFC0
03FF8001FFC0
01FF8000FFC0
01FF8000FFC0
01FF8000FFC0
01FF8000FFC0
01FF8000FFC0
01FF8000FFC0
01FF8000FFC0
01FF8000FFC0
01FF8000FFC0
01FF8000FFC0
01FF8000FFC0
01FF8000FFC0
01FF8000FFC0
01FF8000FFC0
01FF8000FFC0
01FF8000FFC0
01FF8000FFE0
01FF8001FFE0
01FF8001FFE0
01FFC003FFE0
01FFC007FFF0
00FFE01F7FFC
00FFF07E7FFF
00FFFFFCFFFF
007FFFFCFFFF
003FFFF0FFFF
001FFFE0FFC0
000FFFC0F000
0001FE00C000
ENDCHAR
STARTCHAR yacute
ENCODING 253
SWIDTH 578 0
DWIDTH 43 0
BBX 43 76 0 -17
BITMAP
000000080000
0000003F0000
0000007F8000
0000007FC000
000000FFC000
000000FFC000
000000FF8000
000001FF8000
000003FF8000
000003FF0000
000007FE0000
000007FC0000
00000FF80000
00001FF00000
00003FC00000
00003F800000
00000E000000
000000000000
000000000000
000000000000
000000000000
7FFFF03FFFE0
FFFFF03FFFE0
FFFFF03FFFE0
FFFFF03FFFE0
7FFFF03FFFE0
1FFF8003FE00
0FFF0003FC00
07FF0003FC00
07FF8003F800
03FF8003F000
03FF8007F000
01FFC007F000
01FFC00FE000
00FFE00FE000
00FFE01FC000
007FF01FC000
007FF03F8000
003FF83F8000
003FF87F0000
001FF87F0000
001FFCFE0000
000FFCFE0000
000FFFFC0000
0007FFFC0000
0007FFF80000
0003FFF80000
0003FFF00000
0001FFF00000
0001FFE00000
0001FFE00000
0000FFC00000
0000FFC00000
00007F800000
00007F800000
0000FF000000
0000FF000000
0001FE000000
0001FE000000
0003FC000000
0003FC000000
0003F8000000
0007F8000000
0007F0000000
000FF0000000
000FE0000000
001FE0000000
001FC0000000
003FC0000000
003F80000000
007F80000000
007F00000000
007F00000000
007E00000000
001E00000000
000400000000
ENDCHAR
STARTCHAR thorn
ENCODING 254
SWIDTH 631 0
DWIDTH 47 0
BBX 44 73 1 -16
BITMAP
000180000000
000F80000000
007F80000000
7FFF80000000
7FFF80000000
7FFF80000000
7FFF80000000
3FFF80000000
0FFF80000000
07FF80000000
03FF80000000
03FF80000000
03FF80000000
03FF80000000
03FF80000000
03FF80000000
03FF80000000
03FF80000000
03FF81FE0000
03FF87FFC000
03FF9FFFF000
03FF3FFFF800
03FF7FFFFC00
03FF7FFFFE00
03FFFC3FFF00
03FFF007FF80
03FFE003FF80
03FFC001FFC0
03FF8000FFC0
03FF8000FFE0
03FF80007FE0
03FF80007FE0
03FF80007FF0
03FF80003FF0
03FF80003FF0
03FF80003FF0
03FF80003FF0
03FF80003FF0
03FF80003FF0
03FF80003FF0
03FF80003FF0
03FF80003FF0
03FF80003FF0
03FF80003FF0
03FF80003FE0
03FF80003FE0
03FFC0003FE0
03FFC0007FE0
03FFC0007FC0
03FFE000FFC0
03FFF001FF80
03FFF803FF00
03FFFE07FE00
03FFFFFFFE00
03FFFFFFF800
03FFBFFFF000
03FF8FFFC000
03FF83FE0000
03FF80000000
03FF80000000
03FF80000000
03FF80000000
03FF80000000
03FF80000000
03FFC0000000
07FFC0000000
07FFE0000000
1FFFF0000000
FFFFFE000000
FFFFFE000000
FFFFFE000000
FFFFFE000000
FFFFFE000000
ENDCHAR
STARTCHAR ydieresis
ENCODING 255
SWIDTH 578 0
DWIDTH 43 0
BBX 43 73 0 -17
BITMAP
000F0003C000
001FC00FE000
003FE01FF000
007FE01FF800
007FF03FF800
007FF03FF800
007FF03FF800
007FE01FF800
003FE01FF000
001FC00FE000
000F0003C000
000000000000
000000000000
000000000000
000000000000
000000000000
000000000000
000000000000
7FFFF03FFFE0
FFFFF03FFFE0
FFFFF03FFFE0
FFFFF03FFFE0
7FFFF03FFFE0
1FFF8003FE00
0FFF0003FC00
07FF0003FC00
07FF8003F800
03FF8003F000
03FF8007F000
01FFC007F000
01FFC00FE000
00FFE00FE000
00FFE01FC000
007FF01FC000
007FF03F8000
003FF83F8000
003FF87F0000
001FF87F0000
001FFCFE0000
000FFCFE0000
000FFFFC0000
0007FFFC0000
0007FFF80000
0003FFF80000
0003FFF00000
0001FFF00000
0001FFE00000
0001FFE00000
0000FFC00000
0000FFC00000
00007F800000
00007F800000
0000FF000000
0000FF000000
0001FE000000
0001FE000000
0003FC000000
0003FC000000
0003F8000000
0007F8000000
0007F0000000
000FF0000000
000FE0000000
001FE0000000
001FC0000000
003FC0000000
003F80000000
007F80000000
007F00000000
007F00000000
007E00000000
001E00000000
000400000000
ENDCHAR
STARTCHAR Amacron
ENCODING 256
SWIDTH 786 0
DWIDTH 59 0
BBX 59 73 0 0
BITMAP
00003FFFFF000000
00003FFFFF000000
00003FFFFF000000
00003FFFFF000000
00003FFFFF000000
00003FFFFF000000
00003FFFFF000000
0000000000000000
0000000000000000
0000000000000000
0000000000000000
0000000000000000
0000000000000000
0000000000000000
0000000000000000
0000000000000000
000000FFE0000000
000001FFE0000000
000001FFF0000000
000003FFF0000000
000003FFF0000000
000003FFF8000000
000007FFF8000000
000007FFF8000000
000007FFFC000000
00000FFFFC000000
00000FFFFE000000
00001FFFFE000000
00001FCFFE000000
00001FCFFF000000
00003F87FF000000
00003F87FF800000
00003F87FF800000
00007F03FF800000
00007F03FFC00000
00007F03FFC00000
0000FE01FFC00000
0000FE01FFE00000
0001FE00FFE00000
0001FC00FFF00000
0001FC00FFF00000
0003FC007FF00000
0003F8007FF80000
0003F8007FF80000
0007F8003FFC0000
0007F0003FFC0000
000FF0001FFC0000
000FE0001FFE0000
000FFFFFFFFE0000
001FFFFFFFFE0000
001FFFFFFFFF0000
001FFFFFFFFF0000
003FFFFFFFFF8000
003FFFFFFFFF8000
003F800003FF8000
007F000003FFC000
007F000003FFC000
00FF000001FFE000
00FE000001FFE000
00FE000001FFE000
01FE000000FFF000
01FE000000FFF000
01FC000000FFF000
03FC000000FFF800
03FE000000FFF800
07FE000001FFFC00
07FF000003FFFC00
1FFFC00007FFFF00
7FFFF8007FFFFFC0
FFFFF8007FFFFFE0
FFFFF8007FFFFFE0
FFFFF8007FFFFFE0
7FFFF8007FFFFFC0
ENDCHAR
STARTCHAR amacron
ENCODING 257
SWIDTH 619 0
DWIDTH 46 0
BBX 43 55 2 -1
BITMAP
00FFFFFC0000
00FFFFFE0000
00FFFFFE0000
00FFFFFE0000
00FFFFFE0000
00FFFFFE0000
00FFFFFC0000
000000000000
000000000000
000000000000
000000000000
000000000000
000000000000
000000000000
000000000000
0007FC000400
003FFFC01C00
00FFFFE03C00
01FFFFF8FC00
03FFFFFFFC00
07FF03FFFC00
0FFC00FFFC00
1FF8007FFC00
1FF0003FFC00
3FF0003FFC00
3FE0001FFC00
7FE0001FFC00
7FC0001FFC00
7FC0001FFC00
7FC0001FFC00
7FC0001FFC00
FFC0001FFC00
FFC0001FFC00
FFC0001FFC00
FFC0001FFC00
FFC0001FFC00
FFC0001FFC00
FFC0001FFC00
FFC0001FFC00
7FE0001FFC00
7FE0001FFC00
7FE0001FFC00
7FF0001FFC00
3FF0001FFC00
3FF8001FFE00
3FFC001FFE00
1FFC003FFF00
0FFF007FFFC0
0FFFC1FFFFE0
07FFFFFFFFE0
03FFFFEFFFE0
01FFFFCFFFE0
007FFF8FFC00
003FFF0F0000
0007F8180000
ENDCHAR
STARTCHAR Abreve
ENCODING 258
SWIDTH 786 0
DWIDTH 59 0
BBX 59 76 0 0
BITMAP
0000020010000000
00007F003F800000
00007F003FC00000
00007F003F800000
00007F807F800000
00007F807F800000
00003FE1FF000000
00001FFFFF000000
00001FFFFE000000
00000FFFFC000000
000007FFF8000000
000001FFE0000000
0000007F80000000
0000000000000000
0000000000000000
0000000000000000
0000000000000000
0000000000000000
0000000000000000
000000FFE0000000
000001FFE0000000
000001FFF0000000
000003FFF0000000
000003FFF0000000
000003FFF8000000
000007FFF8000000
000007FFF8000000
000007FFFC000000
00000FFFFC000000
00000FFFFE000000
00001FFFFE000000
00001FCFFE000000
00001FCFFF000000
00003F87FF000000
00003F87FF800000
00003F87FF800000
00007F03FF800000
00007F03FFC00000
00007F03FFC00000
0000FE01FFC00000
0000FE01FFE00000
0001FE00FFE00000
0001FC00FFF00000
0001FC00FFF00000
0003FC007FF00000
0003F8007FF80000
0003F8007FF80000
0007F8003FFC0000
0007F0003FFC0000
000FF0001FFC0000
000FE0001FFE0000
000FFFFFFFFE0000
001FFFFFFFFE0000
001FFFFFFFFF0000
001FFFFFFFFF0000
003FFFFFFFFF8000
003FFFFFFFFF8000
003F800003FF8000
007F000003FFC000
007F000003FFC000
00FF000001FFE000
00FE000001FFE000
00FE000001FFE000
01FE000000FFF000
01FE000000FFF000
01FC000000FFF000
03FC000000FFF800
03FE000000FFF800
07FE000001FFFC00
07FF000003FFFC00
1FFFC00007FFFF00
7FFFF8007FFFFFC0
FFFFF8007FFFFFE0
FFFFF8007FFFFFE0
FFFFF8007FFFFFE0
7FFFF8007FFFFFC0
ENDCHAR
STARTCHAR abreve
ENCODING 259
SWIDTH 619 0
DWIDTH 46 0
BBX 43 58 2 -1
BITMAP
000800400000
01FC007F0000
01FC007F0000
01FE00FF0000
01FE00FF0000
00FF01FE0000
00FF83FE0000
007FFFFC0000
003FFFF80000
001FFFF00000
000FFFE00000
0007FFC00000
0000FE000000
000000000000
000000000000
000000000000
000000000000
000000000000
0007FC000400
003FFFC01C00
00FFFFE03C00
01FFFFF8FC00
03FFFFFFFC00
07FF03FFFC00
0FFC00FFFC00
1FF8007FFC00
1FF0003FFC00
3FF0003FFC00
3FE0001FFC00
7FE0001FFC00
7FC0001FFC00
7FC0001FFC00
7FC0001FFC00
7FC0001FFC00
FFC0001FFC00
FFC0001FFC00
FFC0001FFC00
FFC0001FFC00
FFC0001FFC00
FFC0001FFC00
FFC0001FFC00
FFC0001FFC00
7FE0001FFC00
7FE0001FFC00
7FE0001FFC00
7FF0001FFC00
3FF0001FFC00
3FF8001FFE00
3FFC001FFE00
1FFC003FFF00
0FFF007FFFC0
0FFFC1FFFFE0
07FFFFFFFFE0
03FFFFEFFFE0
01FFFFCFFFE0
007FFF8FFC00
003FFF0F0000
0007F8180000
ENDCHAR
STARTCHAR Aogonek
ENCODING 260
SWIDTH 786 0
DWIDTH 59 0
BBX 63 76 0 -19
BITMAP
000000FFE0000000
000001FFE0000000
000001FFF0000000
000003FFF0000000
000003FFF0000000
000003FFF8000000
000007FFF8000000
000007FFF8000000
000007FFFC000000
00000FFFFC000000
00000FFFFE000000
00001FFFFE000000
00001FCFFE000000
00001FCFFF000000
00003F87FF000000
00003F87FF800000
00003F87FF800000
00007F03FF800000
00007F03FFC00000
00007F03FFC00000
0000FE01FFC00000
0000FE01FFE00000
0001FE00FFE00000
0001FC00FFF00000
0001FC00FFF00000
0003FC007FF00000
0003F8007FF80000
0003F8007FF80000
0007F8003FFC0000
0007F0003FFC0000
000FF0001FFC0000
000FE0001FFE0000
000FFFFFFFFE0000
001FFFFFFFFE0000
001FFFFFFFFF0000
001FFFFFFFFF0000
003FFFFFFFFF8000
003FFFFFFFFF8000
003F800003FF8000
007F000003FFC000
007F000003FFC000
00FF000001FFE000
00FE000001FFE000
00FE000001FFE000
01FE000000FFF000
01FE000000FFF000
01FC000000FFF000
03FC000000FFF800
03FE000000FFF800
07FE000001FFFC00
07FF000003FFFC00
1FFFC00007FFFF00
7FFFF8007FFFFFC0
FFFFF8007FFFFFE0
FFFFF8007FFFFFE0
FFFFF8007FFFFFE0
7FFFF8007FFFFFC0
000000000003FE00
000000000007F800
00000000000FF000
00000000001FE000
00000000001FE000
00000000001FC000
00000000001FC000
00000000001FC000
00000000001FC000
00000000001FE000
00000000001FE000
00000000001FF006
00000000000FFC3E
00000000000FFFFE
000000000007FFFE
000000000003FFFE
000000000001FFFC
000000000000FFF8
0000000000001FC0
ENDCHAR
STARTCHAR aogonek
ENCODING 261
SWIDTH 619 0
DWIDTH 46 0
BBX 45 56 2 -17
BITMAP
0007FC000400
003FFFC01C00
00FFFFE03C00
01FFFFF8FC00
03FFFFFFFC00
07FF03FFFC00
0FFC00FFFC00
1FF8007FFC00
1FF0003FFC00
3FF0003FFC00
3FE0001FFC00
7FE0001FFC00
7FC0001FFC00
7FC0001FFC00
7FC0001FFC00
7FC0001FFC00
FFC0001FFC00
FFC0001FFC00
FFC0001FFC00
FFC0001FFC00
FFC0001FFC00
FFC0001FFC00
FFC0001FFC00
FFC0001FFC00
7FE0001FFC00
7FE0001FFC00
7FE0001FFC00
7FF0001FFC00
3FF0001FFC00
3FF8001FFE00
3FFC001FFE00
1FFC003FFF00
0FFF007FFFC0
0FFFC1FFFFE0
07FFFFFFFFE0
03FFFFEFFFE0
01FFFFCFFFE0
007FFF9FFC00
003FFF3FE000
0007F83FC000
0000007F8000
0000007F0000
0000007F0000
0000007F0000
000000FF0000
0000007F0000
0000007F0000
0000007F8000
0000007FC018
0000003FF0F8
0000003FFFF8
0000001FFFF8
0000000FFFF8
00000007FFF0
00000003FFC0
00000000FF00
ENDCHAR
STARTCHAR Cacute
ENCODING 262
SWIDTH 749 0
DWIDTH 56 0
BBX 53 79 3 -1
BITMAP
00000000800000
00000003F00000
00000007F80000
00000007FC0000
00000007FC0000
0000000FFC0000
0000000FFC0000
0000001FF80000
0000003FF80000
0000003FF00000
0000007FE00000
0000007FC00000
000000FF800000
000001FF000000
000003FC000000
000003F8000000
000000E0000000
00000000000000
00000000000000
00000000000000
000007FF800000
00007FFFF80000
0001FFFFFE0000
0007FFFFFF8000
001FFFFFFFE000
003FFFFFFFF000
007FFF03FFF800
00FFF800FFFC00
01FFE0003FFE00
03FFC0001FFE00
07FF80000FFF00
07FF80000FFF80
0FFF000007FF80
1FFE000007FFC0
1FFE000007FFC0
3FFE000007FFC0
3FFC000003FFC0
3FFC000003FFC0
7FFC000003FF00
7FF8000003F800
7FF8000003E000
7FF80000030000
FFF80000000000
FFF80000000000
FFF80000000000
FFF00000000000
FFF00000000000
FFF00000000000
FFF00000000000
FFF00000000000
FFF80000000000
FFF80000000000
FFF80000000000
FFF80000000000
FFF80000000000
FFF80000000000
FFF80000000000
FFFC0000000000
7FFC0000000000
7FFC00000001E0
7FFC00000003F8
7FFE00000003F8
3FFE00000007F0
3FFF00000007F0
1FFF0000000FE0
1FFF8000001FE0
0FFF8000003FC0
0FFFC000007F80
07FFE00000FF80
03FFF00001FF00
01FFFC0007FE00
00FFFF803FFC00
007FFFFFFFF800
003FFFFFFFF000
001FFFFFFFE000
0007FFFFFF8000
0001FFFFFE0000
00007FFFF80000
000007FF800000
ENDCHAR
STARTCHAR cacute
ENCODING 263
SWIDTH 514 0
DWIDTH 39 0
BBX 34 60 2 -1
BITMAP
0000010000
000007E000
00000FF000
00000FF800
00000FF800
00001FF800
00001FF800
00003FF000
00003FF000
00007FE000
0000FFC000
0000FF8000
0001FF0000
0003FE0000
0007F80000
0007F00000
0001C00000
0000000000
0000000000
0000000000
0001FF0000
000FFFE000
003FFFF800
00FFFFFC00
01FFFFFE00
03FFFFFF00
07FF0FFF80
0FFC03FF80
1FF803FF80
1FF001FFC0
3FE001FFC0
3FE000FFC0
7FE000FF00
7FC000F800
7FC0008000
7FC0000000
FFC0000000
FFC0000000
FFC0000000
FFC0000000
FFC0000000
FFC0000000
FFC0000000
7FC0000000
7FC0000000
7FE0000000
7FE0000000
3FE0000000
3FF0000300
3FF00007C0
1FF8000FC0
0FFC001F80
0FFE007F80
07FF81FF00
03FFFFFE00
01FFFFFC00
00FFFFF800
007FFFF000
001FFFC000
0003FE0000
ENDCHAR
STARTCHAR Ccircumflex
ENCODING 264
SWIDTH 749 0
DWIDTH 56 0
BBX 53 78 3 -1
BITMAP
00000030000000
00000078000000
000001FE000000
000003FF000000
000007FFC00000
00001FFFE00000
00007FFFF80000
0003FFFFFF0000
0007FFCFFF8000
0007FFCFFFC000
0007FF87FFC000
0007FF03FFC000
0007FE01FF8000
0007FC00FF8000
0003F8007F8000
0003E0001F0000
00000000000000
00000000000000
00000000000000
000007FF800000
00007FFFF80000
0001FFFFFE0000
0007FFFFFF8000
001FFFFFFFE000
003FFFFFFFF000
007FFF03FFF800
00FFF800FFFC00
01FFE0003FFE00
03FFC0001FFE00
07FF80000FFF00
07FF80000FFF80
0FFF000007FF80
1FFE000007FFC0
1FFE000007FFC0
3FFE000007FFC0
3FFC000003FFC0
3FFC000003FFC0
7FFC000003FF00
7FF8000003F800
7FF8000003E000
7FF80000030000
FFF80000000000
FFF80000000000
FFF80000000000
FFF00000000000
FFF00000000000
FFF00000000000
FFF00000000000
FFF00000000000
FFF80000000000
FFF80000000000
FFF80000000000
FFF80000000000
FFF80000000000
FFF80000000000
FFF80000000000
FFFC0000000000
7FFC0000000000
7FFC00000001E0
7FFC00000003F8
7FFE00000003F8
3FFE00000007F0
3FFF00000007F0
1FFF0000000FE0
1FFF8000001FE0
0FFF8000003FC0
0FFFC000007F80
07FFE00000FF80
03FFF00001FF00
01FFFC0007FE00
00FFFF803FFC00
007FFFFFFFF800
003FFFFFFFF000
001FFFFFFFE000
0007FFFFFF8000
0001FFFFFE0000
00007FFFF80000
000007FF800000
ENDCHAR
STARTCHAR ccircumflex
ENCODING 265
SWIDTH 514 0
DWIDTH 39 0
BBX 34 59 2 -1
BITMAP
0000600000
0000F00000
0001FC0000
0007FE0000
000FFF8000
003FFFC000
00FFFFF000
07FFFFFE00
0FFF9FFF00
0FFF9FFF80
0FFF0FFF80
0FFE07FF80
0FFC03FF00
0FF801FF00
07F000FF00
07C0003E00
0000000000
0000000000
0000000000
0001FF0000
000FFFE000
003FFFF800
00FFFFFC00
01FFFFFE00
03FFFFFF00
07FF0FFF80
0FFC03FF80
1FF803FF80
1FF001FFC0
3FE001FFC0
3FE000FFC0
7FE000FF00
7FC000F800
7FC0008000
7FC0000000
FFC0000000
FFC0000000
FFC0000000
FFC0000000
FFC0000000
FFC0000000
FFC0000000
7FC0000000
7FC0000000
7FE0000000
7FE0000000
3FE0000000
3FF0000300
3FF00007C0
1FF8000FC0
0FFC001F80
0FFE007F80
07FF81FF00
03FFFFFE00
01FFFFFC00
00FFFFF800
007FFFF000
001FFFC000
0003FE0000
ENDCHAR
STARTCHAR Cdotaccent
ENCODING 266
SWIDTH 749 0
DWIDTH 56 0
BBX 53 76 3 -1
BITMAP
00000078000000
000000FE000000
000001FF000000
000003FF000000
000003FF800000
000007FF800000
000003FF800000
000003FF000000
000001FF000000
000000FE000000
00000078000000
00000000000000
00000000000000
00000000000000
00000000000000
00000000000000
00000000000000
000007FF800000
00007FFFF80000
0001FFFFFE0000
0007FFFFFF8000
001FFFFFFFE000
003FFFFFFFF000
007FFF03FFF800
00FFF800FFFC00
01FFE0003FFE00
03FFC0001FFE00
07FF80000FFF00
07FF80000FFF80
0FFF000007FF80
1FFE000007FFC0
1FFE000007FFC0
3FFE000007FFC0
3FFC000003FFC0
3FFC000003FFC0
7FFC000003FF00
7FF8000003F800
7FF8000003E000
7FF80000030000
FFF80000000000
FFF80000000000
FFF80000000000
FFF00000000000
FFF00000000000
FFF00000000000
FFF00000000000
FFF00000000000
FFF80000000000
FFF80000000000
FFF80000000000
FFF80000000000
FFF80000000000
FFF80000000000
FFF80000000000
FFFC0000000000
7FFC0000000000
7FFC00000001E0
7FFC00000003F8
7FFE00000003F8
3FFE00000007F0
3FFF00000007F0
1FFF0000000FE0
1FFF8000001FE0
0FFF8000003FC0
0FFFC000007F80
07FFE00000FF80
03FFF00001FF00
01FFFC0007FE00
00FFFF803FFC00
007FFFFFFFF800
003FFFFFFFF000
001FFFFFFFE000
0007FFFFFF8000
0001FFFFFE0000
00007FFFF80000
000007FF800000
ENDCHAR
STARTCHAR cdotaccent
ENCODING 267
SWIDTH 514 0
DWIDTH 39 0
BBX 34 57 2 -1
BITMAP
0000F00000
0001FC0000
0003FE0000
0007FE0000
0007FF0000
000FFF0000
0007FF0000
0007FE0000
0003FE0000
0001FC0000
0000F00000
0000000000
0000000000
0000000000
0000000000
0000000000
0000000000
0001FF0000
000FFFE000
003FFFF800
00FFFFFC00
01FFFFFE00
03FFFFFF00
07FF0FFF80
0FFC03FF80
1FF803FF80
1FF001FFC0
3FE001FFC0
3FE000FFC0
7FE000FF00
7FC000F800
7FC0008000
7FC0000000
FFC0000000
FFC0000000
FFC0000000
FFC0000000
FFC0000000
FFC0000000
FFC0000000
7FC0000000
7FC0000000
7FE0000000
7FE0000000
3FE0000000
3FF0000300
3FF00007C0
1FF8000FC0
0FFC001F80
0FFE007F80
07FF81FF00
03FFFFFE00
01FFFFFC00
00FFFFF800
007FFFF000
001FFFC000
0003FE0000
ENDCHAR
STARTCHAR Ccaron
ENCODING 268
SWIDTH 749 0
DWIDTH 56 0
BBX 53 78 3 -1
BITMAP
0003E0001F0000
0007F8007F0000
0007FC00FF8000
000FFE01FF8000
000FFF03FF8000
000FFF87FF8000
000FFF8FFF8000
0007FFCFFF8000
0003FFFFFE0000
00007FFFF80000
00001FFFE00000
00000FFF800000
000003FF000000
000001FC000000
00000078000000
00000030000000
00000000000000
00000000000000
00000000000000
000007FF800000
00007FFFF80000
0001FFFFFE0000
0007FFFFFF8000
001FFFFFFFE000
003FFFFFFFF000
007FFF03FFF800
00FFF800FFFC00
01FFE0003FFE00
03FFC0001FFE00
07FF80000FFF00
07FF80000FFF80
0FFF000007FF80
1FFE000007FFC0
1FFE000007FFC0
3FFE000007FFC0
3FFC000003FFC0
3FFC000003FFC0
7FFC000003FF00
7FF8000003F800
7FF8000003E000
7FF80000030000
FFF80000000000
FFF80000000000
FFF80000000000
FFF00000000000
FFF00000000000
FFF00000000000
FFF00000000000
FFF00000000000
FFF80000000000
FFF80000000000
FFF80000000000
FFF80000000000
FFF80000000000
FFF80000000000
FFF80000000000
FFFC0000000000
7FFC0000000000
7FFC00000001E0
7FFC00000003F8
7FFE00000003F8
3FFE00000007F0
3FFF00000007F0
1FFF0000000FE0
1FFF8000001FE0
0FFF8000003FC0
0FFFC000007F80
07FFE00000FF80
03FFF00001FF00
01FFFC0007FE00
00FFFF803FFC00
007FFFFFFFF800
003FFFFFFFF000
001FFFFFFFE000
0007FFFFFF8000
0001FFFFFE0000
00007FFFF80000
000007FF800000
ENDCHAR
STARTCHAR ccaron
ENCODING 269
SWIDTH 514 0
DWIDTH 39 0
BBX 34 59 2 -1
BITMAP
07C0003E00
0FF000FE00
0FF801FF00
1FFC03FF00
1FFE07FF00
1FFF0FFF00
1FFF9FFF00
0FFF9FFF00
07FFFFFE00
00FFFFF000
003FFFC000
001FFF0000
0007FE0000
0003FC0000
0000F00000
0000600000
0000000000
0000000000
0000000000
0001FF0000
000FFFE000
003FFFF800
00FFFFFC00
01FFFFFE00
03FFFFFF00
07FF0FFF80
0FFC03FF80
1FF803FF80
1FF001FFC0
3FE001FFC0
3FE000FFC0
7FE000FF00
7FC000F800
7FC0008000
7FC0000000
FFC0000000
FFC0000000
FFC0000000
FFC0000000
FFC0000000
FFC0000000
FFC0000000
7FC0000000
7FC0000000
7FE0000000
7FE0000000
3FE0000000
3FF0000300
3FF00007C0
1FF8000FC0
0FFC001F80
0FFE007F80
07FF81FF00
03FFFFFE00
01FFFFFC00
00FFFFF800
007FFFF000
001FFFC000
0003FE0000
ENDCHAR
STARTCHAR Dcaron
ENCODING 270
SWIDTH 790 0
DWIDTH 59 0
BBX 55 77 2 0
BITMAP
001F0000F80000
001FC003FC0000
003FE007FC0000
003FF00FFC0000
003FF81FFE0000
003FFC3FFE0000
003FFE7FFE0000
003FFE7FFC0000
001FFFFFF80000
0003FFFFC00000
0000FFFF000000
00003FFE000000
00001FF8000000
000007F0000000
000003C0000000
00000180000000
00000000000000
00000000000000
00000000000000
00000000000000
FFFFFFFE000000
FFFFFFFFE00000
FFFFFFFFFC0000
FFFFFFFFFF0000
FFFFFFFFFFC000
0FFFE00FFFF000
07FFE001FFF800
03FFE0003FFC00
03FFE0001FFE00
01FFE0000FFF00
01FFE00007FF80
01FFE00003FFC0
01FFE00001FFC0
01FFE00000FFE0
01FFE00000FFF0
01FFE000007FF0
01FFE000007FF0
01FFE000007FF8
01FFE000003FF8
01FFE000003FF8
01FFE000003FFC
01FFE000001FFC
01FFE000001FFC
01FFE000001FFC
01FFE000001FFC
01FFE000001FFE
01FFE000001FFE
01FFE000001FFE
01FFE000001FFE
01FFE000001FFE
01FFE000001FFE
01FFE000001FFE
01FFE000001FFC
01FFE000001FFC
01FFE000001FFC
01FFE000001FFC
01FFE000001FFC
01FFE000003FFC
01FFE000003FF8
01FFE000003FF8
01FFE000003FF8
01FFE000007FF0
01FFE000007FF0
01FFE00000FFE0
01FFE00000FFE0
01FFE00001FFC0
01FFE00003FFC0
01FFE00007FF80
01FFE0000FFF00
03FFE0001FFE00
03FFF0007FFC00
07FFF807FFF800
7FFFFFFFFFE000
FFFFFFFFFFC000
FFFFFFFFFF0000
FFFFFFFFF80000
FFFFFFFF800000
ENDCHAR
STARTCHAR dcaron
ENCODING 271
SWIDTH 739 0
DWIDTH 55 0
BBX 51 62 2 -1
BITMAP
00000000040000
000000000C0000
000000003C0000
000000007C0000
00000001FC0000
0000000FFC0000
0000003FFC0000
000001FFFC0000
000003FFFC0080
000003FFFC07E0
000003FFFC1FE0
000003FFFC1FE0
0000007FFC1FE0
0000003FFC1FE0
0000001FFC1FE0
0000001FFC1FE0
0000001FFC1FC0
0000001FFC1FC0
0000001FFC1FC0
0000001FFC1F80
0000001FFC1F80
0000001FFC1F00
0007FC1FFC1F00
003FFF1FFC1E00
00FFFFDFFC3C00
01FFFFFFFC0000
03FFFFFFFC0000
07FFFFFFFC0000
0FFF03FFFC0000
1FFC00FFFC0000
1FF8007FFC0000
3FF0003FFC0000
3FE0003FFC0000
7FE0001FFC0000
7FE0001FFC0000
7FC0001FFC0000
7FC0001FFC0000
7FC0001FFC0000
FFC0001FFC0000
FFC0001FFC0000
FFC0001FFC0000
FFC0001FFC0000
FFC0001FFC0000
FFC0001FFC0000
FFC0001FFC0000
FFC0001FFC0000
7FE0001FFC0000
7FE0001FFC0000
7FE0001FFC0000
7FF0001FFC0000
3FF0001FFC0000
3FF8001FFE0000
3FFC003FFE0000
1FFC007FFF0000
0FFF00FFFFC000
0FFFC3FFFFE000
07FFFFFFFFE000
03FFFFEFFFE000
01FFFFCFFFE000
007FFF8FFC0000
003FFF0F000000
0007F818000000
ENDCHAR
STARTCHAR Dcroat
ENCODING 272
SWIDTH 790 0
DWIDTH 59 0
BBX 55 57 2 0
BITMAP
FFFFFFFE000000
FFFFFFFFE00000
FFFFFFFFFC0000
FFFFFFFFFF0000
FFFFFFFFFFC000
0FFFE00FFFF000
07FFE001FFF800
03FFE0003FFC00
03FFE0001FFE00
01FFE0000FFF00
01FFE00007FF80
01FFE00003FFC0
01FFE00001FFC0
01FFE00000FFE0
01FFE00000FFF0
01FFE000007FF0
01FFE000007FF0
01FFE000007FF8
01FFE000003FF8
01FFE000003FF8
01FFE000003FFC
01FFE000001FFC
01FFE000001FFC
01FFE000001FFC
01FFE000001FFC
FFFFFFFFF01FFE
FFFFFFFFF01FFE
FFFFFFFFF01FFE
FFFFFFFFF01FFE
FFFFFFFFF01FFE
FFFFFFFFF01FFE
FFFFFFFFF01FFE
FFFFFFFFF01FFC
FFFFFFFFF01FFC
01FFE000001FFC
01FFE000001FFC
01FFE000001FFC
01FFE000003FFC
01FFE000003FF8
01FFE000003FF8
01FFE000003FF8
01FFE000007FF0
01FFE000007FF0
01FFE00000FFE0
01FFE00000FFE0
01FFE00001FFC0
01FFE00003FFC0
01FFE00007FF80
01FFE0000FFF00
03FFE0001FFE00
03FFF0007FFC00
07FFF807FFF800
7FFFFFFFFFE000
FFFFFFFFFFC000
FFFFFFFFFF0000
FFFFFFFFF80000
FFFFFFFF800000
ENDCHAR
STARTCHAR dcroat
ENCODING 273
SWIDTH 614 0
DWIDTH 46 0
BBX 43 61 2 -1
BITMAP
000000000C00
000000001C00
000000007C00
00000001FC00
00000007FC00
0000001FFC00
000000FFFC00
000003FFFC00
000003FFFC00
000003FFFC00
000003FFFC00
000000FFFC00
0000003FFC00
0000003FFC00
0000001FFC00
000003FFFFC0
000003FFFFE0
000003FFFFE0
000003FFFFE0
000003FFFFC0
0000001FFC00
0007FC1FFC00
003FFF1FFC00
00FFFFDFFC00
01FFFFFFFC00
03FFFFFFFC00
07FFFFFFFC00
0FFF03FFFC00
1FFC00FFFC00
1FF8007FFC00
3FF0003FFC00
3FE0003FFC00
7FE0001FFC00
7FE0001FFC00
7FC0001FFC00
7FC0001FFC00
7FC0001FFC00
FFC0001FFC00
FFC0001FFC00
FFC0001FFC00
FFC0001FFC00
FFC0001FFC00
FFC0001FFC00
FFC0001FFC00
FFC0001FFC00
7FE0001FFC00
7FE0001FFC00
7FE0001FFC00
7FF0001FFC00
3FF0001FFC00
3FF8001FFE00
3FFC003FFE00
1FFC007FFF00
0FFF00FFFFC0
0FFFC3FFFFE0
07FFFFFFFFE0
03FFFFEFFFE0
01FFFFCFFFE0
007FFF8FFC00
003FFF0F0000
0007F8180000
ENDCHAR
STARTCHAR Emacron
ENCODING 274
SWIDTH 755 0
DWIDTH 57 0
BBX 53 74 2 -1
BITMAP
0003FFFFF00000
0003FFFFF80000
0003FFFFF80000
0003FFFFF80000
0003FFFFF80000
0003FFFFF80000
0003FFFFF00000
00000000000000
00000000000000
00000000000000
00000000000000
00000000000000
00000000000000
00000000000000
00000000000000
00000000004000
FFFFFFFFFFE000
FFFFFFFFFFF000
FFFFFFFFFFF000
FFFFFFFFFFF800
1FFFFFFFFFF800
07FFE0001FFC00
03FFE00003FE00
03FFE00001FE00
01FFE00000FF00
01FFE000007F00
01FFE000003F80
01FFE000001E00
01FFE000001800
01FFE000000000
01FFE000000000
01FFE000000000
01FFE000780000
01FFE000780000
01FFE000780000
01FFE000F80000
01FFE000F80000
01FFE001F80000
01FFE007F80000
01FFFFFFF80000
01FFFFFFF80000
01FFFFFFF80000
01FFFFFFF80000
01FFFFFFF80000
01FFFFFFF80000
01FFE007F80000
01FFE001F80000
01FFE000F80000
01FFE000F80000
01FFE000780000
01FFE000780000
01FFE000780000
01FFE000000000
01FFE000000000
01FFE000000000
01FFE000000040
01FFE0000000F0
01FFE0000000F8
01FFE0000001F8
01FFE0000001F0
01FFE0000003F0
01FFE0000007E0
01FFE000000FE0
01FFE000000FE0
01FFE000003FC0
03FFF000007FC0
03FFF00001FF80
07FFFC001FFF80
1FFFFFFFFFFF00
FFFFFFFFFFFF00
FFFFFFFFFFFE00
FFFFFFFFFFFE00
FFFFFFFFFFFC00
00000000000C00
ENDCHAR
STARTCHAR emacron
ENCODING 275
SWIDTH 515 0
DWIDTH 39 0
BBX 36 55 2 -1
BITMAP
03FFFFF000
03FFFFF000
03FFFFF000
03FFFFF000
03FFFFF000
03FFFFF000
03FFFFF000
0000000000
0000000000
0000000000
0000000000
0000000000
0000000000
0000000000
0000000000
0003FC0000
001FFF8000
007FFFC000
01FFFFF000
03FFFFF800
07FFFFFC00
0FFC3FFC00
1FF00FFE00
1FE00FFF00
3FE007FF00
3FC003FF80
7FC003FF80
7FC003FF80
7FC003FF80
7FC003FFC0
FFC007FF80
FFC01FFF00
FFC07FF800
FFC1FFE000
FFC7FF8000
FFDFFE0000
FFFFF00000
FFFFC00000
7FFF000000
7FFC000000
7FE0000000
7FF0000000
3FF0000000
3FF80000C0
1FF80001F0
1FFC0003F0
0FFE0007E0
0FFF801FE0
07FFF07FC0
03FFFFFF80
01FFFFFF00
007FFFFE00
003FFFFC00
000FFFF000
0001FF8000
ENDCHAR
STARTCHAR Ebreve
ENCODING 276
SWIDTH 755 0
DWIDTH 57 0
BBX 53 77 2 -1
BITMAP
00002001000000
0007F001FC0000
0007F003FC0000
0007F803FC0000
0007F803F80000
0003FC07F80000
0003FE0FF80000
0001FFFFF00000
0000FFFFE00000
00007FFFC00000
00003FFF800000
00001FFF000000
000003F8000000
00000000000000
00000000000000
00000000000000
00000000000000
00000000000000
00000000004000
FFFFFFFFFFE000
FFFFFFFFFFF000
FFFFFFFFFFF000
FFFFFFFFFFF800
1FFFFFFFFFF800
07FFE0001FFC00
03FFE00003FE00
03FFE00001FE00
01FFE00000FF00
01FFE000007F00
01FFE000003F80
01FFE000001E00
01FFE000001800
01FFE000000000
01FFE000000000
01FFE000000000
01FFE000780000
01FFE000780000
01FFE000780000
01FFE000F80000
01FFE000F80000
01FFE001F80000
01FFE007F80000
01FFFFFFF80000
01FFFFFFF80000
01FFFFFFF80000
01FFFFFFF80000
01FFFFFFF80000
01FFFFFFF80000
01FFE007F80000
01FFE001F80000
01FFE000F80000
01FFE000F80000
01FFE000780000
01FFE000780000
01FFE000780000
01FFE000000000
01FFE000000000
01FFE000000000
01FFE000000040
01FFE0000000F0
01FFE0000000F8
01FFE0000001F8
01FFE0000001F0
01FFE0000003F0
01FFE0000007E0
01FFE000000FE0
01FFE000000FE0
01FFE000003FC0
03FFF000007FC0
03FFF00001FF80
07FFFC001FFF80
1FFFFFFFFFFF00
FFFFFFFFFFFF00
FFFFFFFFFFFE00
FFFFFFFFFFFE00
FFFFFFFFFFFC00
00000000000C00
ENDCHAR
STARTCHAR ebreve
ENCODING 277
SWIDTH 515 0
DWIDTH 39 0
BBX 36 58 2 -1
BITMAP
0020010000
07F001F800
07F003FC00
07F003FC00
07F807F800
03FC07F800
03FE1FF000
01FFFFF000
01FFFFE000
00FFFFC000
003FFF8000
001FFE0000
0007F80000
0000000000
0000000000
0000000000
0000000000
0000000000
0003FC0000
001FFF8000
007FFFC000
01FFFFF000
03FFFFF800
07FFFFFC00
0FFC3FFC00
1FF00FFE00
1FE00FFF00
3FE007FF00
3FC003FF80
7FC003FF80
7FC003FF80
7FC003FF80
7FC003FFC0
FFC007FF80
FFC01FFF00
FFC07FF800
FFC1FFE000
FFC7FF8000
FFDFFE0000
FFFFF00000
FFFFC00000
7FFF000000
7FFC000000
7FE0000000
7FF0000000
3FF0000000
3FF80000C0
1FF80001F0
1FFC0003F0
0FFE0007E0
0FFF801FE0
07FFF07FC0
03FFFFFF80
01FFFFFF00
007FFFFE00
003FFFFC00
000FFFF000
0001FF8000
ENDCHAR
STARTCHAR Edotaccent
ENCODING 278
SWIDTH 755 0
DWIDTH 57 0
BBX 53 76 2 -1
BITMAP
000001E0000000
000003F8000000
000007FC000000
00000FFE000000
00000FFE000000
00000FFE000000
00000FFE000000
00000FFE000000
000007FC000000
000003F8000000
000001E0000000
00000000000000
00000000000000
00000000000000
00000000000000
00000000000000
00000000000000
00000000004000
FFFFFFFFFFE000
FFFFFFFFFFF000
FFFFFFFFFFF000
FFFFFFFFFFF800
1FFFFFFFFFF800
07FFE0001FFC00
03FFE00003FE00
03FFE00001FE00
01FFE00000FF00
01FFE000007F00
01FFE000003F80
01FFE000001E00
01FFE000001800
01FFE000000000
01FFE000000000
01FFE000000000
01FFE000780000
01FFE000780000
01FFE000780000
01FFE000F80000
01FFE000F80000
01FFE001F80000
01FFE007F80000
01FFFFFFF80000
01FFFFFFF80000
01FFFFFFF80000
01FFFFFFF80000
01FFFFFFF80000
01FFFFFFF80000
01FFE007F80000
01FFE001F80000
01FFE000F80000
01FFE000F80000
01FFE000780000
01FFE000780000
01FFE000780000
01FFE000000000
01FFE000000000
01FFE000000000
01FFE000000040
01FFE0000000F0
01FFE0000000F8
01FFE0000001F8
01FFE0000001F0
01FFE0000003F0
01FFE0000007E0
01FFE000000FE0
01FFE000000FE0
01FFE000003FC0
03FFF000007FC0
03FFF00001FF80
07FFFC001FFF80
1FFFFFFFFFFF00
FFFFFFFFFFFF00
FFFFFFFFFFFE00
FFFFFFFFFFFE00
FFFFFFFFFFFC00
00000000000C00
ENDCHAR
STARTCHAR edotaccent
ENCODING 279
SWIDTH 515 0
DWIDTH 39 0
BBX 36 57 2 -1
BITMAP
0001E00000
0003F80000
0007FC0000
000FFC0000
000FFE0000
000FFE0000
000FFE0000
000FFC0000
0007FC0000
0003F80000
0001E00000
0000000000
0000000000
0000000000
0000000000
0000000000
0000000000
0003FC0000
001FFF8000
007FFFC000
01FFFFF000
03FFFFF800
07FFFFFC00
0FFC3FFC00
1FF00FFE00
1FE00FFF00
3FE007FF00
3FC003FF80
7FC003FF80
7FC003FF80
7FC003FF80
7FC003FFC0
FFC007FF80
FFC01FFF00
FFC07FF800
FFC1FFE000
FFC7FF8000
FFDFFE0000
FFFFF00000
FFFFC00000
7FFF000000
7FFC000000
7FE0000000
7FF0000000
3FF0000000
3FF80000C0
1FF80001F0
1FFC0003F0
0FFE0007E0
0FFF801FE0
07FFF07FC0
03FFFFFF80
01FFFFFF00
007FFFFE00
003FFFFC00
000FFFF000
0001FF8000
ENDCHAR
STARTCHAR Eogonek
ENCODING 280
SWIDTH 755 0
DWIDTH 57 0
BBX 53 77 2 -19
BITMAP
00000000004000
FFFFFFFFFFE000
FFFFFFFFFFF000
FFFFFFFFFFF000
FFFFFFFFFFF800
1FFFFFFFFFF800
07FFE0001FFC00
03FFE00003FE00
03FFE00001FE00
01FFE00000FF00
01FFE000007F00
01FFE000003F80
01FFE000001E00
01FFE000001800
01FFE000000000
01FFE000000000
01FFE000000000
01FFE000780000
01FFE000780000
01FFE000780000
01FFE000F80000
01FFE000F80000
01FFE001F80000
01FFE007F80000
01FFFFFFF80000
01FFFFFFF80000
01FFFFFFF80000
01FFFFFFF80000
01FFFFFFF80000
01FFFFFFF80000
01FFE007F80000
01FFE001F80000
01FFE000F80000
01FFE000F80000
01FFE000780000
01FFE000780000
01FFE000780000
01FFE000000000
01FFE000000000
01FFE000000000
01FFE000000040
01FFE0000000F0
01FFE0000000F8
01FFE0000001F8
01FFE0000001F0
01FFE0000003F0
01FFE0000007E0
01FFE000000FE0
01FFE000000FE0
01FFE000003FC0
03FFF000007FC0
03FFF00001FF80
07FFFC001FFF80
1FFFFFFFFFFF00
FFFFFFFFFFFF00
FFFFFFFFFFFE00
FFFFFFFFFFFE00
FFFFFFFFFFFC00
00000001FF0C00
00000003FC0000
00000007F80000
0000000FF00000
0000000FF00000
0000000FE00000
0000000FE00000
0000000FE00000
0000000FE00000
0000000FF00000
0000000FF00000
0000000FF80300
00000007FE1F00
00000007FFFF00
00000003FFFF00
00000001FFFF00
00000000FFFE00
000000007FFC00
000000000FE000
ENDCHAR
STARTCHAR eogonek
ENCODING 281
SWIDTH 515 0
DWIDTH 39 0
BBX 36 56 2 -17
BITMAP
0003FC0000
001FFF8000
007FFFC000
01FFFFF000
03FFFFF800
07FFFFFC00
0FFC3FFC00
1FF00FFE00
1FE00FFF00
3FE007FF00
3FC003FF80
7FC003FF80
7FC003FF80
7FC003FF80
7FC003FFC0
FFC007FF80
FFC01FFF00
FFC07FF800
FFC1FFE000
FFC7FF8000
FFDFFE0000
FFFFF00000
FFFFC00000
7FFF000000
7FFC000000
7FE0000000
7FF0000000
3FF0000000
3FF80000C0
1FF80001F0
1FFC0003F0
0FFE0007E0
0FFF801FE0
07FFF0FFC0
03FFFFFF80
01FFFFFF00
007FFFFE00
003FFFFC00
000FFFF000
0001FF8000
0001FE0000
0001FC0000
0003FC0000
0003FC0000
0003FC0000
0003FC0000
0003FC0000
0001FE0000
0001FE0060
0001FFC3E0
0000FFFFE0
00007FFFE0
00007FFFE0
00003FFFC0
00000FFF00
000003F800
ENDCHAR
STARTCHAR Ecaron
ENCODING 282
SWIDTH 755 0
DWIDTH 57 0
BBX 53 78 2 -1
BITMAP
000780007C0000
000FE001FE0000
001FF003FE0000
001FF807FF0000
001FFC0FFF0000
001FFE1FFF0000
001FFF1FFF0000
001FFF3FFE0000
0007FFFFFC0000
0001FFFFE00000
00007FFF800000
00001FFF000000
00000FFC000000
000003F8000000
000001E0000000
000000C0000000
00000000000000
00000000000000
00000000000000
00000000004000
FFFFFFFFFFE000
FFFFFFFFFFF000
FFFFFFFFFFF000
FFFFFFFFFFF800
1FFFFFFFFFF800
07FFE0001FFC00
03FFE00003FE00
03FFE00001FE00
01FFE00000FF00
01FFE000007F00
01FFE000003F80
01FFE000001E00
01FFE000001800
01FFE000000000
01FFE000000000
01FFE000000000
01FFE000780000
01FFE000780000
01FFE000780000
01FFE000F80000
01FFE000F80000
01FFE001F80000
01FFE007F80000
01FFFFFFF80000
01FFFFFFF80000
01FFFFFFF80000
01FFFFFFF80000
01FFFFFFF80000
01FFFFFFF80000
01FFE007F80000
01FFE001F80000
01FFE000F80000
01FFE000F80000
01FFE000780000
01FFE000780000
01FFE000780000
01FFE000000000
01FFE000000000
01FFE000000000
01FFE000000040
01FFE0000000F0
01FFE0000000F8
01FFE0000001F8
01FFE0000001F0
01FFE0000003F0
01FFE0000007E0
01FFE000000FE0
01FFE000000FE0
01FFE000003FC0
03FFF000007FC0
03FFF00001FF80
07FFFC001FFF80
1FFFFFFFFFFF00
FFFFFFFFFFFF00
FFFFFFFFFFFE00
FFFFFFFFFFFE00
FFFFFFFFFFFC00
00000000000C00
ENDCHAR
STARTCHAR ecaron
ENCODING 283
SWIDTH 515 0
DWIDTH 39 0
BBX 36 59 2 -1
BITMAP
0F80007C00
1FE001FE00
1FF003FE00
1FF807FE00
3FFC0FFE00
3FFE1FFF00
3FFF3FFE00
1FFF3FFE00
0FFFFFFC00
01FFFFE000
007FFF8000
003FFE0000
000FFC0000
0007F80000
0001E00000
0000C00000
0000000000
0000000000
0000000000
0003FC0000
001FFF8000
007FFFC000
01FFFFF000
03FFFFF800
07FFFFFC00
0FFC3FFC00
1FF00FFE00
1FE00FFF00
3FE007FF00
3FC003FF80
7FC003FF80
7FC003FF80
7FC003FF80
7FC003FFC0
FFC007FF80
FFC01FFF00
FFC07FF800
FFC1FFE000
FFC7FF8000
FFDFFE0000
FFFFF00000
FFFFC00000
7FFF000000
7FFC000000
7FE0000000
7FF0000000
3FF0000000
3FF80000C0
1FF80001F0
1FFC0003F0
0FFE0007E0
0FFF801FE0
07FFF07FC0
03FFFFFF80
01FFFFFF00
007FFFFE00
003FFFFC00
000FFFF000
0001FF8000
ENDCHAR
STARTCHAR Gcircumflex
ENCODING 284
SWIDTH 772 0
DWIDTH 58 0
BBX 53 78 3 -1
BITMAP
00000060000000
000000F0000000
000003FC000000
000007FE000000
00001FFF000000
00003FFFC00000
0000FFFFF00000
0007FFFFFE0000
000FFF9FFF0000
001FFF9FFF0000
001FFF0FFF8000
001FFE07FF0000
000FFC03FF0000
000FF801FF0000
000FF000FF0000
0007C0003E0000
00000000000000
00000000000000
00000000000000
000007FF800000
00007FFFF80000
0001FFFFFE0000
0007FFFFFF8000
001FFFFFFFE000
003FFFFFFFF000
007FFF03FFF800
00FFF800FFFC00
01FFF0003FFE00
03FFC0001FFE00
07FF80000FFF00
07FF80000FFF80
0FFF000007FF80
1FFE000007FFC0
1FFE000007FFC0
3FFC000007FFC0
3FFC000003FFC0
3FFC000003FFC0
7FF8000003FF00
7FF8000003F800
7FF8000003E000
7FF80000030000
FFF80000000000
FFF80000000000
FFF80000000000
FFF00000000000
FFF00000000000
FFF00000000000
FFF00000000000
FFF80000000000
FFF8000FFFFFF8
FFF8000FFFFFF8
FFF8000FFFFFF8
FFF8000FFFFFF8
FFF8000FFFFFF8
FFF800007FFFC0
FFFC00001FFFC0
FFFC00000FFFC0
7FFC00000FFFC0
7FFC000007FFC0
7FFE000007FFC0
3FFE000007FFC0
3FFF000007FFC0
3FFF000007FFC0
1FFF800007FFC0
1FFF800007FFC0
0FFFC00007FF80
0FFFE00007FF80
07FFF00007FF00
03FFF8000FFE00
01FFFC001FFE00
00FFFF807FFC00
007FFFFFFFF800
003FFFFFFFF000
001FFFFFFFC000
0007FFFFFF8000
0001FFFFFE0000
00007FFFF00000
000007FF800000
ENDCHAR
STARTCHAR gcircumflex
ENCODING 285
SWIDTH 522 0
DWIDTH 39 0
BBX 38 75 1 -17
BITMAP
0000200000
0000F80000
0001FC0000
0003FE0000
000FFF8000
003FFFE000
00FFFFF800
03FFDFFE00
0FFFDFFF80
0FFF8FFF80
0FFF07FF80
0FFF07FF80
0FFE03FF80
0FFC01FF80
07F0007F00
03C0001E00
0000000000
0000000000
000000003C
0007FC01FC
003FFF81FC
00FFFFE1FC
01FFFFFFFC
03FFFFFFF8
07FE07FFF8
0FFC03FFF0
1FF801FFE0
1FF001FF80
3FF000FF80
3FE000FFC0
3FE000FFC0
3FE0007FC0
7FE0007FC0
7FE0007FC0
7FE0007FC0
7FE0007FC0
3FE0007FC0
3FE000FFC0
3FE000FFC0
3FF000FF80
1FF001FF80
1FF801FF00
0FFC03FE00
07FE07FC00
07FFFFF800
0FFFFFF000
1F3FFFC000
3F07FE0000
3F00000000
7F00000000
7F80000000
7FF0000000
7FFFFF8000
7FFFFFF800
3FFFFFFE00
3FFFFFFF80
1FFFFFFFC0
0FFFFFFFE0
0FFFFFFFE0
1FFFFFFFF0
3FCFFFFFF0
7F8000FFF0
7F00001FF0
7F00000FF0
7F000007F0
FF000007F0
7F800007F0
7F80000FE0
7FC0001FE0
3FF800FFC0
3FFFFFFF80
0FFFFFFF00
07FFFFFC00
01FFFFF000
001FFF0000
ENDCHAR
STARTCHAR Gbreve
ENCODING 286
SWIDTH 772 0
DWIDTH 58 0
BBX 53 77 3 -1
BITMAP
00001000800000
0003F801FC0000
0007F801FC0000
0003F801FC0000
0003FC03FC0000
0003FC03FC0000
0001FF0FF80000
0001FFFFF00000
0000FFFFF00000
00007FFFE00000
00003FFFC00000
00000FFF000000
000003FC000000
00000000000000
00000000000000
00000000000000
00000000000000
00000000000000
000007FF800000
00007FFFF80000
0001FFFFFE0000
0007FFFFFF8000
001FFFFFFFE000
003FFFFFFFF000
007FFF03FFF800
00FFF800FFFC00
01FFF0003FFE00
03FFC0001FFE00
07FF80000FFF00
07FF80000FFF80
0FFF000007FF80
1FFE000007FFC0
1FFE000007FFC0
3FFC000007FFC0
3FFC000003FFC0
3FFC000003FFC0
7FF8000003FF00
7FF8000003F800
7FF8000003E000
7FF80000030000
FFF80000000000
FFF80000000000
FFF80000000000
FFF00000000000
FFF00000000000
FFF00000000000
FFF00000000000
FFF80000000000
FFF8000FFFFFF8
FFF8000FFFFFF8
FFF8000FFFFFF8
FFF8000FFFFFF8
FFF8000FFFFFF8
FFF800007FFFC0
FFFC00001FFFC0
FFFC00000FFFC0
7FFC00000FFFC0
7FFC000007FFC0
7FFE000007FFC0
3FFE000007FFC0
3FFF000007FFC0
3FFF000007FFC0
1FFF800007FFC0
1FFF800007FFC0
0FFFC00007FF80
0FFFE00007FF80
07FFF00007FF00
03FFF8000FFE00
01FFFC001FFE00
00FFFF807FFC00
007FFFFFFFF800
003FFFFFFFF000
001FFFFFFFC000
0007FFFFFF8000
0001FFFFFE0000
00007FFFF00000
000007FF800000
ENDCHAR
STARTCHAR gbreve
ENCODING 287
SWIDTH 522 0
DWIDTH 39 0
BBX 38 74 1 -17
BITMAP
0010004000
03F800FE00
03F800FE00
03FC01FE00
03FC01FE00
01FE03FC00
01FF07FC00
00FFFFF800
007FFFF000
003FFFE000
001FFFC000
000FFF8000
0001FC0000
0000000000
0000000000
0000000000
0000000000
000000003C
0007FC01FC
003FFF81FC
00FFFFE1FC
01FFFFFFFC
03FFFFFFF8
07FE07FFF8
0FFC03FFF0
1FF801FFE0
1FF001FF80
3FF000FF80
3FE000FFC0
3FE000FFC0
3FE0007FC0
7FE0007FC0
7FE0007FC0
7FE0007FC0
7FE0007FC0
3FE0007FC0
3FE000FFC0
3FE000FFC0
3FF000FF80
1FF001FF80
1FF801FF00
0FFC03FE00
07FE07FC00
07FFFFF800
0FFFFFF000
1F3FFFC000
3F07FE0000
3F00000000
7F00000000
7F80000000
7FF0000000
7FFFFF8000
7FFFFFF800
3FFFFFFE00
3FFFFFFF80
1FFFFFFFC0
0FFFFFFFE0
0FFFFFFFE0
1FFFFFFFF0
3FCFFFFFF0
7F8000FFF0
7F00001FF0
7F00000FF0
7F000007F0
FF000007F0
7F800007F0
7F80000FE0
7FC0001FE0
3FF800FFC0
3FFFFFFF80
0FFFFFFF00
07FFFFFC00
01FFFFF000
001FFF0000
ENDCHAR
STARTCHAR Gdotaccent
ENCODING 288
SWIDTH 772 0
DWIDTH 58 0
BBX 53 76 3 -1
BITMAP
000000F0000000
000001F8000000
000003FC000000
000007FE000000
00000FFF000000
00000FFF000000
00000FFF000000
000007FE000000
000003FC000000
000001F8000000
000000F0000000
00000000000000
00000000000000
00000000000000
00000000000000
00000000000000
00000000000000
000007FF800000
00007FFFF80000
0001FFFFFE0000
0007FFFFFF8000
001FFFFFFFE000
003FFFFFFFF000
007FFF03FFF800
00FFF800FFFC00
01FFF0003FFE00
03FFC0001FFE00
07FF80000FFF00
07FF80000FFF80
0FFF000007FF80
1FFE000007FFC0
1FFE000007FFC0
3FFC000007FFC0
3FFC000003FFC0
3FFC000003FFC0
7FF8000003FF00
7FF8000003F800
7FF8000003E000
7FF80000030000
FFF80000000000
FFF80000000000
FFF80000000000
FFF00000000000
FFF00000000000
FFF00000000000
FFF00000000000
FFF80000000000
FFF8000FFFFFF8
FFF8000FFFFFF8
FFF8000FFFFFF8
FFF8000FFFFFF8
FFF8000FFFFFF8
FFF800007FFFC0
FFFC00001FFFC0
FFFC00000FFFC0
7FFC00000FFFC0
7FFC000007FFC0
7FFE000007FFC0
3FFE000007FFC0
3FFF000007FFC0
3FFF000007FFC0
1FFF800007FFC0
1FFF800007FFC0
0FFFC00007FF80
0FFFE00007FF80
07FFF00007FF00
03FFF8000FFE00
01FFFC001FFE00
00FFFF807FFC00
007FFFFFFFF800
003FFFFFFFF000
001FFFFFFFC000
0007FFFFFF8000
0001FFFFFE0000
00007FFFF00000
000007FF800000
ENDCHAR
STARTCHAR gdotaccent
ENCODING 289
SWIDTH 522 0
DWIDTH 39 0
BBX 38 73 1 -17
BITMAP
0000780000
0001FC0000
0003FE0000
0007FF0000
0007FF0000
0007FF0000
0007FF0000
0007FF0000
0003FE0000
0001FC0000
0000780000
0000000000
0000000000
0000000000
0000000000
0000000000
000000003C
0007FC01FC
003FFF81FC
00FFFFE1FC
01FFFFFFFC
03FFFFFFF8
07FE07FFF8
0FFC03FFF0
1FF801FFE0
1FF001FF80
3FF000FF80
3FE000FFC0
3FE000FFC0
3FE0007FC0
7FE0007FC0
7FE0007FC0
7FE0007FC0
7FE0007FC0
3FE0007FC0
3FE000FFC0
3FE000FFC0
3FF000FF80
1FF001FF80
1FF801FF00
0FFC03FE00
07FE07FC00
07FFFFF800
0FFFFFF000
1F3FFFC000
3F07FE0000
3F00000000
7F00000000
7F80000000
7FF0000000
7FFFFF8000
7FFFFFF800
3FFFFFFE00
3FFFFFFF80
1FFFFFFFC0
0FFFFFFFE0
0FFFFFFFE0
1FFFFFFFF0
3FCFFFFFF0
7F8000FFF0
7F00001FF0
7F00000FF0
7F000007F0
FF000007F0
7F800007F0
7F80000FE0
7FC0001FE0
3FF800FFC0
3FFFFFFF80
0FFFFFFF00
07FFFFFC00
01FFFFF000
001FFF0000
ENDCHAR
STARTCHAR uni0122
ENCODING 290
SWIDTH 772 0
DWIDTH 58 0
BBX 53 81 3 -23
BITMAP
000007FF800000
00007FFFF80000
0001FFFFFE0000
0007FFFFFF8000
001FFFFFFFE000
003FFFFFFFF000
007FFF03FFF800
00FFF800FFFC00
01FFF0003FFE00
03FFC0001FFE00
07FF80000FFF00
07FF80000FFF80
0FFF000007FF80
1FFE000007FFC0
1FFE000007FFC0
3FFC000007FFC0
3FFC000003FFC0
3FFC000003FFC0
7FF8000003FF00
7FF8000003F800
7FF8000003E000
7FF80000030000
FFF80000000000
FFF80000000000
FFF80000000000
FFF00000000000
FFF00000000000
FFF00000000000
FFF00000000000
FFF80000000000
FFF8000FFFFFF8
FFF8000FFFFFF8
FFF8000FFFFFF8
FFF8000FFFFFF8
FFF8000FFFFFF8
FFF800007FFFC0
FFFC00001FFFC0
FFFC00000FFFC0
7FFC00000FFFC0
7FFC000007FFC0
7FFE000007FFC0
3FFE000007FFC0
3FFF000007FFC0
3FFF000007FFC0
1FFF800007FFC0
1FFF800007FFC0
0FFFC00007FF80
0FFFE00007FF80
07FFF00007FF00
03FFF8000FFE00
01FFFC001FFE00
00FFFF807FFC00
007FFFFFFFF800
003FFFFFFFF000
001FFFFFFFC000
0007FFFFFF8000
0001FFFFFE0000
00007FFFF00000
000007FF800000
00000000000000
00000000000000
00000000000000
00000000000000
00000070000000
000000F8000000
000001FC000000
000003FE000000
000003FF000000
000007FF000000
000003FF000000
000003FF000000
000001FF000000
000000FE000000
0000007E000000
0000007C000000
00000078000000
000000F0000000
000001E0000000
000001C0000000
00000380000000
00000700000000
ENDCHAR
STARTCHAR uni0123
ENCODING 291
SWIDTH 522 0
DWIDTH 39 0
BBX 38 78 1 -17
BITMAP
0000020000
0000078000
00001E0000
00003C0000
00007C0000
0000F80000
0000F80000
0001F00000
0003F00000
0003F80000
0007FC0000
0007FE0000
0007FF0000
0007FF0000
0003FE0000
0001FE0000
0000FC0000
0000780000
0000200000
0000000000
0000000000
000000003C
0007FC01FC
003FFF81FC
00FFFFE1FC
01FFFFFFFC
03FFFFFFF8
07FE07FFF8
0FFC03FFF0
1FF801FFE0
1FF001FF80
3FF000FF80
3FE000FFC0
3FE000FFC0
3FE0007FC0
7FE0007FC0
7FE0007FC0
7FE0007FC0
7FE0007FC0
3FE0007FC0
3FE000FFC0
3FE000FFC0
3FF000FF80
1FF001FF80
1FF801FF00
0FFC03FE00
07FE07FC00
07FFFFF800
0FFFFFF000
1F3FFFC000
3F07FE0000
3F00000000
7F00000000
7F80000000
7FF0000000
7FFFFF8000
7FFFFFF800
3FFFFFFE00
3FFFFFFF80
1FFFFFFFC0
0FFFFFFFE0
0FFFFFFFE0
1FFFFFFFF0
3FCFFFFFF0
7F8000FFF0
7F00001FF0
7F00000FF0
7F000007F0
FF000007F0
7F800007F0
7F80000FE0
7FC0001FE0
3FF800FFC0
3FFFFFFF80
0FFFFFFF00
07FFFFFC00
01FFFFF000
001FFF0000
ENDCHAR
STARTCHAR Hcircumflex
ENCODING 292
SWIDTH 898 0
DWIDTH 67 0
BBX 63 77 2 0
BITMAP
0000000180000000
00000007C0000000
0000000FE0000000
0000001FF8000000
0000007FFC000000
000001FFFF000000
000007FFFFC00000
00001FFEFFF00000
00007FFEFFFC0000
00007FFC7FFC0000
00007FFC3FFC0000
00007FF81FFC0000
00007FF01FFC0000
00003FE00FFC0000
00003FC003F80000
00001F0000F00000
0000000000000000
0000000000000000
0000000000000000
0000000000000000
FFFFFF8003FFFFFE
FFFFFFC003FFFFFE
FFFFFFC003FFFFFE
FFFFFFC003FFFFFE
FFFFFF8003FFFFFE
0FFFFC00003FFFE0
07FFF000001FFFC0
03FFF000000FFF80
03FFE000000FFF80
01FFE000000FFF80
01FFE000000FFF80
01FFE000000FFF80
01FFE000000FFF80
01FFE000000FFF80
01FFE000000FFF80
01FFE000000FFF80
01FFE000000FFF80
01FFE000000FFF80
01FFE000000FFF80
01FFE000000FFF80
01FFE000000FFF80
01FFE000000FFF80
01FFE000000FFF80
01FFE000000FFF80
01FFE000000FFF80
01FFFFFFFFFFFF80
01FFFFFFFFFFFF80
01FFFFFFFFFFFF80
01FFFFFFFFFFFF80
01FFFFFFFFFFFF80
01FFFFFFFFFFFF80
01FFE000000FFF80
01FFE000000FFF80
01FFE000000FFF80
01FFE000000FFF80
01FFE000000FFF80
01FFE000000FFF80
01FFE000000FFF80
01FFE000000FFF80
01FFE000000FFF80
01FFE000000FFF80
01FFE000000FFF80
01FFE000000FFF80
01FFE000000FFF80
01FFE000000FFF80
01FFE000000FFF80
01FFE000000FFF80
01FFE000000FFF80
03FFE000000FFF80
03FFF000000FFF80
07FFF000001FFFC0
0FFFFC00003FFFE0
FFFFFF8003FFFFFE
FFFFFFC003FFFFFE
FFFFFFC003FFFFFE
FFFFFFC003FFFFFE
FFFFFF8003FFFFFE
ENDCHAR
STARTCHAR hcircumflex
ENCODING 293
SWIDTH 681 0
DWIDTH 51 0
BBX 51 78 -1 0
BITMAP
00060000000000
000F8000000000
001FC000000000
007FE000000000
00FFF800000000
03FFFE00000000
0FFFFF80000000
3FFDFFE0000000
FFFDFFF8000000
FFF8FFF8000000
FFF0FFF8000000
FFF07FF8000000
FFE03FF8000000
FFC01FF0000000
7F000FF0000000
3C0003E0000000
00000000000000
00002000000000
00006000000000
0000E000000000
0003E000000000
000FE000000000
003FE000000000
01FFE000000000
0FFFE000000000
0FFFE000000000
0FFFE000000000
0FFFE000000000
0FFFE000000000
03FFE000000000
01FFE000000000
00FFE000000000
00FFE000000000
007FE000000000
007FE000000000
007FE000000000
007FE000000000
007FE000000000
007FE000000000
007FE00FF00000
007FE07FFE0000
007FE0FFFF8000
007FE3FFFFC000
007FE7FFFFC000
007FEFFFFFE000
007FEFC1FFE000
007FFF007FF000
007FFC007FF000
007FF8007FF000
007FF0003FF000
007FF0003FF000
007FE0003FF000
007FE0003FF800
007FE0003FF800
007FE0003FF800
007FE0003FF800
007FE0003FF800
007FE0003FF800
007FE0003FF800
007FE0003FF800
007FE0003FF800
007FE0003FF800
007FE0003FF800
007FE0003FF800
007FE0003FF800
007FE0003FF800
007FE0003FF800
007FE0003FF800
007FF0003FF800
00FFF0007FF800
00FFF8007FFC00
01FFF8007FFC00
03FFFE00FFFF00
3FFFFFC7FFFFE0
3FFFFFC7FFFFE0
3FFFFFC7FFFFE0
3FFFFFC7FFFFE0
3FFFFFC7FFFFE0
ENDCHAR
STARTCHAR Hbar
ENCODING 294
SWIDTH 898 0
DWIDTH 67 0
BBX 64 57 2 0
BITMAP
FFFFFF8003FFFFFE
FFFFFFC003FFFFFE
FFFFFFC003FFFFFE
FFFFFFC003FFFFFE
FFFFFF8003FFFFFE
0FFFFC00003FFFE0
07FFF000001FFFC0
03FFF000000FFF80
03FFE000000FFF80
01FFE000000FFF80
01FFE000000FFF80
01FFE000000FFF80
01FFE000000FFF80
FFFFFFFFFFFFFFFE
FFFFFFFFFFFFFFFF
FFFFFFFFFFFFFFFF
FFFFFFFFFFFFFFFF
FFFFFFFFFFFFFFFF
FFFFFFFFFFFFFFFE
01FFE000000FFF80
01FFE000000FFF80
01FFE000000FFF80
01FFE000000FFF80
01FFE000000FFF80
01FFE000000FFF80
01FFFFFFFFFFFF80
01FFFFFFFFFFFF80
01FFFFFFFFFFFF80
01FFFFFFFFFFFF80
01FFFFFFFFFFFF80
01FFFFFFFFFFFF80
01FFE000000FFF80
01FFE000000FFF80
01FFE000000FFF80
01FFE000000FFF80
01FFE000000FFF80
01FFE000000FFF80
01FFE000000FFF80
01FFE000000FFF80
01FFE000000FFF80
01FFE000000FFF80
01FFE000000FFF80
01FFE000000FFF80
01FFE000000FFF80
01FFE000000FFF80
01FFE000000FFF80
01FFE000000FFF80
01FFE000000FFF80
03FFE000000FFF80
03FFF000000FFF80
07FFF000001FFFC0
0FFFFC00003FFFE0
FFFFFF8003FFFFFE
FFFFFFC003FFFFFE
FFFFFFC003FFFFFE
FFFFFFC003FFFFFE
FFFFFF8003FFFFFE
ENDCHAR
STARTCHAR hbar
ENCODING 295
SWIDTH 681 0
DWIDTH 51 0
BBX 49 60 1 0
BITMAP
00008000000000
00038000000000
000F8000000000
003F8000000000
00FF8000000000
03FF8000000000
1FFF8000000000
3FFF8000000000
3FFF8000000000
3FFF8000000000
3FFF8000000000
0FFF8000000000
07FF8000000000
03FF8000000000
03FF8000000000
3FFFFFC0000000
3FFFFFC0000000
3FFFFFC0000000
3FFFFFC0000000
3FFFFFC0000000
01FF8000000000
01FF803FC00000
01FF81FFF80000
01FF83FFFE0000
01FF8FFFFF0000
01FF9FFFFF0000
01FFBFFFFF8000
01FFBF07FF8000
01FFFC01FFC000
01FFF001FFC000
01FFE001FFC000
01FFC000FFC000
01FFC000FFC000
01FF8000FFC000
01FF8000FFE000
01FF8000FFE000
01FF8000FFE000
01FF8000FFE000
01FF8000FFE000
01FF8000FFE000
01FF8000FFE000
01FF8000FFE000
01FF8000FFE000
01FF8000FFE000
01FF8000FFE000
01FF8000FFE000
01FF8000FFE000
01FF8000FFE000
01FF8000FFE000
01FF8000FFE000
01FFC000FFE000
03FFC001FFE000
03FFE001FFF000
07FFE001FFF000
0FFFF803FFFC00
FFFFFF1FFFFF80
FFFFFF1FFFFF80
FFFFFF1FFFFF80
FFFFFF1FFFFF80
FFFFFF1FFFFF80
ENDCHAR
STARTCHAR Itilde
ENCODING 296
SWIDTH 407 0
DWIDTH 31 0
BBX 26 76 2 0
BITMAP
07E00700
1FF81F80
3FFC3F80
7FFE1FC0
7FFE1FC0
FFFF0FC0
FF7F0FC0
FE3F9FC0
FE1FFFC0
FE1FFFC0
7E0FFF80
7F07FF00
3E03FE00
1C00FC00
00000000
00000000
00000000
00000000
00000000
7FFFFFC0
7FFFFFC0
7FFFFFC0
7FFFFFC0
7FFFFFC0
07FFFC00
03FFF800
03FFF000
01FFF000
01FFF000
01FFE000
01FFE000
01FFE000
01FFE000
01FFE000
01FFE000
01FFE000
01FFE000
01FFE000
01FFE000
01FFE000
01FFE000
01FFE000
01FFE000
01FFE000
01FFE000
01FFE000
01FFE000
01FFE000
01FFE000
01FFE000
01FFE000
01FFE000
01FFE000
01FFE000
01FFE000
01FFE000
01FFE000
01FFE000
01FFE000
01FFE000
01FFE000
01FFE000
01FFE000
01FFE000
01FFE000
01FFE000
01FFF000
01FFF000
03FFF000
03FFF800
07FFFC00
7FFFFFC0
7FFFFFC0
7FFFFFC0
7FFFFFC0
7FFFFFC0
ENDCHAR
STARTCHAR itilde
ENCODING 297
SWIDTH 347 0
DWIDTH 26 0
BBX 26 57 0 0
BITMAP
07E00F00
1FF01F80
3FF83F80
7FFC1FC0
7FFE1FC0
FFFF1FC0
FE7F1FC0
FE3F9FC0
FE1FFFC0
FE1FFFC0
FE0FFF80
7F07FF00
3E03FE00
1C01F800
00000000
00000000
00004000
0000C000
0001C000
0007C000
000FC000
003FC000
00FFC000
07FFC000
1FFFC000
3FFFC000
3FFFC000
3FFFC000
1FFFC000
03FFC000
01FFC000
01FFC000
01FFC000
00FFC000
00FFC000
00FFC000
00FFC000
00FFC000
00FFC000
00FFC000
00FFC000
00FFC000
00FFC000
00FFC000
00FFC000
00FFC000
00FFC000
01FFC000
01FFE000
01FFE000
03FFF000
07FFF800
7FFFFF80
7FFFFF80
7FFFFF80
7FFFFF80
7FFFFF80
ENDCHAR
STARTCHAR Imacron
ENCODING 298
SWIDTH 407 0
DWIDTH 31 0
BBX 25 73 3 0
BITMAP
7FFFFE00
7FFFFE00
7FFFFE00
7FFFFE00
7FFFFE00
7FFFFE00
7FFFFE00
00000000
00000000
00000000
00000000
00000000
00000000
00000000
00000000
00000000
FFFFFF80
FFFFFF80
FFFFFF80
FFFFFF80
FFFFFF80
0FFFF800
07FFF000
07FFE000
03FFE000
03FFE000
03FFC000
03FFC000
03FFC000
03FFC000
03FFC000
03FFC000
03FFC000
03FFC000
03FFC000
03FFC000
03FFC000
03FFC000
03FFC000
03FFC000
03FFC000
03FFC000
03FFC000
03FFC000
03FFC000
03FFC000
03FFC000
03FFC000
03FFC000
03FFC000
03FFC000
03FFC000
03FFC000
03FFC000
03FFC000
03FFC000
03FFC000
03FFC000
03FFC000
03FFC000
03FFC000
03FFC000
03FFC000
03FFE000
03FFE000
07FFE000
07FFF000
0FFFF800
FFFFFF80
FFFFFF80
FFFFFF80
FFFFFF80
FFFFFF80
ENDCHAR
STARTCHAR imacron
ENCODING 299
SWIDTH 347 0
DWIDTH 26 0
BBX 24 54 1 0
BITMAP
7FFFFE
7FFFFE
7FFFFE
7FFFFE
7FFFFE
7FFFFE
7FFFFE
000000
000000
000000
000000
000000
000000
000080
000180
000380
000F80
001F80
007F80
01FF80
0FFF80
3FFF80
7FFF80
7FFF80
7FFF80
3FFF80
07FF80
03FF80
03FF80
03FF80
01FF80
01FF80
01FF80
01FF80
01FF80
01FF80
01FF80
01FF80
01FF80
01FF80
01FF80
01FF80
01FF80
01FF80
03FF80
03FFC0
03FFC0
07FFE0
0FFFF0
FFFFFF
FFFFFF
FFFFFF
FFFFFF
FFFFFF
ENDCHAR
STARTCHAR Ibreve
ENCODING 300
SWIDTH 407 0
DWIDTH 31 0
BBX 25 76 3 0
BITMAP
04002000
FE003F00
FE007F80
FE007F80
FF007F00
7F80FF00
7FC3FE00
3FFFFE00
1FFFFC00
1FFFF800
07FFF000
03FFC000
007F0000
00000000
00000000
00000000
00000000
00000000
00000000
FFFFFF80
FFFFFF80
FFFFFF80
FFFFFF80
FFFFFF80
0FFFF800
07FFF000
07FFE000
03FFE000
03FFE000
03FFC000
03FFC000
03FFC000
03FFC000
03FFC000
03FFC000
03FFC000
03FFC000
03FFC000
03FFC000
03FFC000
03FFC000
03FFC000
03FFC000
03FFC000
03FFC000
03FFC000
03FFC000
03FFC000
03FFC000
03FFC000
03FFC000
03FFC000
03FFC000
03FFC000
03FFC000
03FFC000
03FFC000
03FFC000
03FFC000
03FFC000
03FFC000
03FFC000
03FFC000
03FFC000
03FFC000
03FFC000
03FFE000
03FFE000
07FFE000
07FFF000
0FFFF800
FFFFFF80
FFFFFF80
FFFFFF80
FFFFFF80
FFFFFF80
ENDCHAR
STARTCHAR ibreve
ENCODING 301
SWIDTH 347 0
DWIDTH 26 0
BBX 25 57 1 0
BITMAP
04002000
FE007F00
FE007F80
FE007F00
FF00FF00
FF00FF00
7FC3FE00
7FFFFE00
3FFFFC00
1FFFF800
0FFFF000
03FFC000
00FF0000
00000000
00000000
00000000
00008000
00018000
00038000
000F8000
001F8000
007F8000
01FF8000
0FFF8000
3FFF8000
7FFF8000
7FFF8000
7FFF8000
3FFF8000
07FF8000
03FF8000
03FF8000
03FF8000
01FF8000
01FF8000
01FF8000
01FF8000
01FF8000
01FF8000
01FF8000
01FF8000
01FF8000
01FF8000
01FF8000
01FF8000
01FF8000
01FF8000
03FF8000
03FFC000
03FFC000
07FFE000
0FFFF000
FFFFFF00
FFFFFF00
FFFFFF00
FFFFFF00
FFFFFF00
ENDCHAR
STARTCHAR Iogonek
ENCODING 302
SWIDTH 407 0
DWIDTH 31 0
BBX 30 76 3 -19
BITMAP
FFFFFF80
FFFFFF80
FFFFFF80
FFFFFF80
FFFFFF80
0FFFF800
07FFF000
07FFE000
03FFE000
03FFE000
03FFC000
03FFC000
03FFC000
03FFC000
03FFC000
03FFC000
03FFC000
03FFC000
03FFC000
03FFC000
03FFC000
03FFC000
03FFC000
03FFC000
03FFC000
03FFC000
03FFC000
03FFC000
03FFC000
03FFC000
03FFC000
03FFC000
03FFC000
03FFC000
03FFC000
03FFC000
03FFC000
03FFC000
03FFC000
03FFC000
03FFC000
03FFC000
03FFC000
03FFC000
03FFC000
03FFC000
03FFC000
03FFE000
03FFE000
07FFE000
07FFF000
0FFFF800
FFFFFF80
FFFFFF80
FFFFFF80
FFFFFF80
FFFFFF80
000FFC00
001FF000
003FC000
003FC000
007F8000
007F8000
007F8000
007F8000
007F8000
007F8000
007FC000
003FC00C
003FF07C
001FFFFC
001FFFFC
000FFFFC
0007FFF8
0001FFE0
00007F00
ENDCHAR
STARTCHAR iogonek
ENCODING 303
SWIDTH 347 0
DWIDTH 26 0
BBX 29 75 1 -19
BITMAP
003C0000
007F0000
00FF0000
01FF8000
01FFC000
03FFC000
01FFC000
01FF8000
00FF8000
007F0000
003C0000
00000000
00000000
00000000
00000000
00008000
00018000
00038000
000F8000
001F8000
007F8000
01FF8000
0FFF8000
3FFF8000
7FFF8000
7FFF8000
7FFF8000
3FFF8000
07FF8000
03FF8000
03FF8000
03FF8000
01FF8000
01FF8000
01FF8000
01FF8000
01FF8000
01FF8000
01FF8000
01FF8000
01FF8000
01FF8000
01FF8000
01FF8000
01FF8000
01FF8000
03FF8000
03FFC000
03FFC000
07FFE000
0FFFF000
FFFFFF00
FFFFFF00
FFFFFF00
FFFFFF00
FFFFFF00
001FF800
003FE000
007F8000
007F0000
00FF0000
00FE0000
00FE0000
00FE0000
00FF0000
00FF0000
00FF0000
007F8038
007FE1F8
003FFFF8
003FFFF8
001FFFF8
000FFFF0
0003FFC0
0000FE00
ENDCHAR
STARTCHAR Idotaccent
ENCODING 304
SWIDTH 407 0
DWIDTH 31 0
BBX 25 75 3 0
BITMAP
003C0000
007F0000
00FF8000
01FF8000
01FFC000
01FFC000
01FFC000
01FF8000
00FF8000
007F0000
003C0000
00000000
00000000
00000000
00000000
00000000
00000000
00000000
FFFFFF80
FFFFFF80
FFFFFF80
FFFFFF80
FFFFFF80
0FFFF800
07FFF000
07FFE000
03FFE000
03FFE000
03FFC000
03FFC000
03FFC000
03FFC000
03FFC000
03FFC000
03FFC000
03FFC000
03FFC000
03FFC000
03FFC000
03FFC000
03FFC000
03FFC000
03FFC000
03FFC000
03FFC000
03FFC000
03FFC000
03FFC000
03FFC000
03FFC000
03FFC000
03FFC000
03FFC000
03FFC000
03FFC000
03FFC000
03FFC000
03FFC000
03FFC000
03FFC000
03FFC000
03FFC000
03FFC000
03FFC000
03FFC000
03FFE000
03FFE000
07FFE000
07FFF000
0FFFF800
FFFFFF80
FFFFFF80
FFFFFF80
FFFFFF80
FFFFFF80
ENDCHAR
STARTCHAR dotlessi
ENCODING 305
SWIDTH 347 0
DWIDTH 26 0
BBX 24 41 1 0
BITMAP
000080
000180
000380
000F80
001F80
007F80
01FF80
0FFF80
3FFF80
7FFF80
7FFF80
7FFF80
3FFF80
07FF80
03FF80
03FF80
03FF80
01FF80
01FF80
01FF80
01FF80
01FF80
01FF80
01FF80
01FF80
01FF80
01FF80
01FF80
01FF80
01FF80
01FF80
03FF80
03FFC0
03FFC0
07FFE0
0FFFF0
FFFFFF
FFFFFF
FFFFFF
FFFFFF
FFFFFF
ENDCHAR
ENDFONT
